<svg width="80" height="80" fill="none" stroke="#5e5e5e" stroke-linecap="round" stroke-width="2" viewBox="0 0 24 24" xmlns="http://www.w3.org/2000/svg">
  <path d="M3.95 2.5c1.419 1.51 2.128 3.47 2.128 5.882C6.078 12 3 14.77 2.484 16.75 2.142 18.07 1.98 19.654 2 21.5"></path>
  <path d="M19.628 2.5C18.209 4.01 17.5 5.97 17.5 8.382c0 3.618 3.078 6.387 3.593 8.368.344 1.32.505 2.904.485 4.75"></path>
  <path d="M3.122 15.418c3.263 2.065 6.225 3.097 8.889 3.097 2.663 0 5.479-1.032 8.449-3.097"></path>
  <path fill="#5e5e5e" stroke="none" d="M12 15.5a1.25 1.25 0 1 0 0-2.5 1.25 1.25 0 0 0 0 2.5Z"></path>
</svg>