<svg width="80" height="80" fill="none" stroke="#5e5e5e" stroke-linecap="round" stroke-linejoin="round" stroke-width="2" viewBox="0 0 24 24" xmlns="http://www.w3.org/2000/svg">
  <path d="M21 17.5h-4"></path>
  <path d="M15.5 21h-2"></path>
  <path d="M7 11 4 8.5H2s2.743 5 4 5h16L19 11H7Z"></path>
  <path d="M15 11 9.33 7H8l1.5 4"></path>
  <path d="m15 13.5-6.4 6H7l2.133-6"></path>
  <path d="M16 5.5c0 .5-1.5 1-1.5 1h5s1.443 0 1.872-1.143c.443-1.178-.35-2.857-1.861-2.857C18 2.5 18 4 18 4s-.927-.286-1.5 0-.5 1-.5 1.5Z"></path>
</svg>