<svg width="80" height="80" fill="none" stroke="#5e5e5e" stroke-linecap="round" stroke-linejoin="round" stroke-width="2" viewBox="0 0 24 24" xmlns="http://www.w3.org/2000/svg">
  <path d="M5 14v3.5h4"></path>
  <path d="M9 14h12v7H9v-7Z"></path>
  <path d="M3 6.75v-.5"></path>
  <path d="M3 10v-.5"></path>
  <path d="M3 3.5V3"></path>
  <path d="M16 6.75v-.5"></path>
  <path d="M16 10v-.5"></path>
  <path d="M16 3.5V3"></path>
  <path d="M16 10h-.5"></path>
  <path d="M3.5 10H3"></path>
  <path d="M3.5 3H3"></path>
  <path d="M6.5 3H6"></path>
  <path d="M9.75 3h-.5"></path>
  <path d="M9.75 10h-.5"></path>
  <path d="M13 3h-.5"></path>
  <path d="M6.5 10H6"></path>
  <path d="M13 10h-.5"></path>
  <path d="M16 3h-.5"></path>
</svg>