<svg width="80" height="80" fill="none" stroke="#5e5e5e" stroke-linecap="round" stroke-linejoin="round" stroke-width="2" viewBox="0 0 24 24" xmlns="http://www.w3.org/2000/svg">
  <path d="M12 15v-3"></path>
  <path d="M3 15h18v6H3v-6Z"></path>
  <path d="M3 6.25v-.5"></path>
  <path d="M3 9v-.5"></path>
  <path d="M3 3.5V3"></path>
  <path d="M21 6.25v-.5"></path>
  <path d="M21 9v-.5"></path>
  <path d="M21 3.5V3"></path>
  <path d="M21 9h-.5"></path>
  <path d="M3.5 9H3"></path>
  <path d="M3.5 3H3"></path>
  <path d="M7 3h-.5"></path>
  <path d="M10.5 3H10"></path>
  <path d="M10.5 9H10"></path>
  <path d="M14 3h-.5"></path>
  <path d="M7 9h-.5"></path>
  <path d="M14 9h-.5"></path>
  <path d="M17.5 3H17"></path>
  <path d="M17.5 9H17"></path>
  <path d="M21 3h-.5"></path>
</svg>