<svg width="80" height="80" fill="none" stroke="#5e5e5e" stroke-linecap="round" stroke-linejoin="round" stroke-width="2" viewBox="0 0 24 24" xmlns="http://www.w3.org/2000/svg">
  <path d="M12 16V8"></path>
  <path d="M21 13.5v-3"></path>
  <path d="M3 13.5v-3"></path>
  <path d="M7 3H4a1 1 0 0 0-1 1v3"></path>
  <path d="M17 3h3a1 1 0 0 1 1 1v3"></path>
  <path d="M17 21h3a1 1 0 0 0 1-1v-3"></path>
  <path d="M7 21H4a1 1 0 0 1-1-1v-3"></path>
  <path d="M13.5 3h-3"></path>
  <path d="M16 12H8"></path>
  <path d="M13.5 21h-3"></path>
</svg>