<svg width="80" height="80" fill="none" stroke="#5e5e5e" stroke-linecap="round" stroke-linejoin="round" stroke-width="2" viewBox="0 0 24 24" xmlns="http://www.w3.org/2000/svg">
  <path d="M5 9a7 7 0 1 1 14 0v6a7 7 0 1 1-14 0V9Z"></path>
  <path d="M5 8.5h14"></path>
  <path d="M11 5.5h2"></path>
  <path d="M5 13s2.7-.3 3.5.5c.8.8.5 1.685.5 1.685 1.5 0 3 .079 3 1.815 0 1.25-2 2-3.25 1.185C8.75 19.25 8.5 20 7 20"></path>
  <path d="M19 11.5s-1.75-1-2.5-.5-.5 1.5-.5 1.5c-.75-.5-2 0-2 1.25s1.25 1.75 2.5 1.25c.5 1.5 1.75 1.5 2.5 1"></path>
  <path d="M12.5 22a6.5 6.5 0 0 0 6.5-6.5V9a7 7 0 0 0-7-7"></path>
  <path d="M11.5 22A6.5 6.5 0 0 1 5 15.5V9a7 7 0 0 1 7-7"></path>
</svg>