<svg width="80" height="80" fill="none" stroke="#5e5e5e" stroke-linecap="round" stroke-linejoin="round" stroke-width="2" viewBox="0 0 24 24" xmlns="http://www.w3.org/2000/svg">
  <path d="M12 20.998c6.667.051 10-.495 10-1.638 0-1.714-7.793-10.359-10-10.359S2 17.825 2 19.361c0 1.023 3.333 1.569 10 1.637Z" clip-rule="evenodd"></path>
  <path d="m10.53 14.831-1.81 2.17"></path>
  <path fill="#5e5e5e" stroke="none" d="M12.25 5.5a1.25 1.25 0 1 0 0-2.5 1.25 1.25 0 0 0 0 2.5Z"></path>
  <path fill="#5e5e5e" stroke="none" d="M17 8a1 1 0 1 0 0-2 1 1 0 0 0 0 2Z"></path>
  <path fill="#5e5e5e" stroke="none" d="M6 10.5a1 1 0 1 0 0-2 1 1 0 0 0 0 2Z"></path>
  <path fill="#5e5e5e" stroke="none" d="M8.75 7.5a.75.75 0 1 0 0-1.5.75.75 0 0 0 0 1.5Z"></path>
</svg>