<svg width="80" height="80" fill="none" stroke="#5e5e5e" stroke-linecap="round" stroke-width="2" viewBox="0 0 24 24" xmlns="http://www.w3.org/2000/svg">
  <path d="M12 20.51c1.216 0 1.716.655 2.367.8.652.147 1.199.187 1.759-.06 1.109-.489 1.785-1.07 2.606-1.94C20.252 17.697 21 15.482 21 12.514c0-2.968-.8-4.502-2.033-5.505-1.233-1.003-1.948-1.195-3.44-1.003-1.49.192-2.302 1.794-3.523 1.794-1.22 0-2.707-1.58-4.001-1.794C6.709 5.793 6 6.007 4.88 7.01S3 9.576 3 12.515c0 2.938.776 5.118 2.296 6.73.82.869 1.469 1.516 2.578 2.005.56.247 1.14.207 1.768.06.63-.145 1.13-.8 2.358-.8Z" clip-rule="evenodd"></path>
  <path d="M12.004 7.801C12.397 3.934 14.064 2 17.005 2c.27.814.34 1.602.21 2.363-.062.362-.255.878-.577 1.548"></path>
  <path d="M7.115 13a5.258 5.258 0 0 0 0 2.078c.138.713.432 1.263.883 1.65"></path>
</svg>