<svg width="80" height="80" fill="#5e5e5e" viewBox="0 0 24 24" xmlns="http://www.w3.org/2000/svg">
  <path d="M5 7a2 2 0 1 0 0-4 2 2 0 0 0 0 4Z"></path>
  <path d="M12 7a2 2 0 1 0 0-4 2 2 0 0 0 0 4Z"></path>
  <path d="M19 7a2 2 0 1 0 0-4 2 2 0 0 0 0 4Z"></path>
  <path d="M5 14a2 2 0 1 0 0-4 2 2 0 0 0 0 4Z"></path>
  <path d="M12 14a2 2 0 1 0 0-4 2 2 0 0 0 0 4Z"></path>
  <path d="M19 14a2 2 0 1 0 0-4 2 2 0 0 0 0 4Z"></path>
  <path d="M5 21a2 2 0 1 0 0-4 2 2 0 0 0 0 4Z"></path>
  <path d="M12 21a2 2 0 1 0 0-4 2 2 0 0 0 0 4Z"></path>
  <path d="M19 21a2 2 0 1 0 0-4 2 2 0 0 0 0 4Z"></path>
</svg>