<svg width="80" height="80" fill="none" stroke="#5e5e5e" stroke-linecap="round" stroke-linejoin="round" stroke-width="2" viewBox="0 0 24 24" xmlns="http://www.w3.org/2000/svg">
  <path d="m20.425 21.96-.787-.158c-1.175-.234-1.71-1.803-1.337-2.941.978-2.98.261-6.806-.135-8.457a1.402 1.402 0 0 0-1.04-1.024l-1.13-.283a1.5 1.5 0 0 1-1.092-1.092l-.283-1.131a1.403 1.403 0 0 0-1.025-1.04C11.945 5.438 8.12 4.722 5.14 5.7 4 6.072 2.433 5.537 2.198 4.362l-.157-.787"></path>
  <path d="m3 5.5 16 16"></path>
  <path d="M6 18 21.5 2.5"></path>
</svg>