<svg width="80" height="80" fill="none" stroke="#5e5e5e" stroke-linecap="round" stroke-linejoin="round" stroke-width="2" viewBox="0 0 24 24" xmlns="http://www.w3.org/2000/svg">
  <path d="M20.5 2h-17A1.5 1.5 0 0 0 2 3.5v17A1.5 1.5 0 0 0 3.5 22h17a1.5 1.5 0 0 0 1.5-1.5v-17A1.5 1.5 0 0 0 20.5 2Z"></path>
  <path d="M5 7h4"></path>
  <path d="M5 7h4"></path>
  <path d="m5.5 18.5 3-3"></path>
  <path d="M7 9V5"></path>
  <path d="m8.5 18.5-3-3"></path>
  <path d="M15 7h4"></path>
  <path d="M15 15.5h4"></path>
  <path d="M15 18.5h4"></path>
  <path d="M12 2v20"></path>
  <path d="M2 12h20"></path>
  <path d="M15 2H9"></path>
  <path d="M15 22H9"></path>
  <path d="M2 14v-4"></path>
  <path d="M22 14v-4"></path>
</svg>