<svg width="80" height="80" fill="none" stroke="#5e5e5e" stroke-linecap="round" stroke-linejoin="round" stroke-width="2" viewBox="0 0 24 24" xmlns="http://www.w3.org/2000/svg">
  <path d="M12 16.5a4.5 4.5 0 1 0 0-9 4.5 4.5 0 0 0 0 9Z"></path>
  <path fill="#5e5e5e" stroke="none" d="M12 13.5a1.5 1.5 0 1 1 0-3 1.5 1.5 0 0 1 0 3Z"></path>
  <path d="M4.5 7s3.75-5.75 10.25-3.5S21 12.25 21 12.25"></path>
  <path d="M19.5 17s-3 5.5-9.75 3.75S3 12 3 12"></path>
  <path d="M21 4v8"></path>
  <path d="M3 12v8"></path>
</svg>