<svg width="80" height="80" fill="none" stroke="#5e5e5e" stroke-linejoin="round" stroke-width="2" viewBox="0 0 24 24" xmlns="http://www.w3.org/2000/svg">
  <path d="M2.502 21.116a.39.39 0 0 0 .396.384H21.1a.39.39 0 0 0 .396-.384v-.46c.009-.138.027-.828-.428-1.592a3.745 3.745 0 0 0-1.238-1.235c-.646-.41-1.469-.707-2.464-.886-.007 0-.745-.099-1.5-.292-1.317-.336-1.432-.633-1.432-.636a.378.378 0 0 0-.034-.084c-.01-.056-.037-.265.014-.824.129-1.421.891-2.261 1.504-2.936.193-.213.376-.414.516-.611a3.856 3.856 0 0 0 .665-1.878 1 1 0 0 0-.044-.314c-.06-.185-.171-.3-.253-.385a1.434 1.434 0 0 1-.056-.06c-.006-.007-.023-.026-.008-.121.054-.353.086-.648.102-.93.027-.5.049-1.25-.08-1.978a3 3 0 0 0-.086-.413 3.244 3.244 0 0 0-.66-1.285c-.053-.057-1.327-1.4-5.026-1.675a12.04 12.04 0 0 0-1.514.008c-.12.006-.284.014-.438.054-.382.099-.484.34-.51.476-.045.225.033.4.085.515.007.016.016.037 0 .091-.086.133-.22.253-.358.366-.04.034-.968.834-1.019 1.878-.137.795-.127 2.033.036 2.888.01.047.023.117 0 .165-.174.156-.372.334-.372.74.002.04.058 1.007.665 1.857.14.198.322.398.515.611.613.675 1.376 1.515 1.505 2.937.05.56.024.768.013.824a.378.378 0 0 0-.033.084c0 .003-.115.3-1.425.635-.756.193-1.5.292-1.522.295-.967.164-1.785.453-2.43.86-.533.337-.95.754-1.24 1.239-.464.775-.452 1.48-.445 1.61v.462Z"></path>
</svg>