<svg width="80" height="80" fill="none" stroke="#5e5e5e" stroke-linecap="round" stroke-linejoin="round" stroke-width="2" viewBox="0 0 24 24" xmlns="http://www.w3.org/2000/svg">
  <path d="M12 7.5a2.5 2.5 0 1 0 0-5 2.5 2.5 0 0 0 0 5Z"></path>
  <path d="M12 10.5C7 10.5 5.5 3 5.5 3L3 4l1.5 8.25c.583.333 2.75 1.5 4 3.25s1 3.5 3.75 3.5 3-2.25 3.75-3.5 2.833-3 3.5-3.25L21 4l-2.5-1S17 10.5 12 10.5Z"></path>
  <path d="M17 14.5s3.5 2 3.5 6.5H18c0-3-2.5-4.5-2.5-4.5"></path>
  <path d="M7.5 14.5S4 16.5 4 21h2.5c0-3 2.5-4.5 2.5-4.5"></path>
</svg>