<svg width="80" height="80" fill="none" stroke="#5e5e5e" stroke-linecap="round" stroke-linejoin="round" stroke-width="2" viewBox="0 0 24 24" xmlns="http://www.w3.org/2000/svg">
  <path d="M17 2H7c-1 .5-2.5 2.5-2.5 7.5C4.5 15.75 7 22 8.5 22c1 0 1-1.25 1-1.25V12c0-2.5 4-2.25 4 0v5.5c0 4 3.5 5.5 4.5 4.5s-1-2-1-3.5c0-2.5 2-4.5 2-11C19 5 17.833 3 17 2Z"></path>
  <path d="M5 6h13.5"></path>
  <path d="M5.402 4c-.367.848-.67 1.99-.813 3.5"></path>
  <path d="M19 7.5a8.454 8.454 0 0 0-.562-3"></path>
</svg>