<svg width="80" height="80" fill="none" stroke="#5e5e5e" stroke-linecap="round" stroke-width="2" viewBox="0 0 24 24" xmlns="http://www.w3.org/2000/svg">
  <path d="M12 21.8c4.216 0 7.78-3.34 8.947-7.175.262-.862 2.053-.862 2.053-2.725s-1.808-1.97-2.1-2.876C19.685 5.267 16.16 2 12 2 7.837 2 4.31 5.27 3.099 9.03 2.807 9.935 1 10.005 1 11.9s1.796 1.895 2.067 2.771C4.248 18.482 7.801 21.8 12 21.8Z" clip-rule="evenodd"></path>
  <path d="M20.9 9.024C19.685 5.267 16.16 2 12 2"></path>
  <path fill="#5e5e5e" d="M9.55 10.8c0 .413-.112.775-.28 1.027-.169.254-.375.372-.57.372-.194 0-.4-.118-.57-.371-.167-.253-.28-.615-.28-1.029 0-.413.113-.775.28-1.028.17-.254.376-.372.57-.372.195 0 .401.118.57.372.168.252.28.615.28 1.028Z"></path>
  <path fill="#5e5e5e" d="M16.15 10.8c0 .413-.112.775-.28 1.027-.17.254-.376.372-.57.372-.194 0-.4-.118-.57-.371-.168-.253-.28-.615-.28-1.029 0-.413.112-.775.28-1.028.17-.254.376-.372.57-.372.194 0 .4.118.57.372.168.252.28.615.28 1.028Z"></path>
  <path d="M9.249 15.875c.965.65 1.884.975 2.756.975.87 0 1.734-.324 2.59-.973"></path>
  <path d="M15.864 3.1c.134.966-.16 1.673-.884 2.119-.724.446-1.9.655-3.528.627"></path>
</svg>