<svg width="80" height="80" fill="none" stroke="#5e5e5e" stroke-linecap="round" stroke-linejoin="round" stroke-width="2" viewBox="0 0 24 24" xmlns="http://www.w3.org/2000/svg">
  <path d="M21.5 13v3a1 1 0 0 1-1 1h-17a1 1 0 0 1-1-1V6a1 1 0 0 1 1-1H8"></path>
  <path d="M2 20h20"></path>
  <path d="M15 13a4.5 4.5 0 1 0 0-9 4.5 4.5 0 0 0 0 9Z"></path>
  <path d="M9.5 9V8"></path>
  <path d="M20.5 9V8"></path>
  <path d="M15 4c-.083-.5-.6-1.6-2-2"></path>
  <path d="M15 4c.042-.5.3-1.6 1-2"></path>
  <path fill="#5e5e5e" stroke="none" d="M16.5 9a1 1 0 1 0 0-2 1 1 0 0 0 0 2Z"></path>
  <path fill="#5e5e5e" stroke="none" d="M13.5 9a1 1 0 1 0 0-2 1 1 0 0 0 0 2Z"></path>
</svg>