<svg width="80" height="80" fill="none" stroke="#5e5e5e" stroke-width="2" viewBox="0 0 24 24" xmlns="http://www.w3.org/2000/svg">
  <path d="M7.5 10.306c-.712 3.075 3.246 3.858 2.312 6.024-.935 2.166-3.028 1.733-2.794 3.9.234 2.165 3.003 2.196 5.524.89 5.042-2.61 6.093-8.312 3.812-10.814-2.804-3.075-8.142-3.075-8.854 0Z"></path>
  <path fill="#5e5e5e" stroke="none" d="M16.304 7.917c.423.355 1.197.128 1.73-.507.532-.634.621-1.437.198-1.792s-1.198-.128-1.73.507c-.533.634-.621 1.437-.198 1.792Z"></path>
  <path fill="#5e5e5e" stroke="none" d="M14.057 6.661c.5.233 1.19-.186 1.54-.937.35-.75.228-1.548-.272-1.782-.5-.233-1.19.186-1.54.937-.35.75-.229 1.549.272 1.782Z"></path>
  <path fill="#5e5e5e" stroke="none" d="M11.534 6.293c.55.058 1.065-.563 1.151-1.387.087-.824-.288-1.539-.838-1.596-.549-.058-1.064.563-1.15 1.387-.087.824.288 1.538.837 1.596Z"></path>
  <path d="M7.684 5.88c.778-.284 1.103-1.355.725-2.393-.377-1.038-1.315-1.65-2.093-1.366-.779.283-1.103 1.354-.726 2.392.378 1.038 1.316 1.65 2.094 1.367Z"></path>
  <path fill="#5e5e5e" stroke="none" d="M18.119 9.732c.355.423 1.157.334 1.792-.199.634-.532.86-1.307.506-1.73-.355-.423-1.157-.334-1.792.198-.635.533-.861 1.307-.506 1.73Z"></path>
</svg>