<svg width="80" height="80" fill="none" stroke="#5e5e5e" stroke-linecap="round" stroke-linejoin="round" stroke-width="2" viewBox="0 0 24 24" xmlns="http://www.w3.org/2000/svg">
  <path d="m17.956 3.228 2.685 9.5A1 1 0 0 1 19.678 14h-5.74a.547.547 0 0 0-.534.67l.25 1.082c.23.993.303 2.015.218 3.03l-.046.552A2.51 2.51 0 0 1 13.1 20.9c-.384.384-.905.6-1.448.6h-.12a.904.904 0 0 1-.79-.465l-1.33-2.393A6.48 6.48 0 0 0 6.85 16.1l-3.329-1.816A1 1 0 0 1 3 13.406V3.5a1 1 0 0 1 1-1h12.994a1 1 0 0 1 .962.728Z"></path>
</svg>