<svg width="80" height="80" fill="none" stroke="#5e5e5e" stroke-linecap="round" stroke-linejoin="round" stroke-width="2" viewBox="0 0 24 24" xmlns="http://www.w3.org/2000/svg">
  <path d="M4.974 14.403C6.934 18.841 10.966 20.596 14 22c1.316.61 1.664-1.858 1.139-3.345-.442-1.251-1.326-2.653-1.326-2.653h3.553a1.75 1.75 0 1 0 0-3.5h.884a1.75 1.75 0 0 0 0-3.5h-1.768a1.75 1.75 0 1 0 0-3.501h-1.326A1.75 1.75 0 0 0 15.157 2H9.835C8.29 2 6.3 2.902 4.974 5.402c-1.271 2.397-1.326 6.001 0 9.002Z"></path>
</svg>