<svg width="80" height="80" fill="none" stroke="#5e5e5e" stroke-linecap="round" stroke-linejoin="round" stroke-width="2" viewBox="0 0 24 24" xmlns="http://www.w3.org/2000/svg">
  <path d="M9.75 22A2.247 2.247 0 0 0 12 19.75V9.5h-2L7.5 19.75A2.247 2.247 0 0 0 9.75 22Z"></path>
  <path d="M10 9.5H8l-4.66 9.45c-.555 1.305.24 2.87 1.65 3.035A2.247 2.247 0 0 0 7.5 19.75"></path>
  <path d="M14.25 22A2.247 2.247 0 0 1 12 19.75V9.5h2l2.5 10.25A2.247 2.247 0 0 1 14.25 22Z"></path>
  <path d="M14 9.5h2l4.66 9.45c.555 1.305-.24 2.87-1.65 3.035a2.247 2.247 0 0 1-2.51-2.235"></path>
  <path d="M8.03 6.5A3.999 3.999 0 0 1 12 2a3.999 3.999 0 0 1 3.97 4.5H8.03Z"></path>
</svg>