<svg width="80" height="80" fill="none" stroke="#5e5e5e" stroke-linecap="round" stroke-linejoin="round" stroke-width="2" viewBox="0 0 24 24" xmlns="http://www.w3.org/2000/svg">
  <path d="M18 13V7a1 1 0 0 0-1-1H5a1 1 0 0 0-1 1v12a1 1 0 0 0 1 1h8.5"></path>
  <path d="M8 6v14"></path>
  <path d="M14 6v8.5"></path>
  <path d="M14 6V3a1 1 0 0 0-1-1H9a1 1 0 0 0-1 1v3"></path>
  <path d="M17.5 22a4.5 4.5 0 1 0 0-9 4.5 4.5 0 0 0 0 9Z"></path>
  <path d="M17 16v2h2"></path>
  <path d="M6.5 20v2"></path>
</svg>