<svg width="80" height="80" fill="none" stroke="#5e5e5e" stroke-linecap="round" stroke-linejoin="round" stroke-width="2" viewBox="0 0 24 24" xmlns="http://www.w3.org/2000/svg">
  <path d="M7 6.5v-2a1 1 0 0 1 1-1h13a1 1 0 0 1 1 1v9a1 1 0 0 1-1 1h-1"></path>
  <path d="M16 9.5H3a1 1 0 0 0-1 1v9a1 1 0 0 0 1 1h13a1 1 0 0 0 1-1v-9a1 1 0 0 0-1-1Z"></path>
  <path d="M2 14h15"></path>
  <path d="M17 11.5v6"></path>
  <path d="M2 11.5v6"></path>
  <path d="M5.5 17h4"></path>
  <path d="M12.5 17h1"></path>
</svg>