<svg width="80" height="80" fill="none" stroke="#5e5e5e" stroke-linecap="round" stroke-linejoin="round" stroke-width="2" viewBox="0 0 24 24" xmlns="http://www.w3.org/2000/svg">
  <path d="M10 4a2 2 0 1 0-4 0 2 2 0 0 0 4 0Z"></path>
  <path d="M10 13a2 2 0 1 0-4 0 2 2 0 0 0 4 0Z"></path>
  <path d="M8 15.5V22"></path>
  <path d="M18 4a2 2 0 1 0-4 0 2 2 0 0 0 4 0Z"></path>
  <path d="M18 13a2 2 0 1 0-4 0 2 2 0 0 0 4 0Z"></path>
  <path d="M16 15.5V22"></path>
  <path d="M6.5 8.5h3"></path>
  <path d="M14.5 8.5h3"></path>
  <path d="M6.5 18h3"></path>
  <path d="M14.5 18h3"></path>
  <path d="M8 7v3"></path>
  <path d="M16 7v3"></path>
</svg>