<svg width="80" height="80" fill="none" stroke="#5e5e5e" stroke-linecap="round" stroke-linejoin="round" stroke-width="2" viewBox="0 0 24 24" xmlns="http://www.w3.org/2000/svg">
  <path d="M21 2.5H3a1 1 0 0 0-1 1v12a1 1 0 0 0 1 1h18a1 1 0 0 0 1-1v-12a1 1 0 0 0-1-1Z"></path>
  <path d="M15.5 11V7.5h-7V11"></path>
  <path d="M9 19.5h6"></path>
  <path d="M8.5 16.5h7"></path>
  <path d="m16 13.5-1 6 .5 2"></path>
  <path d="m8 13.5 1 6-.5 2"></path>
  <path d="M12 13.5v8"></path>
  <path d="M17 13.5H7"></path>
</svg>