<svg width="80" height="80" fill="none" stroke="#5e5e5e" stroke-linecap="round" stroke-linejoin="round" stroke-width="2" viewBox="0 0 24 24" xmlns="http://www.w3.org/2000/svg">
  <path d="M7.17 10.706 12 12l4.83 1.294 4.83 1.294A10.005 10.005 0 0 0 17.273 3.5a10.002 10.002 0 0 0-2.685-1.16 9.985 9.985 0 0 0-3.338-.315c-4.119.31-7.78 3.17-8.91 7.386l4.83 1.295Z"></path>
  <path d="M14.588 2.34s-2.82 1.833-4.433 3.99c-1.613 2.155-2.019 4.635-2.019 4.635"></path>
  <path d="M14.588 2.34s1.527 2.998 1.845 5.672c.32 2.673-.57 5.023-.57 5.023"></path>
  <path d="m2.34 9.412 4.83 1.294L12 12l4.83 1.294 4.83 1.294"></path>
  <path d="M2 22h20"></path>
  <path d="M12 12 9.25 22"></path>
  <path d="M11.25 2.025a9.985 9.985 0 0 1 3.338.315c.972.26 1.872.656 2.685 1.16"></path>
</svg>