<svg width="80" height="80" fill="none" stroke="#5e5e5e" stroke-linecap="round" stroke-linejoin="round" stroke-width="2" viewBox="0 0 24 24" xmlns="http://www.w3.org/2000/svg">
  <path d="M20 20v-8H4v8m16 0H4h16Zm0 0H2h18Zm0 0h2-2Z"></path>
  <path d="m20 17-2-1-2 1-2-1-2 1-2-1-2 1-2-1-2 1"></path>
  <path d="M16 12V7.5"></path>
  <path d="M12 12V7.5"></path>
  <path d="M8 12V7.5"></path>
  <path d="M16 5V4"></path>
  <path d="M12 5V4"></path>
  <path d="M8 5V4"></path>
  <path d="M4 12v8"></path>
  <path d="M20 12v8"></path>
</svg>