<svg width="80" height="80" fill="none" stroke="#5e5e5e" stroke-linecap="round" stroke-linejoin="round" stroke-width="2" viewBox="0 0 24 24" xmlns="http://www.w3.org/2000/svg">
  <path d="M4 7v1.5H3a1 1 0 0 0-1 1v5a1 1 0 0 0 1 1h1V17a1 1 0 0 0 1 1h13.5a1 1 0 0 0 1-1v-1.5H21a1 1 0 0 0 1-1v-5a1 1 0 0 0-1-1h-1.5V7a1 1 0 0 0-1-1H5a1 1 0 0 0-1 1Z"></path>
  <path d="M6 12h12"></path>
  <path fill="#5e5e5e" stroke="none" d="M12 14a2 2 0 1 0 0-4 2 2 0 0 0 0 4Z"></path>
  <path d="M16 14.5v-5"></path>
  <path d="M8 14.5v-5"></path>
</svg>