<svg width="80" height="80" fill="none" stroke="#5e5e5e" stroke-linecap="round" stroke-linejoin="round" stroke-width="2" viewBox="0 0 24 24" xmlns="http://www.w3.org/2000/svg">
  <path d="M10.5 12.357v-9.39a.968.968 0 0 0-1.914-.202l-2.057 9.6a1 1 0 0 1-.094.258l-3.658 6.91A1 1 0 0 0 3.661 21h4.042a1 1 0 0 0 .975-.777l1.562-6.836.22-.75c.026-.09.04-.185.04-.28Z"></path>
  <path d="M6.5 12.5 10 14"></path>
  <path d="M13.5 12.357v-9.39a.968.968 0 0 1 1.914-.202l2.057 9.6a1 1 0 0 0 .094.258l3.658 6.91A1 1 0 0 1 20.339 21h-4.042a1 1 0 0 1-.975-.777l-1.562-6.836-.22-.75a1.002 1.002 0 0 1-.04-.28Z"></path>
  <path d="M17.5 12.5 14 14"></path>
</svg>