<svg width="80" height="80" fill="none" stroke="#5e5e5e" stroke-linecap="round" stroke-linejoin="round" stroke-width="2" viewBox="0 0 24 24" xmlns="http://www.w3.org/2000/svg">
  <path d="M5.5 17.344 12 21l4-2.25 2.5-1.406"></path>
  <path d="M20 15V7.5l-6.25-3.516"></path>
  <path d="M10.25 3.984 4 7.5V15"></path>
  <path d="M10.5 9.375 9 10.25v3.5l1.5.875 1.5.875 1.5-.875 1.5-.875v-3.5l-1.5-.875L12 8.5l-1.5.875Z"></path>
  <path d="M12 8.5V5"></path>
  <path d="m15 13.5 3.5 2"></path>
  <path d="m9 13.5-3.5 2"></path>
  <path d="M12 5a1.5 1.5 0 1 0 0-3 1.5 1.5 0 0 0 0 3Z"></path>
  <path d="M4 18a1.5 1.5 0 1 0 0-3 1.5 1.5 0 0 0 0 3Z"></path>
  <path d="M20 18a1.5 1.5 0 1 0 0-3 1.5 1.5 0 0 0 0 3Z"></path>
</svg>