<svg width="80" height="80" fill="none" stroke="#5e5e5e" stroke-linejoin="round" stroke-width="2" viewBox="0 0 24 24" xmlns="http://www.w3.org/2000/svg">
  <path d="M21.762 8.657c0-2.121-1.768-2.121-3.006-3.359-1.237-1.237-1.237-3.005-3.358-3.005-1.415 0-2.652 1.59-2.652 2.652 0 1.06.354 1.767 1.06 2.475l-6.363 6.364c-.707-.708-1.415-1.061-2.475-1.061s-2.652 1.237-2.652 2.651c-.177 2.298 1.945 2.299 3.005 3.36 1.061 1.06 1.061 3.181 3.36 3.004 1.413 0 2.65-1.59 2.65-2.651 0-1.06-.353-1.768-1.06-2.475l6.364-6.364c.707.707 1.414 1.06 2.475 1.06 1.06 0 2.652-1.237 2.652-2.651Z"></path>
</svg>