<svg width="80" height="80" fill="none" stroke="#5e5e5e" stroke-linecap="round" stroke-linejoin="round" stroke-width="2" viewBox="0 0 24 24" xmlns="http://www.w3.org/2000/svg">
  <path d="M16 7.5H8c0 1.735-2.89 3.952-4.658 5.146C2.562 13.172 2 13.5 2 13.5s.5 1.5 1.75 4c.947 1.894 2.037 2.927 2.51 3.317a.845.845 0 0 0 .543.183h10.846a.855.855 0 0 0 .608-.237c.43-.426 1.337-1.45 2.243-3.263 1.25-2.5 1.5-4 1.5-4s-.64-.32-1.5-.854C18.723 11.542 16 9.52 16 7.5Z"></path>
  <path d="M16 7.5 17 3h4"></path>
  <path d="M8 7.5 7 3H3"></path>
  <path d="M2 13.5s1 2 4 2h12c2.5 0 4-2 4-2"></path>
  <path d="M3.75 17.5C2.5 15 2 13.5 2 13.5s.562-.328 1.342-.854"></path>
  <path d="M20.5 17.5c1.25-2.5 1.5-4 1.5-4s-.64-.32-1.5-.854"></path>
</svg>