<svg width="80" height="80" fill="none" stroke="#5e5e5e" stroke-linecap="round" stroke-linejoin="round" stroke-width="2" viewBox="0 0 24 24" xmlns="http://www.w3.org/2000/svg">
  <path d="M6.5 10h2s3.5 3.64 3.5 7-3 5-3 5H6s-3-1.64-3-5c0-3.36 3.5-7 3.5-7Z"></path>
  <path d="M7.5 2c1.042 0 2.5.76 2.5 3s-1.667 5-1.667 5H6.667S5 7.24 5 5s1.458-3 2.5-3Z"></path>
  <path d="M15.5 10h2s3.5 3.64 3.5 7-3 5-3 5h-3s-3-1.64-3-5c0-3.36 3.5-7 3.5-7Z"></path>
  <path d="M16.5 2c1.042 0 2.5.76 2.5 3s-1.667 5-1.667 5h-1.666S14 7.24 14 5s1.458-3 2.5-3Z"></path>
</svg>