<svg width="80" height="80" fill="none" stroke="#5e5e5e" stroke-linecap="round" stroke-linejoin="round" stroke-width="2" viewBox="0 0 24 24" xmlns="http://www.w3.org/2000/svg">
  <path d="M16 22v-1.936a8.968 8.968 0 0 0 2.364-1.7A8.972 8.972 0 0 0 21 12H3a8.972 8.972 0 0 0 2.636 6.364 9.042 9.042 0 0 0 2.37 1.704L8 22h8Z"></path>
  <path d="M12 9.004V4"></path>
  <path d="M18 9.004V6"></path>
  <path d="M6 9.004V6"></path>
  <path d="M20 4a2 2 0 0 0-2 2"></path>
  <path d="M14 2a2 2 0 0 0-2 2"></path>
  <path d="M8 4a2 2 0 0 0-2 2"></path>
</svg>