<svg width="80" height="80" fill="none" stroke="#5e5e5e" stroke-linecap="round" stroke-linejoin="round" stroke-width="2" viewBox="0 0 24 24" xmlns="http://www.w3.org/2000/svg">
  <path d="M4.5 13s4-6 6.5-9c1.565-1.878 4.5-2.625 7-1.5S21.5 6 20.5 8s-5 9.5-5 9.5"></path>
  <path d="M15.5 16.594c0 1.576-.878 2.985-2.257 3.92-1.083.733-2.475.42-3.993.42-1.6 0-3.06.264-4.167-.543C3.805 19.458 3 18.103 3 16.594 3 13.406 5.798 11.5 9.25 11.5s6.25 2.28 6.25 5.094Z"></path>
  <path d="M11.5 16.609c0 .497-.316.942-.813 1.237-.39.232-.89.133-1.437.133-.576 0-1.102.083-1.5-.171-.46-.295-.75-.723-.75-1.2C7 15.603 8.007 15 9.25 15s2.25.72 2.25 1.609Z"></path>
  <path d="M7.5 9s1.75-.5 4 0"></path>
  <path d="M10 5.5s1.75-.75 3.5 0"></path>
</svg>