<svg width="80" height="80" fill="none" stroke="#5e5e5e" stroke-linecap="round" stroke-linejoin="round" stroke-width="2" viewBox="0 0 24 24" xmlns="http://www.w3.org/2000/svg">
  <path d="M3.5 13.5a4 4 0 0 1 4-4h9a4 4 0 0 1 4 4v4a2 2 0 0 1-2 2h-13a2 2 0 0 1-2-2v-4Z"></path>
  <path d="M17 9.5V6c2.5 0 2.5-3.5 0-3.5H7C4.5 2.5 4.5 6 7 6v3.5"></path>
  <path d="m11 5.5-1 1"></path>
  <path d="m14 5.5-1 1"></path>
  <path d="M12 16.5a2 2 0 1 0 0-4 2 2 0 0 0 0 4Z"></path>
  <path d="M7.5 19.5v2"></path>
  <path d="M16.5 19.5v2"></path>
</svg>