<svg width="80" height="80" fill="none" stroke="#5e5e5e" stroke-linecap="round" stroke-linejoin="round" stroke-width="2" viewBox="0 0 24 24" xmlns="http://www.w3.org/2000/svg">
  <path d="M2 16.042c0-.601.133-1.198.486-1.685C3.523 12.926 6.335 10 12 10c5.665 0 8.477 2.926 9.514 4.357.353.487.486 1.084.486 1.685A3.958 3.958 0 0 1 18.042 20H5.958A3.958 3.958 0 0 1 2 16.042Z"></path>
  <path d="M6 4.5v2"></path>
  <path d="M7 11v2"></path>
  <path d="M18 4.5v2"></path>
  <path d="M17 11v2"></path>
  <path d="M12 3.5v3"></path>
  <path d="M12 10v4"></path>
  <path d="M20 12.722C18.453 11.389 15.904 10 12 10s-6.453 1.39-8 2.722"></path>
</svg>