<svg width="80" height="80" fill="none" stroke="#5e5e5e" stroke-linecap="round" stroke-linejoin="round" stroke-width="2" viewBox="0 0 24 24" xmlns="http://www.w3.org/2000/svg">
  <path d="M20.5 9h-11a.5.5 0 0 0-.5.5v11a.5.5 0 0 0 .5.5h11a.5.5 0 0 0 .5-.5v-11a.5.5 0 0 0-.5-.5Z"></path>
  <path d="M4.985 3H3v2.017"></path>
  <path d="M4.999 15H3v-1.994"></path>
  <path d="M13.001 3H15v2.008"></path>
  <path d="M8.014 3h1.99"></path>
  <path d="M3 8v2"></path>
  <path d="M15 8v1.004"></path>
  <path d="M7.996 15H9"></path>
</svg>