<svg width="80" height="80" fill="none" stroke="#5e5e5e" stroke-linecap="round" stroke-linejoin="round" stroke-width="2" viewBox="0 0 24 24" xmlns="http://www.w3.org/2000/svg">
  <path d="M12 14.315a2.27 2.27 0 0 0 2.273-2.266A2.27 2.27 0 0 0 12 9.783a2.27 2.27 0 0 0-2.272 2.266A2.27 2.27 0 0 0 12 14.315Z"></path>
  <path d="M8 7.5c-2.667 2.485-2.667 6.515 0 9"></path>
  <path d="M16 16.5c2.667-2.485 2.667-6.515 0-9"></path>
  <path d="M5 5C1 8.866 1 15.134 5 19"></path>
  <path d="M19.071 19.098a9.947 9.947 0 0 0 0-14.098"></path>
</svg>