<svg width="80" height="80" fill="none" stroke="#5e5e5e" stroke-linecap="round" stroke-linejoin="round" stroke-width="2" viewBox="0 0 24 24" xmlns="http://www.w3.org/2000/svg">
  <path d="M12 21c6 0 7-5.234 7-7V7H5v7c0 1.725 1 7 7 7Z"></path>
  <path d="m2 4 3 3"></path>
  <path d="m22 4-3 3"></path>
  <path d="M2 13.5h3"></path>
  <path d="M22 13.5h-3"></path>
  <path d="m3.5 22 3-3"></path>
  <path d="m20.5 22-3-3"></path>
  <path d="M12 21V7"></path>
  <path d="M7.46 19.52C8.501 20.392 9.962 21 12 21c2.056 0 3.524-.614 4.567-1.493"></path>
  <path d="M16 6.167C16 3.865 14.21 2 12 2S8 3.865 8 6.167V7h8v-.833Z"></path>
</svg>