<svg width="80" height="80" fill="none" stroke="#5e5e5e" stroke-linecap="round" stroke-linejoin="round" stroke-width="2" viewBox="0 0 24 24" xmlns="http://www.w3.org/2000/svg">
  <path d="M3.006 17.003V4.019a1 1 0 0 1 1-1H20a1 1 0 0 1 1 1v12.984a1.5 1.5 0 0 1-1.5 1.5h-.997V19a2 2 0 0 1-2 2h0a2 2 0 0 1-2-2v-.497h-5v.498a2 2 0 0 1-3.998 0v-.498h-1a1.5 1.5 0 0 1-1.5-1.5Z"></path>
  <path d="M21 11.5H3"></path>
  <path d="M17 6.5H7v5h10v-5Z"></path>
  <path d="M7 15h1"></path>
  <path d="M16 15h1"></path>
</svg>