<svg width="80" height="80" fill="none" stroke="#5e5e5e" stroke-linecap="round" stroke-linejoin="round" stroke-width="2" viewBox="0 0 24 24" xmlns="http://www.w3.org/2000/svg">
  <path d="m17.5 13.307-9.927-9.65a1.464 1.464 0 0 0-2.13.095 1.667 1.667 0 0 0 .09 2.272l5.013 4.965"></path>
  <path d="M10.545 10.988 5.09 5.578a1.743 1.743 0 0 0-2.368-.081 1.516 1.516 0 0 0-.09 2.209l5.497 5.601"></path>
  <path d="M8.128 13.307 5 10.251a1.65 1.65 0 0 0-2.317-.04 1.616 1.616 0 0 0-.054 2.284l.008.01c4.615 4.768 7.01 7.02 7.909 7.772C12 21.495 14.867 22 16.366 21c1.497-1 2.85-2.422 3.493-3.835.383-.841 1.126-3.435 2.229-7.78a1.653 1.653 0 0 0-1.23-2.017 1.75 1.75 0 0 0-2.083 1.246L17.5 13.307"></path>
  <path d="M15.858 6.333a9.801 9.801 0 0 0-4.376-3.593"></path>
  <path d="M2.597 16.888a9.804 9.804 0 0 0 4.182 3.817"></path>
</svg>