<svg width="80" height="80" fill="none" stroke="#5e5e5e" stroke-linecap="round" stroke-linejoin="round" stroke-width="2" viewBox="0 0 24 24" xmlns="http://www.w3.org/2000/svg">
  <path d="m13.5 7-9 3.95h15L17 7.5"></path>
  <path fill="#5e5e5e" d="M15.5 8.5a2 2 0 1 0 0-4 2 2 0 0 0 0 4Z"></path>
  <path d="m16.5 4.5 1-2.5"></path>
  <path d="M4.75 13.479c-.3.15-.581.31-.839.478C2.71 14.74 2 15.706 2 16.75c0 2.623 4.477 4.75 10 4.75s10-2.127 10-4.75c0-1.07-.744-2.056-2-2.85"></path>
  <path d="M19.5 11h-15v6h15v-6Z"></path>
  <path d="M4.5 11H20"></path>
</svg>