<svg width="80" height="80" fill="none" stroke="#5e5e5e" stroke-linecap="round" stroke-linejoin="round" stroke-width="2" viewBox="0 0 24 24" xmlns="http://www.w3.org/2000/svg">
  <path d="m3 12.5 2.586 7.814a1 1 0 0 0 .949.686h10.93a1 1 0 0 0 .95-.686L21 12.5"></path>
  <path d="M5.703 12.561H3.158a.156.156 0 0 1-.156-.158C3.082 8.89 5.817 5.943 9.5 5h5c3.539 1.018 6.412 3.979 6.498 7.403a.155.155 0 0 1-.156.158h-2.546a4.78 4.78 0 0 0-3.148 1.184 4.78 4.78 0 0 1-6.296 0 4.78 4.78 0 0 0-3.149-1.184Z"></path>
  <path d="M9.55 5a2.5 2.5 0 1 1 4.9 0"></path>
</svg>