<svg width="80" height="80" fill="none" stroke="#5e5e5e" stroke-linecap="round" stroke-linejoin="round" stroke-width="2" viewBox="0 0 24 24" xmlns="http://www.w3.org/2000/svg">
  <path d="M12 6v2.5"></path>
  <path d="M4 13.5V20a1 1 0 0 0 1 1h14a1 1 0 0 0 1-1v-6.5"></path>
  <path d="M2 10.985A2.485 2.485 0 0 1 4.485 8.5h15.03A2.485 2.485 0 0 1 22 10.985v.14c0 .93-.567 1.768-1.432 2.114a1.519 1.519 0 0 1-1.272-.066l-.171-.09a1.7 1.7 0 0 0-1.583 0 1.7 1.7 0 0 1-1.584 0 1.7 1.7 0 0 0-1.583 0 1.7 1.7 0 0 1-1.583 0 1.699 1.699 0 0 0-1.584 0 1.7 1.7 0 0 1-1.583 0 1.7 1.7 0 0 0-1.583 0 1.7 1.7 0 0 1-1.584 0 1.7 1.7 0 0 0-1.583 0l-.171.09a1.519 1.519 0 0 1-1.272.066A2.278 2.278 0 0 1 2 11.124v-.14Z"></path>
  <path d="M13.5 4C13.1 2 12 2 12 2s-1.1 0-1.5 2c-.5 2.5 3.5 2.5 3 0Z"></path>
</svg>