<svg width="80" height="80" fill="none" stroke="#5e5e5e" stroke-linecap="round" stroke-linejoin="round" stroke-width="2" viewBox="0 0 24 24" xmlns="http://www.w3.org/2000/svg">
  <path d="M19.5 17V8a1 1 0 0 0-1-1h-13a1 1 0 0 0-1 1v9a1 1 0 0 0 1 1h13a1 1 0 0 0 1-1Z"></path>
  <path d="M3 18h18"></path>
  <path d="M3 21h18"></path>
  <path d="M4.5 10.5h3V13h3v-2.5h3v4h3v-4h3"></path>
  <path d="M4.5 11.5v-2"></path>
  <path d="M19.5 11.5v-2"></path>
  <path d="M16.5 7V4"></path>
  <path d="M12 7V2"></path>
  <path d="M7.5 7V4"></path>
</svg>