<svg width="80" height="80" fill="none" stroke="#5e5e5e" stroke-linecap="round" stroke-linejoin="round" stroke-width="2" viewBox="0 0 24 24" xmlns="http://www.w3.org/2000/svg">
  <path d="M20 8.95 15.529 4 4.5 8.95V15H20V8.95Z"></path>
  <path d="M4.5 9h8.693c.031 0 .057.026.057.057v1.755a1.438 1.438 0 0 0 2.875 0V9.058c0-.031.026-.057.057-.057H20"></path>
  <path d="M4.75 11.979c-.3.15-.581.31-.839.478C2.71 13.24 2 14.206 2 15.25 2 17.873 6.477 20 12 20s10-2.127 10-4.75c0-1.07-.744-2.056-2-2.85"></path>
</svg>