<svg width="80" height="80" fill="none" stroke="#5e5e5e" stroke-linecap="round" stroke-linejoin="round" stroke-width="2" viewBox="0 0 24 24" xmlns="http://www.w3.org/2000/svg">
  <path d="M21 4H3a1 1 0 0 0-1 1v16a1 1 0 0 0 1 1h18a1 1 0 0 0 1-1V5a1 1 0 0 0-1-1Z"></path>
  <path d="M2 10h20"></path>
  <path d="M2 16h20"></path>
  <path d="M8.5 2v4"></path>
  <path d="M15.5 2v4"></path>
  <path d="M8.5 10v12"></path>
  <path d="M15.5 10v12"></path>
  <path d="M22 6.5v13"></path>
  <path d="M2 6.5v13"></path>
  <path d="M7 22h10"></path>
</svg>