<svg width="80" height="80" fill="none" stroke="#5e5e5e" stroke-linecap="round" stroke-linejoin="round" stroke-width="2" viewBox="0 0 24 24" xmlns="http://www.w3.org/2000/svg">
  <path d="M22 17.5h-2L12 3.25 4 17.5H2"></path>
  <path d="M12 15.5c-1.38 0-2.5 1.79-2.5 4v1h5v-1c0-2.21-1.12-4-2.5-4Z"></path>
  <path d="M2 20.5h20"></path>
  <path d="M7.5 11.5s2.5-2 4.5-2 4.5 2 4.5 2"></path>
  <path d="m20 3-1 1.5L20 6"></path>
  <path d="m20 3 1 1.5L20 6"></path>
  <path d="m3.5 8.5-.5 1 .5 1"></path>
  <path d="m3.5 8.5.5 1-.5 1"></path>
</svg>