<svg width="80" height="80" fill="none" stroke="#5e5e5e" stroke-linecap="round" stroke-linejoin="round" stroke-width="2" viewBox="0 0 24 24" xmlns="http://www.w3.org/2000/svg">
  <path d="M2.777 11.597a9.362 9.362 0 0 1-.256-.594C2.196 10.173 2 9.303 2 8.4 2 5.418 4.442 3 7.455 3c1.897 0 3.568.959 4.545 2.414A5.464 5.464 0 0 1 16.546 3C19.558 3 22 5.418 22 8.4c0 3.882-3.636 7.2-5.454 9-1.213 1.2-2.728 2.4-4.546 3.6-1.818-1.2-3.333-2.4-4.545-3.6l-.6-.589"></path>
  <path d="M4 14.986 9.557 9.52l3.232 3.333 4.842-4.944"></path>
</svg>