<svg width="80" height="80" fill="#5e5e5e" viewBox="0 0 24 24" xmlns="http://www.w3.org/2000/svg">
  <path fill-rule="evenodd" d="M9.64 6.07c.95.17 1.853.412 2.706.725a5.085 5.085 0 0 0-3.819 1.757l-.1.117c-1.419 1.734-1.514 4.22-.285 6.056l-.03-.056c1.263 2.321 3.414 4.358 5.637 5.013 1.791.528 3.466.668 5.01.418l.013-.01a10.357 10.357 0 0 1-6.356 2.193h-.059l-.215-.003a10.374 10.374 0 0 1-7.288-3.223l-.165-.176A10.361 10.361 0 0 1 2 11.923v-.066l.003-.228a10.408 10.408 0 0 1 1.495-5.136l-.034.01c2.251-.623 4.31-.767 6.175-.433Zm5.268 10.246c.773-.367 1.705-.19 2.316.422l2.506 2.505-.17.166a5.067 5.067 0 0 1-.04.039c-1.696.456-3.574.383-5.636-.224-1.49-.439-2.767-1.515-3.909-2.839l-.024-.013a5.105 5.105 0 0 0 4.861-.007l.096-.049ZM12.378 1.5l.22.002a10.356 10.356 0 0 1 7.125 3.041l-2.499 2.499-.078.074c-.637.575-1.575.712-2.334.298l-.13-.069a5.203 5.203 0 0 0-.075-.037c-1.462-.818-3.09-1.387-4.884-1.708-1.785-.319-3.73-.219-5.835.299.288-.41.61-.804.966-1.177l.163-.167A10.355 10.355 0 0 1 12.375 1.5h.002Z" clip-rule="evenodd"></path>
  <path fill-rule="evenodd" d="M20.775 8.663 16.83 10.94l-.108.074s-.338.226-.3.704c.032.42.33.596.33.596l4.116 2.374s.322.174.723-.043c.448-.242.417-.716.417-.716V9.35a.8.8 0 0 0-.324-.628.815.815 0 0 0-.492-.168.85.85 0 0 0-.417.11Z" clip-rule="evenodd"></path>
</svg>