<svg width="80" height="80" fill="none" stroke="#5e5e5e" stroke-linecap="round" stroke-width="2" viewBox="0 0 24 24" xmlns="http://www.w3.org/2000/svg">
  <path d="M14.208 10.923c-.058 1.293.27 2.2.987 2.72 1.074.779 3.724.87 5.822-2.72 2.099-3.59.063-5.54-.71-5.866a3.122 3.122 0 0 0-1.555-.244"></path>
  <path d="M15.507 14.003c-.61.707-.678 1.556-.201 2.547.714 1.487 2.543 1.22 3.458 2.458.61.825.84 1.656.693 2.492"></path>
  <path d="M4.252 11.82c1.13 1.51 3.831 1.708 6.998.495 1.282-.49 2.64-1.212 4.002-2.172 1.027-.723 1.77-1.46 2.294-2.183 1.886-2.602.912-4.999 0-5.757-.988-.82-2.885-1.158-6.296.314-.611.264-1.27.586-1.983.973C7.87 4.252 6.717 5.112 5.831 6 3.75 8.088 3.14 10.331 4.252 11.82Z" clip-rule="evenodd"></path>
  <path d="M8.123 4.42A7.163 7.163 0 0 0 9.97 8.289c1.013 1.104 2.223 1.809 4.029 2.461"></path>
  <path d="M4.99 12.5c-2.912 2.825-3.697 4.964-2.355 6.418 2.015 2.179 3.909-.604 6.448-.604 1.693 0 2.999 1.062 3.917 3.186"></path>
  <path d="M17.546 7.96c-.523.722-1.267 1.46-2.294 2.183-1.361.96-2.72 1.681-4.002 2.172"></path>
  <path d="M11.25 2.517c-.611.263-1.27.585-1.983.973C7.87 4.25 6.717 5.112 5.831 6"></path>
</svg>