<svg width="80" height="80" fill="none" stroke="#5e5e5e" stroke-linecap="round" stroke-linejoin="round" stroke-width="2" viewBox="0 0 24 24" xmlns="http://www.w3.org/2000/svg">
  <path d="M3 3v18h18"></path>
  <path fill="#5e5e5e" fill-rule="evenodd" stroke="none" d="M10 12a2 2 0 1 0 0-4 2 2 0 0 0 0 4Z" clip-rule="evenodd"></path>
  <path fill="#5e5e5e" fill-rule="evenodd" stroke="none" d="M18.5 8a2.5 2.5 0 1 0 0-5 2.5 2.5 0 0 0 0 5Z" clip-rule="evenodd"></path>
  <path fill="#5e5e5e" fill-rule="evenodd" stroke="none" d="M7.5 18a1.5 1.5 0 1 0 0-3 1.5 1.5 0 0 0 0 3Z" clip-rule="evenodd"></path>
  <path fill="#5e5e5e" fill-rule="evenodd" stroke="none" d="M16.5 16a1.5 1.5 0 1 0 0-3 1.5 1.5 0 0 0 0 3Z" clip-rule="evenodd"></path>
</svg>