<svg width="80" height="80" fill="none" stroke="#5e5e5e" stroke-linecap="round" stroke-linejoin="round" stroke-width="2" viewBox="0 0 24 24" xmlns="http://www.w3.org/2000/svg">
  <path d="M7 21a4 4 0 1 0 0-8 4 4 0 0 0 0 8Z"></path>
  <path d="M17.5 22a3.5 3.5 0 1 0 0-7 3.5 3.5 0 0 0 0 7Z"></path>
  <path d="M18.5 5c-1.326.406-4.186 1.507-5.86 3.13C10.128 10.565 9.5 12.25 9 13.5"></path>
  <path d="M18.5 5c-.558.66-1.642 2.298-1.978 4.195C16.018 12.04 16.5 13.75 17 15"></path>
  <path d="m15 2 7 6"></path>
</svg>