<svg width="80" height="80" fill="none" stroke="#5e5e5e" stroke-linecap="round" stroke-linejoin="round" stroke-width="2" viewBox="0 0 24 24" xmlns="http://www.w3.org/2000/svg">
  <path d="M8.498 1.75v2.574c0 .875-.481 1.213-2.297 1.68-1.815.466-2.353.74-2.777 1.546C3.141 8.086 3 8.915 3 10.036v8.714"></path>
  <path d="M17.47 10.755c.12 1.438-.124 2.694-.73 3.769-.607 1.074-1.677 1.728-3.211 1.962"></path>
  <path d="M6.53 10.755c-.12 1.438.125 2.694.734 3.769.609 1.074 1.688 1.728 3.237 1.962"></path>
  <path d="M6.5 21.756c.667-.778 1-1.623 1-2.536v-4.182"></path>
  <path d="M17.5 21.756c-.667-.778-1-1.623-1-2.536v-4.182"></path>
  <path d="M15.5 1.75v2.574c0 .875.482 1.213 2.297 1.68 1.816.466 2.353.74 2.777 1.546.283.536.424 1.365.424 2.486v8.714"></path>
</svg>