<svg width="80" height="80" fill="none" stroke="#5e5e5e" stroke-linecap="round" stroke-linejoin="round" stroke-width="2" viewBox="0 0 24 24" xmlns="http://www.w3.org/2000/svg">
  <path d="M17.99 7.75a5.323 5.323 0 0 0-.856-.637l-.732-.44a6.623 6.623 0 0 0-2.207-.834l-.261-.048a13.554 13.554 0 0 1-4.026-1.428 1.396 1.396 0 1 0-1.483 1.698c.828.81 1.528 1.741 2.075 2.763"></path>
  <path d="M5.653 12.51C5.523 12.651 4 14.326 4 16c0 1.75.78 2.5 1.5 3s1.86 1 2.805 1c.945 0 5.945.5 8.195 0s2.5-1 3.5-2c.54-.54.941-1.3 1.195-1.884.245-.566.438-1.153.587-1.751.18-.718.362-1.75.218-2.614-.25-1.5-1-2.5-3.5-3.75-2.302-1.152-4.323-.607-4.629-.513a2.038 2.038 0 0 0-.08.027c-.4.141-3.633 1.298-5.005 2.235-1.402.957-2.981 2.601-3.115 2.741a1.325 1.325 0 0 0-.018.02Z"></path>
  <path d="M3.051 10.005a1.396 1.396 0 1 1 1.483-1.698A13.553 13.553 0 0 0 8.56 9.734l.261.048c.78.144 1.527.427 2.207.834l.732.44c.49.294.93.665 1.302 1.098l.202.237c.612.713.891 1.653.767 2.584l-.014.106a2.975 2.975 0 0 1-.82 1.683l-.23.237a3.336 3.336 0 0 1-2.937.962 4.17 4.17 0 0 1-2.213-1.115l-.37-.357a4.656 4.656 0 0 1-.765-.968l-1.087-1.826-.316-.635a11.384 11.384 0 0 0-2.228-3.057Z"></path>
</svg>