<svg width="80" height="80" fill="none" stroke="#5e5e5e" stroke-linecap="round" stroke-linejoin="round" stroke-width="2" viewBox="0 0 24 24" xmlns="http://www.w3.org/2000/svg">
  <path d="M16.687 16.937c2.121-2.121.707-9.192-2.475-12.374-1.414-1.414-5.48-4.42-9.9 0-4.419 4.42-1.413 8.485 0 9.9 3.183 3.181 10.254 4.595 12.375 2.474Z"></path>
  <path d="M20.5 20.5 17 17"></path>
  <path fill="#5e5e5e" stroke="none" d="M20.212 19.151a1.25 1.25 0 1 0 1.768 1.768 1.25 1.25 0 0 0-1.768-1.768Z"></path>
  <path fill="#5e5e5e" stroke="none" d="M19.152 20.213a1.25 1.25 0 1 0 1.767 1.768 1.25 1.25 0 0 0-1.767-1.768Z"></path>
  <path fill="#5e5e5e" stroke="none" d="M8.5 10a1 1 0 1 0 0-2 1 1 0 0 0 0 2Z"></path>
  <path fill="#5e5e5e" stroke="none" d="M6 11.5a1 1 0 1 0 0-2 1 1 0 0 0 0 2Z"></path>
  <path fill="#5e5e5e" stroke="none" d="M8.5 13a1 1 0 1 0 0-2 1 1 0 0 0 0 2Z"></path>
</svg>