<svg width="80" height="80" fill="none" stroke="#5e5e5e" stroke-linecap="round" stroke-linejoin="round" stroke-width="2" viewBox="0 0 24 24" xmlns="http://www.w3.org/2000/svg">
  <path d="M12 21a8.5 8.5 0 1 0 0-17 8.5 8.5 0 0 0 0 17Z"></path>
  <path d="m16.5 10.5-1 .5-1-.5"></path>
  <path d="m9.5 10.5-1 .5-1-.5"></path>
  <path d="M12 19v3"></path>
  <path d="M12 4c-.125-.5-1-2-3-2"></path>
  <path d="M12 4c.042-.5.3-1.6 1-2"></path>
  <path d="M15.988 20c0-3 0-4.5-3.988-4.5-4 0-3.988 1.5-3.988 4.5"></path>
  <path d="M2.5 11.5v2"></path>
  <path d="M21.5 11.5v2"></path>
</svg>