<svg width="80" height="80" fill="none" stroke="#5e5e5e" stroke-linecap="round" stroke-linejoin="round" stroke-width="2" viewBox="0 0 24 24" xmlns="http://www.w3.org/2000/svg">
  <path d="M19.5 3h-15A1.5 1.5 0 0 0 3 4.5v15A1.5 1.5 0 0 0 4.5 21h15a1.5 1.5 0 0 0 1.5-1.5v-15A1.5 1.5 0 0 0 19.5 3Z"></path>
  <path d="M10.5 9.97c-.2-.583-.799-1.601-1.996-1.456-1.198.146-2.096 1.747-1.996 3.784.1 2.038 1.197 3.202 2.195 3.202 1.198 0 1.797-1.397 1.797-1.397"></path>
  <path d="M13 15.5v-6"></path>
  <path d="M13 15.5v-3.25a2.25 2.25 0 1 1 4.5 0v3.25"></path>
</svg>