<svg width="80" height="80" fill="none" stroke="#5e5e5e" stroke-linecap="round" stroke-linejoin="round" stroke-width="2" viewBox="0 0 24 24" xmlns="http://www.w3.org/2000/svg">
  <path d="M16.452 6.964a5 5 0 0 1-8.904 0A7.49 7.49 0 0 0 4.596 14.2a5 5 0 0 1 5.301 6 7.503 7.503 0 0 0 2.103.3c.73 0 1.436-.105 2.103-.3a5 5 0 0 1 5.301-6 7.49 7.49 0 0 0-2.953-7.238Z"></path>
  <path d="M12 6.5a2 2 0 1 0 0-4 2 2 0 0 0 0 4Z" clip-rule="evenodd"></path>
  <path d="M4.5 21.5a2 2 0 1 0 0-4 2 2 0 0 0 0 4Z" clip-rule="evenodd"></path>
  <path d="M19.5 21.5a2 2 0 1 0 0-4 2 2 0 0 0 0 4Z" clip-rule="evenodd"></path>
</svg>