<svg width="80" height="80" fill="none" stroke="#5e5e5e" stroke-linecap="round" stroke-linejoin="round" stroke-width="2" viewBox="0 0 24 24" xmlns="http://www.w3.org/2000/svg">
  <path d="M12 6a2 2 0 1 0 0-4 2 2 0 0 0 0 4Z" clip-rule="evenodd"></path>
  <path d="M12 14a2 2 0 1 0 0-4 2 2 0 0 0 0 4Z" clip-rule="evenodd"></path>
  <path d="M17.196 9a2 2 0 1 0 3.464-2 2 2 0 0 0-3.464 2Z" clip-rule="evenodd"></path>
  <path d="M17.196 15a2 2 0 1 0 3.464 2 2 2 0 0 0-3.464-2Z" clip-rule="evenodd"></path>
  <path d="M12 18a2 2 0 1 0 0 4 2 2 0 0 0 0-4Z" clip-rule="evenodd"></path>
  <path d="M6.804 15a2 2 0 1 0-3.464 2 2 2 0 0 0 3.464-2Z" clip-rule="evenodd"></path>
  <path d="M6.804 9A2 2 0 1 0 3.34 7a2 2 0 0 0 3.464 2Z" clip-rule="evenodd"></path>
</svg>