<svg width="80" height="80" fill="none" stroke="#5e5e5e" stroke-linecap="round" stroke-linejoin="round" stroke-width="2" viewBox="0 0 24 24" xmlns="http://www.w3.org/2000/svg">
  <path d="M12 5a1.5 1.5 0 1 0 0-3 1.5 1.5 0 0 0 0 3Z" clip-rule="evenodd"></path>
  <path d="M12 22a1.5 1.5 0 1 0 0-3 1.5 1.5 0 0 0 0 3Z" clip-rule="evenodd"></path>
  <path d="M3.5 13.5a1.5 1.5 0 1 0 0-3 1.5 1.5 0 0 0 0 3Z" clip-rule="evenodd"></path>
  <path d="M20.5 13.5a1.5 1.5 0 1 0 0-3 1.5 1.5 0 0 0 0 3Z" clip-rule="evenodd"></path>
  <path d="M12.098 7.872a4.495 4.495 0 0 0 3.72-1.966 7.264 7.264 0 0 1 2.342 2.25A4.498 4.498 0 0 0 16 12c0 1.671.911 3.13 2.264 3.906a7.267 7.267 0 0 1-2.213 2.266 4.5 4.5 0 0 0-3.953-2.347c-1.7 0-3.18.942-3.945 2.334a7.264 7.264 0 0 1-2.247-2.342 4.495 4.495 0 0 0 1.966-3.719c0-1.54-.774-2.9-1.954-3.71a7.263 7.263 0 0 1 2.47-2.47 4.495 4.495 0 0 0 3.71 1.954Z"></path>
</svg>