<svg width="80" height="80" fill="none" stroke="#5e5e5e" stroke-linecap="round" stroke-linejoin="round" stroke-width="2" viewBox="0 0 24 24" xmlns="http://www.w3.org/2000/svg">
  <path d="M8.56 13.007 4.625 6.195a.803.803 0 0 0-1.447.68l2.76 7.46a1 1 0 0 1 .062.342l.028 6.337a1 1 0 0 0 1 .995h2.479a1 1 0 0 0 .977-1.213L9 14l-.44-.993Z"></path>
  <path d="m6 14.5 3-.5"></path>
  <path d="m15.282 12.864 3.845-6.66a.813.813 0 0 1 1.473.668l-2.553 7.488a.997.997 0 0 0-.052.287l-.233 6.399a1 1 0 0 1-1 .963H14.28a1 1 0 0 1-.97-1.242L15 14l.167-.833a.998.998 0 0 1 .115-.303Z"></path>
  <path d="m15 14 3 .5"></path>
  <path d="m7.5 3.5 1.75 2"></path>
  <path d="m11.5 2 .5 3"></path>
  <path d="M16.5 3 15 5"></path>
</svg>