<svg width="80" height="80" fill="none" stroke="#5e5e5e" stroke-linecap="round" stroke-linejoin="round" stroke-width="2" viewBox="0 0 24 24" xmlns="http://www.w3.org/2000/svg">
  <path d="M7.5 13V7.5a1.5 1.5 0 1 1 3 0V13"></path>
  <path d="M19.5 12.5v3.25a5.75 5.75 0 0 1-5.75 5.75h-.5a5.75 5.75 0 0 1-5.75-5.75V12.5"></path>
  <path d="M10.5 14.5V12a1.5 1.5 0 0 1 3 0v2.5"></path>
  <path d="M13.5 14.5V12a1.5 1.5 0 0 1 3 0v2.5"></path>
  <path d="M16.5 14.5V12a1.5 1.5 0 0 1 3 0v2.5"></path>
  <path d="M14 7.5a4.999 4.999 0 0 0-.98-2.973A4.993 4.993 0 0 0 9 2.5a4.99 4.99 0 0 0-4.02 2.027A4.984 4.984 0 0 0 4 7.5"></path>
</svg>