<svg width="80" height="80" fill="none" stroke="#5e5e5e" stroke-linecap="round" stroke-linejoin="round" stroke-width="2" viewBox="0 0 24 24" xmlns="http://www.w3.org/2000/svg">
  <path d="M22 9.483A14.526 14.526 0 0 0 9.75 5.674"></path>
  <path d="M19 12.9a9.854 9.854 0 0 0-4.75-2.642"></path>
  <path d="M5 12.9a9.905 9.905 0 0 1 2.18-1.65"></path>
  <path d="M8 16.157a5.63 5.63 0 0 1 2.5-1.456"></path>
  <path fill="#5e5e5e" fill-rule="evenodd" stroke="none" d="M12 20a1.25 1.25 0 1 0 0-2.5 1.25 1.25 0 0 0 0 2.5Z" clip-rule="evenodd"></path>
  <path d="M20 20 4 4"></path>
  <path d="M2 9.482a14.66 14.66 0 0 1 1.75-1.42"></path>
</svg>