<svg width="80" height="80" fill="none" stroke="#5e5e5e" stroke-linecap="round" stroke-linejoin="round" stroke-width="2" viewBox="0 0 24 24" xmlns="http://www.w3.org/2000/svg">
  <path d="M9 2H4c-.943 0-1.414 0-1.707.293C2 2.586 2 3.057 2 4v16c0 .943 0 1.414.293 1.707C2.586 22 3.057 22 4 22h2l2-2 2 2h10c.943 0 1.414 0 1.707-.293C22 21.414 22 20.943 22 20v-3.763c0-2.495 0-3.743-.74-4.591-.74-.848-1.976-1.016-4.45-1.354l-.62-.084c-2.474-.338-3.71-.506-4.45-1.354C11 8.007 11 6.76 11 4.263V4c0-.943 0-1.414-.293-1.707C10.414 2 9.943 2 9 2Z"></path>
  <path d="M22 17H2"></path>
  <path d="M2 5.75h9"></path>
  <path d="M7.5 13a1.5 1.5 0 1 0 0-3 1.5 1.5 0 0 0 0 3Z"></path>
</svg>