<svg width="80" height="80" fill="none" stroke="#5e5e5e" stroke-linecap="round" stroke-linejoin="round" stroke-width="2" viewBox="0 0 24 24" xmlns="http://www.w3.org/2000/svg">
  <path d="M22 14.5H2V21h20v-6.5Z"></path>
  <path fill="#5e5e5e" stroke="none" d="M17.75 19a1.25 1.25 0 1 0 0-2.5 1.25 1.25 0 0 0 0 2.5Z"></path>
  <path d="M2 14.5 4.52 2.498h14.99l2.49 12"></path>
  <path d="M9.503 8.013c-1.071 0-2.003.743-2.003 1.743C7.5 11 8.547 11.5 9.849 11.5h.64"></path>
  <path d="M14.504 8.013c1.048 0 1.996.486 1.996 1.743 0 1.244-1.055 1.744-2.356 1.744h-.65"></path>
  <path d="M14.503 8.013c0-1.492-.992-2.513-2.503-2.513-1.512 0-2.497.996-2.497 2.513"></path>
  <path d="M10 11.5h4"></path>
</svg>