<svg width="80" height="80" fill="none" stroke="#5e5e5e" stroke-linecap="round" stroke-linejoin="round" stroke-width="2" viewBox="0 0 24 24" xmlns="http://www.w3.org/2000/svg">
  <path d="M11 7s-1.35 2.647-2 6c-.65 3.353-.5 8-.5 8"></path>
  <path d="M16.977 11.636c.172.115.446.196.714.252.465.097.896-.223.884-.699-.023-.887-.369-2.338-2.13-3.507a6.112 6.112 0 0 0-4.353-.96c-.594.09-.83.739-.49 1.234.304.44.659.887.898.972.5.178 1.102-.291 1.54 0 .438.29.308.962.746 1.253.438.291 1.006-.09 1.445.202.438.29.307.962.745 1.253Z"></path>
  <path d="M10 8.5c.429-.143.694-.613.843-.99a.661.661 0 0 0-.275-.823c-.648-.383-2.03-.907-4.187-.281-2.132.62-2.695 2.028-2.838 2.858a.665.665 0 0 0 .588.782c.28.032.589.018.772-.138.404-.343.513-.792.964-.912.45-.121.84.429 1.29.308.451-.121.513-.791.964-.912.45-.121 1.13.358 1.88.108Z"></path>
  <path d="M13.5 3c-1.25.5-2.5 3-2.5 4l6.5-3c-.69-1.196-2.75-1.5-4-1Z"></path>
  <path d="M10 2.5c2 .71 1.69 3.304 1 4.5L5 2.96c.5-.96 3-1.17 5-.46Z"></path>
  <path d="M13 17.5c4.142 0 6.5.895 6.5 2s-3.358 2-7.5 2c-4.142 0-7.5-.895-7.5-2 0-.27.2-.527.563-.761"></path>
</svg>