<svg width="80" height="80" fill="none" stroke="#5e5e5e" stroke-linecap="round" stroke-linejoin="round" stroke-width="2" viewBox="0 0 24 24" xmlns="http://www.w3.org/2000/svg">
  <path d="m18 18.5-1.395 3.2a.5.5 0 0 1-.459.3H7.854a.5.5 0 0 1-.459-.3L6 18.5"></path>
  <path d="m6 5.5 1.395-3.2a.5.5 0 0 1 .459-.3h8.292a.5.5 0 0 1 .459.3L18 5.5"></path>
  <path d="M6 6a1 1 0 0 1 1-1h10a1 1 0 0 1 1 1v12a1 1 0 0 1-1 1H7a1 1 0 0 1-1-1V6Z"></path>
  <path d="m6.5 11.25 3.198-.505a4.467 4.467 0 0 0 2.609-1.408 4.468 4.468 0 0 1 3.584-1.453L17.75 8"></path>
  <path d="m6.25 16.25 2.777-.126a4.77 4.77 0 0 0 3.999-2.533 4.77 4.77 0 0 1 2.986-2.378l1.738-.463"></path>
  <path d="M18 6v10"></path>
  <path d="M6 8v10"></path>
</svg>