<svg width="80" height="80" fill="none" stroke="#5e5e5e" stroke-linecap="round" stroke-linejoin="round" stroke-width="2" viewBox="0 0 24 24" xmlns="http://www.w3.org/2000/svg">
  <path d="M4.46 4.357C4.247 3.695 4.738 3 5.433 3h13.134c.695 0 1.185.695.973 1.357C18.95 6.2 18 9.545 18 12s.95 5.8 1.54 7.643c.212.662-.278 1.357-.973 1.357H5.433c-.695 0-1.186-.695-.973-1.357C5.05 17.8 6 14.455 6 12s-.95-5.8-1.54-7.643Z"></path>
  <path d="M2 7.5c.75 1 1 3 1 4.5s-.25 3.5-1 4.5"></path>
  <path d="M9 7.75h6"></path>
  <path d="M9 12h6"></path>
  <path d="M9 16h2"></path>
  <path d="M22 7.5c-.75 1-1 3-1 4.5s.25 3 1 4.5"></path>
</svg>