<svg width="80" height="80" fill="none" stroke="#5e5e5e" stroke-linecap="round" stroke-width="2" viewBox="0 0 24 24" xmlns="http://www.w3.org/2000/svg">
  <path d="m19.914 10.893-8.93 8.93c-1.707 1.707-4.515 1.666-6.273-.09-1.757-1.758-1.798-4.567-.09-6.274l8.93-8.93"></path>
  <path d="m4.367 13.712 13.072-.344"></path>
  <path fill="#5e5e5e" stroke="none" d="M14.697 10.453a1 1 0 1 0-1.415-1.414 1 1 0 0 0 1.415 1.414Z"></path>
  <path fill="#5e5e5e" stroke="none" d="M11.868 11.868a1 1 0 1 0-1.414-1.414 1 1 0 0 0 1.414 1.414Z"></path>
  <path d="m11.782 2.762 9.9 9.9"></path>
</svg>