<svg width="80" height="80" fill="none" stroke="#5e5e5e" stroke-linecap="round" stroke-linejoin="round" stroke-width="2" viewBox="0 0 24 24" xmlns="http://www.w3.org/2000/svg">
  <path d="M12 22a8.5 8.5 0 1 0 0-17 8.5 8.5 0 0 0 0 17Z"></path>
  <path d="M9.5 2h5"></path>
  <path d="m10 13.5 2-3.5 2 3.5-2 3.5-2-3.5Z"></path>
  <path d="M3.5 13.5h2"></path>
  <path d="M18.5 13.5h2"></path>
  <path d="M12 5v2"></path>
  <path d="M12 20v2"></path>
  <path d="M8.75 21.356A8.473 8.473 0 0 0 12 22a8.473 8.473 0 0 0 3.25-.644"></path>
  <path d="M4.143 10.25A8.474 8.474 0 0 0 3.5 13.5c0 1.151.229 2.249.643 3.25"></path>
  <path d="M19.856 10.25a8.473 8.473 0 0 1 .644 3.25 8.473 8.473 0 0 1-.644 3.25"></path>
  <path d="M8.504 5.75A8.47 8.47 0 0 1 12 5a8.47 8.47 0 0 1 3.496.75"></path>
</svg>