<svg width="80" height="80" fill="none" stroke="#5e5e5e" stroke-linecap="round" stroke-linejoin="round" stroke-width="2" viewBox="0 0 24 24" xmlns="http://www.w3.org/2000/svg">
  <path d="M5 3a1 1 0 0 1 1-1h12a1 1 0 0 1 1 1v18a1 1 0 0 1-1 1H6a1 1 0 0 1-1-1V3Z"></path>
  <path d="M8.5 6h7"></path>
  <path fill="#5e5e5e" stroke="none" d="M8.5 11.5a1 1 0 1 0 0-2 1 1 0 0 0 0 2Z"></path>
  <path fill="#5e5e5e" stroke="none" d="M8.5 14.5a1 1 0 1 0 0-2 1 1 0 0 0 0 2Z"></path>
  <path fill="#5e5e5e" stroke="none" d="M8.5 17.5a1 1 0 1 0 0-2 1 1 0 0 0 0 2Z"></path>
  <path fill="#5e5e5e" stroke="none" d="M12 11.5a1 1 0 1 0 0-2 1 1 0 0 0 0 2Z"></path>
  <path fill="#5e5e5e" stroke="none" d="M12 14.5a1 1 0 1 0 0-2 1 1 0 0 0 0 2Z"></path>
  <path fill="#5e5e5e" stroke="none" d="M12 17.5a1 1 0 1 0 0-2 1 1 0 0 0 0 2Z"></path>
  <path fill="#5e5e5e" stroke="none" d="M15.5 11.5a1 1 0 1 0 0-2 1 1 0 0 0 0 2Z"></path>
  <path fill="#5e5e5e" stroke="none" d="M15.5 14.5a1 1 0 1 0 0-2 1 1 0 0 0 0 2Z"></path>
  <path fill="#5e5e5e" stroke="none" d="M15.5 17.5a1 1 0 1 0 0-2 1 1 0 0 0 0 2Z"></path>
</svg>