<svg width="80" height="80" fill="none" stroke="#5e5e5e" stroke-linecap="round" stroke-linejoin="round" stroke-width="2" viewBox="0 0 24 24" xmlns="http://www.w3.org/2000/svg">
  <path d="M5.429 4.929a9.969 9.969 0 0 0-2.929 7.07 9.969 9.969 0 0 0 2.929 7.072"></path>
  <path d="M19.571 19.07A9.969 9.969 0 0 0 22.5 12a9.969 9.969 0 0 0-2.929-7.071"></path>
  <path d="M17.45 16.95A6.978 6.978 0 0 0 19.5 12a6.978 6.978 0 0 0-2.05-4.95"></path>
  <path d="M7.55 7.05A6.978 6.978 0 0 0 5.5 12c0 1.934.784 3.684 2.05 4.95"></path>
  <path d="M14.09 10c1.055 0 1.91.806 1.91 1.8 0 1.294-1.273 2.4-1.91 3-.423.4-.954.8-1.59 1.2-.636-.4-1.167-.8-1.59-1.2-.637-.6-1.91-1.706-1.91-3 0-.994.855-1.8 1.91-1.8.663 0 1.248.32 1.59.805A1.94 1.94 0 0 1 14.09 10Z"></path>
</svg>