<svg width="80" height="80" fill="none" stroke="#5e5e5e" stroke-linecap="round" stroke-linejoin="round" stroke-width="2" viewBox="0 0 24 24" xmlns="http://www.w3.org/2000/svg">
  <path d="M14.183 18H12l-4.5-2.48-5.496 2.02 1.501 2.973 3.537-1.477C10.35 21.012 12.364 22 13.082 22c.72 0 3.692-1.334 8.918-4"></path>
  <path d="M14.496 13.494v-2.335c.55-.229 1.271-.563 1.686-.977a4.5 4.5 0 1 0-6.364 0c.415.415 1.132.748 1.682.977.003.167.003.946 0 2.335h2.996Z" clip-rule="evenodd"></path>
  <path d="m6 10.5.5-.5"></path>
  <path d="m20 10.5-.5-.5"></path>
  <path d="M7.5 2.5 7 2"></path>
  <path d="M18.5 2.5 19 2"></path>
  <path d="M20.5 6H20"></path>
  <path d="M6 6h-.5"></path>
</svg>