<svg width="80" height="80" fill="none" stroke="#5e5e5e" stroke-linecap="round" stroke-linejoin="round" stroke-width="2" viewBox="0 0 24 24" xmlns="http://www.w3.org/2000/svg">
  <path d="M21.5 2h-19c-.276 0-.5.244-.5.545v4.91c0 .3.224.545.5.545h19c.276 0 .5-.244.5-.545v-4.91c0-.3-.224-.545-.5-.545Z"></path>
  <path d="M21.5 16h-19c-.276 0-.5.244-.5.546v4.909c0 .3.224.545.5.545h19c.276 0 .5-.244.5-.546v-4.909c0-.3-.224-.545-.5-.545Z"></path>
  <path d="M7 8v4.004l10 .005V16"></path>
  <path d="M9 19h6"></path>
  <path d="M9 5h6"></path>
</svg>