<svg width="80" height="80" fill="none" stroke="#5e5e5e" stroke-linecap="round" stroke-linejoin="round" stroke-width="2" viewBox="0 0 24 24" xmlns="http://www.w3.org/2000/svg">
  <path d="M2.5 12h19"></path>
  <path d="M14 2h-4a1 1 0 0 0-1 1v4a1 1 0 0 0 1 1h4a1 1 0 0 0 1-1V3a1 1 0 0 0-1-1Z"></path>
  <path d="M8 16H4a1 1 0 0 0-1 1v4a1 1 0 0 0 1 1h4a1 1 0 0 0 1-1v-4a1 1 0 0 0-1-1Z"></path>
  <path d="M20 16h-4a1 1 0 0 0-1 1v4a1 1 0 0 0 1 1h4a1 1 0 0 0 1-1v-4a1 1 0 0 0-1-1Z"></path>
  <path d="M12 12V8"></path>
  <path d="M18 16v-4"></path>
  <path d="M6 16v-4"></path>
</svg>