<svg width="80" height="80" fill="none" stroke="#5e5e5e" stroke-linecap="round" stroke-linejoin="round" stroke-width="2" viewBox="0 0 24 24" xmlns="http://www.w3.org/2000/svg">
  <path d="M4 6a2 2 0 1 0 0-4 2 2 0 0 0 0 4Z" clip-rule="evenodd"></path>
  <path d="M5 21a3 3 0 1 0 0-6 3 3 0 0 0 0 6Z" clip-rule="evenodd"></path>
  <path d="M19 22a3 3 0 1 0 0-6 3 3 0 0 0 0 6Z" clip-rule="evenodd"></path>
  <path d="M11 14a4 4 0 1 0 0-8 4 4 0 0 0 0 8Z" clip-rule="evenodd"></path>
  <path d="M17 6a2 2 0 1 0 0-4 2 2 0 0 0 0 4Z" clip-rule="evenodd"></path>
  <path d="m5.5 5.5 2 2"></path>
  <path d="m15 6-1 1"></path>
  <path d="M17 16.75 14 13"></path>
  <path d="m7 15.5 2-2"></path>
</svg>