<svg width="80" height="80" fill="none" stroke="#5e5e5e" stroke-linecap="round" stroke-linejoin="round" stroke-width="2" viewBox="0 0 24 24" xmlns="http://www.w3.org/2000/svg">
  <path d="M6 4.964V3.5A1.5 1.5 0 0 1 7.5 2h13A1.5 1.5 0 0 1 22 3.5v13a1.5 1.5 0 0 1-1.5 1.5h-1.491"></path>
  <path d="M17.5 5h-14A1.5 1.5 0 0 0 2 6.5v14A1.5 1.5 0 0 0 3.5 22h14a1.5 1.5 0 0 0 1.5-1.5v-14A1.5 1.5 0 0 0 17.5 5Z"></path>
  <path d="M9.22 11.555 11.866 8.8c.726-.726 1.919-.71 2.664.035.746.746.762 1.939.036 2.665l-.955 1.011"></path>
  <path d="M6.733 14.373c-.255.255-.783.765-.783.765-.725.726-.745 2.02 0 2.765.746.745 1.939.761 2.665.035l2.582-2.344"></path>
  <path d="M9.332 14.164a1.932 1.932 0 0 1-.566-1.237 1.833 1.833 0 0 1 .53-1.427"></path>
  <path d="M11.161 12.93c.746.745.762 1.938.036 2.664"></path>
</svg>