<svg width="80" height="80" fill="none" stroke="#5e5e5e" stroke-linecap="round" stroke-linejoin="round" stroke-width="2" viewBox="0 0 24 24" xmlns="http://www.w3.org/2000/svg">
  <path d="m8.05 12.914 11.314-9.9s1.06-1.06 2.121 0c1.061 1.061 0 2.122 0 2.122l-9.9 11.313-3.535-3.535Z"></path>
  <path d="m11.232 10.44 2.829 2.828"></path>
  <path d="m2.747 15.389 5.303-2.475 3.536 3.536-2.475 5.303s-2.475.354-4.596-1.768c-2.121-2.121-1.768-4.596-1.768-4.596Z"></path>
  <path d="m3.454 18.217 2.475-1.06"></path>
  <path d="m6.283 21.046.707-1.414"></path>
  <path d="m9.465 11.676 1.414-1.237L12.293 9.2"></path>
  <path d="m15.298 12.207-1.237 1.414-1.238 1.415"></path>
</svg>