<svg width="80" height="80" fill="none" stroke="#5e5e5e" stroke-linecap="round" stroke-linejoin="round" stroke-width="2" viewBox="0 0 24 24" xmlns="http://www.w3.org/2000/svg">
  <path d="M12 22a9 9 0 1 0 0-18 9 9 0 0 0 0 18Z"></path>
  <path d="M12 4c-.125-.5-1-2-3-2"></path>
  <path d="M12 4c.042-.5.3-1.6 1-2"></path>
  <path d="M15.5 17.5s-1-2-3.5-2-3.5 2-3.5 2"></path>
  <path d="m17 10-3-.5"></path>
  <path d="M10 9.5 7 10"></path>
  <path d="M7.5 10v2.5"></path>
  <path d="M16.5 10v2.5"></path>
  <path d="M2 12v2"></path>
  <path d="M22 12v2"></path>
</svg>