<svg width="80" height="80" fill="none" stroke="#5e5e5e" stroke-linecap="round" stroke-linejoin="round" stroke-width="2" viewBox="0 0 24 24" xmlns="http://www.w3.org/2000/svg">
  <path d="m10 7.5 2 2 2-2"></path>
  <path d="M12 9.5V4a2 2 0 0 1 2-2h6a2 2 0 0 1 2 2v5.5"></path>
  <path d="m14 16.5-2-2-2 2"></path>
  <path d="M12 14.5V20a2 2 0 0 1-2 2H4a2 2 0 0 1-2-2v-5.5"></path>
  <path d="m16.5 10-2 2 2 2"></path>
  <path d="M14.5 12H20a2 2 0 0 1 2 2v6a2 2 0 0 1-2 2h-5.5"></path>
  <path d="m7.5 14 2-2-2-2"></path>
  <path d="M9.5 12H4a2 2 0 0 1-2-2V4a2 2 0 0 1 2-2h5.5"></path>
</svg>