<svg width="80" height="80" fill="none" stroke="#5e5e5e" stroke-linecap="round" stroke-linejoin="round" stroke-width="2" viewBox="0 0 24 24" xmlns="http://www.w3.org/2000/svg">
  <path d="M12 3.5c-5.523 0-10 4.477-10 10 0 2.615.857 5.218 2.5 7h15c1.643-1.782 2.5-4.385 2.5-7 0-5.523-4.477-10-10-10Z"></path>
  <path d="M12 17a2 2 0 1 0 0-4 2 2 0 0 0 0 4Z"></path>
  <path d="M12 10v3"></path>
  <path d="M12 6v1"></path>
  <path d="M4.5 14h1"></path>
  <path d="m6.5 9 .707.707"></path>
  <path d="M18.5 14h1"></path>
  <path d="M17 9.707 17.707 9"></path>
</svg>