<svg width="80" height="80" fill="none" stroke="#5e5e5e" stroke-linecap="round" stroke-linejoin="round" stroke-width="2" viewBox="0 0 24 24" xmlns="http://www.w3.org/2000/svg">
  <path d="M12 22c5.523 0 10-4.477 10-10a9.969 9.969 0 0 0-2.923-7.065A9.97 9.97 0 0 0 12 2a9.969 9.969 0 0 0-7.077 2.935A9.969 9.969 0 0 0 2 12c0 5.523 4.477 10 10 10Z"></path>
  <path d="M2 12h2"></path>
  <path d="M4.923 4.936 6.487 6.5"></path>
  <path d="M12 2v2"></path>
  <path d="M22 12h-2"></path>
  <path d="M19.077 4.936 17.513 6.5"></path>
  <path d="M12 10v6"></path>
  <path d="M19.926 18.098A9.984 9.984 0 0 1 12 22a9.983 9.983 0 0 1-7.926-3.902A15.926 15.926 0 0 1 12 16c2.884 0 5.59.763 7.926 2.098Z"></path>
</svg>