<svg width="80" height="80" fill="none" stroke="#5e5e5e" stroke-linecap="round" stroke-linejoin="round" stroke-width="2" viewBox="0 0 24 24" xmlns="http://www.w3.org/2000/svg">
  <path d="M12 18v-3"></path>
  <path d="M10 20H3"></path>
  <path d="M14 20h7"></path>
  <path d="M14 20a2 2 0 1 1-4 0 2 2 0 0 1 4 0Z"></path>
  <path d="M19.5 4.5v8c0 1.38-3.358 2.5-7.5 2.5-4.142 0-7.5-1.12-7.5-2.5v-8"></path>
  <path d="M19.5 8.5c0 1.38-3.358 2.5-7.5 2.5-4.142 0-7.5-1.12-7.5-2.5"></path>
  <path d="M19.5 4.5C19.5 5.88 16.142 7 12 7 7.858 7 4.5 5.88 4.5 4.5S7.858 2 12 2c4.142 0 7.5 1.12 7.5 2.5Z"></path>
  <path d="M19.5 4.5C19.5 5.88 16.142 7 12 7 7.858 7 4.5 5.88 4.5 4.5S7.858 2 12 2c4.142 0 7.5 1.12 7.5 2.5Z"></path>
</svg>