<svg width="80" height="80" fill="none" stroke="#5e5e5e" stroke-linecap="round" stroke-linejoin="round" stroke-width="2" viewBox="0 0 24 24" xmlns="http://www.w3.org/2000/svg">
  <path d="M12 18v-3"></path>
  <path d="M10 20H3"></path>
  <path d="M14 20h7"></path>
  <path d="M14 20a2 2 0 1 1-4 0 2 2 0 0 1 4 0Z"></path>
  <path d="M18.5 8.5h-13m13 0a6.5 6.5 0 0 1-13 0h13Zm0 0a6.5 6.5 0 0 0-13 0h13Z"></path>
  <path d="M14.5 8.5c0 3.59-1.12 6.5-2.5 6.5s-2.5-2.91-2.5-6.5S10.62 2 12 2s2.5 2.91 2.5 6.5Z"></path>
  <path d="M18.5 8.5h-13"></path>
</svg>