<svg width="80" height="80" fill="none" stroke="#5e5e5e" stroke-linecap="round" stroke-linejoin="round" stroke-width="2" viewBox="0 0 24 24" xmlns="http://www.w3.org/2000/svg">
  <path d="M12 8.5c5.523 0 10-1.343 10-3s-4.477-3-10-3-10 1.343-10 3 4.477 3 10 3Z"></path>
  <path d="M5.385 7.75C3.31 8.3 2 9.104 2 10c0 1.657 4.477 3 10 3s10-1.343 10-3c0-.896-1.31-1.7-3.386-2.25"></path>
  <path d="M5.385 12.25C3.31 12.8 2 13.604 2 14.5c0 1.657 4.477 3 10 3s10-1.343 10-3c0-.896-1.31-1.7-3.386-2.25"></path>
  <path d="M5.385 16.75C3.31 17.3 2 18.104 2 19c0 1.657 4.477 3 10 3s10-1.343 10-3c0-.896-1.31-1.7-3.386-2.25-1.762.467-4.078.75-6.614.75-2.536 0-4.852-.283-6.615-.75Z"></path>
</svg>