<svg width="80" height="80" fill="none" stroke="#5e5e5e" stroke-linecap="round" stroke-linejoin="round" stroke-width="2" viewBox="0 0 24 24" xmlns="http://www.w3.org/2000/svg">
  <path d="M11 4v6c0 1.105-2.015 2-4.5 2S2 11.105 2 10V4"></path>
  <path d="M11 7c0 1.105-2.015 2-4.5 2S2 8.105 2 7"></path>
  <path d="M11 4c0 1.105-2.015 2-4.5 2S2 5.105 2 4s2.015-2 4.5-2 4.5.895 4.5 2Z"></path>
  <path d="M22 14v6c0 1.105-2.015 2-4.5 2s-4.5-.895-4.5-2v-6"></path>
  <path d="M22 17c0 1.105-2.015 2-4.5 2s-4.5-.895-4.5-2"></path>
  <path d="M22 14c0 1.105-2.015 2-4.5 2s-4.5-.895-4.5-2 2.015-2 4.5-2 4.5.895 4.5 2Z"></path>
  <path d="M16 3h3a2 2 0 0 1 2 2v3"></path>
  <path d="M8 21H5a2 2 0 0 1-2-2v-3"></path>
</svg>