<svg width="80" height="80" fill="none" stroke="#5e5e5e" stroke-linecap="round" stroke-linejoin="round" stroke-width="2" viewBox="0 0 24 24" xmlns="http://www.w3.org/2000/svg">
  <path d="M20.5 3h-17A1.5 1.5 0 0 0 2 4.5v12A1.5 1.5 0 0 0 3.5 18h17a1.5 1.5 0 0 0 1.5-1.5v-12A1.5 1.5 0 0 0 20.5 3Z"></path>
  <path d="M12 18v3.5"></path>
  <path d="m16 7-8 7"></path>
  <path d="M5 21.5h14"></path>
  <path d="M7.5 10a1.5 1.5 0 1 0 0-3 1.5 1.5 0 0 0 0 3Z"></path>
  <path d="M16.5 14a1.5 1.5 0 1 0 0-3 1.5 1.5 0 0 0 0 3Z"></path>
</svg>