<svg width="80" height="80" fill="none" stroke="#5e5e5e" stroke-linecap="round" stroke-width="2" viewBox="0 0 24 24" xmlns="http://www.w3.org/2000/svg">
  <path d="M12 22c5.523 0 10-4.477 10-10S17.523 2 12 2 2 6.477 2 12s4.477 10 10 10Z"></path>
  <path d="M2.5 12.5H22"></path>
  <path d="M9.5 9.5a2 2 0 1 0 0-4 2 2 0 0 0 0 4Z"></path>
  <path d="M15.5 15.5h6"></path>
  <path d="M17 8.5h4"></path>
  <path d="M12.5 18.5h7"></path>
  <path d="M20 5.999A9.956 9.956 0 0 1 22 12a10 10 0 0 1-5.5 8.933"></path>
  <path d="M2.2 10a10.046 10.046 0 0 0 .115 4.5"></path>
</svg>