<svg width="80" height="80" fill="none" stroke="#5e5e5e" stroke-linecap="round" stroke-linejoin="round" stroke-width="2" viewBox="0 0 24 24" xmlns="http://www.w3.org/2000/svg">
  <path d="M16 6.5H8A1.5 1.5 0 0 0 6.5 8v8A1.5 1.5 0 0 0 8 17.5h8a1.5 1.5 0 0 0 1.5-1.5V8A1.5 1.5 0 0 0 16 6.5Z"></path>
  <path d="M14.5 17.5V21a1 1 0 0 1-1 1h-3a1 1 0 0 1-1-1v-3.5"></path>
  <path d="M9.5 6.5V3a1 1 0 0 1 1-1h3a1 1 0 0 1 1 1v3.5"></path>
  <path d="M17.5 10.5h1"></path>
  <path d="M9.5 12h1"></path>
  <path d="M13.5 12h1"></path>
</svg>