<svg width="80" height="80" fill="none" stroke="#5e5e5e" stroke-width="2" viewBox="0 0 24 24" xmlns="http://www.w3.org/2000/svg">
  <path d="M19.5 3h-15A1.5 1.5 0 0 0 3 4.5v15A1.5 1.5 0 0 0 4.5 21h15a1.5 1.5 0 0 0 1.5-1.5v-15A1.5 1.5 0 0 0 19.5 3Z"></path>
  <path fill="#5e5e5e" stroke="none" d="m11.646 5.282-1.621 1.621a.5.5 0 0 0 .353.854h3.243a.5.5 0 0 0 .354-.854l-1.622-1.62a.5.5 0 0 0-.707 0Z"></path>
  <path fill="#5e5e5e" stroke="none" d="m5.282 12.354 1.622 1.621a.5.5 0 0 0 .853-.354V10.38a.5.5 0 0 0-.853-.354l-1.622 1.622a.5.5 0 0 0 0 .707Z"></path>
  <path fill="#5e5e5e" stroke="none" d="m12.353 18.717 1.622-1.621a.5.5 0 0 0-.354-.854h-3.243a.5.5 0 0 0-.353.854l1.621 1.621a.5.5 0 0 0 .707 0Z"></path>
  <path fill="#5e5e5e" stroke="none" d="m18.717 11.647-1.621-1.622a.5.5 0 0 0-.854.354v3.243a.5.5 0 0 0 .854.353l1.621-1.621a.5.5 0 0 0 0-.707Z"></path>
</svg>