<svg width="80" height="80" fill="none" stroke="#5e5e5e" stroke-linecap="round" stroke-linejoin="round" stroke-width="2" viewBox="0 0 24 24" xmlns="http://www.w3.org/2000/svg">
  <path d="M17 6.5H3a1 1 0 0 0-1 1v9a1 1 0 0 0 1 1h14a1 1 0 0 0 1-1v-9a1 1 0 0 0-1-1Z"></path>
  <path d="M2 6.5h5v11H2v-11Z"></path>
  <path d="M18 9.5h4v5h-4"></path>
  <path fill="#5e5e5e" stroke="none" d="M15 11.5a1 1 0 1 0 0-2 1 1 0 0 0 0 2Z"></path>
  <path fill="#5e5e5e" stroke="none" d="M15 14.5a1 1 0 1 0 0-2 1 1 0 0 0 0 2Z"></path>
</svg>