<svg width="80" height="80" fill="none" stroke="#5e5e5e" stroke-linecap="round" stroke-linejoin="round" stroke-width="2" viewBox="0 0 24 24" xmlns="http://www.w3.org/2000/svg">
  <path d="m2 20 1.25.676c.8.432 1.7.432 2.5 0a2.57 2.57 0 0 1 2.5 0c.8.432 1.7.432 2.5 0a2.57 2.57 0 0 1 2.5 0c.8.432 1.7.432 2.5 0a2.57 2.57 0 0 1 2.5 0c.8.432 1.7.432 2.5 0L22 20"></path>
  <path d="M7 5.5V2"></path>
  <path d="M15.5 5.5V2"></path>
  <path d="M10.5 4V2"></path>
  <path d="M19 4V2"></path>
  <path d="M6 3h4"></path>
  <path d="M14.5 3h4"></path>
  <path d="M9 7.5a2 2 0 1 0-4 0v8a2 2 0 1 0 4 0v-8Z"></path>
  <path d="M17.5 7.5a2 2 0 1 0-4 0v8a2 2 0 1 0 4 0v-8Z"></path>
  <path d="M13.5 7.5a2 2 0 1 1 4 0v2h-4v-2Z"></path>
  <path d="M5 7.5a2 2 0 0 1 4 0v2H5v-2Z"></path>
</svg>