<svg width="80" height="80" fill="none" stroke="#5e5e5e" stroke-linecap="round" stroke-linejoin="round" stroke-width="2" viewBox="0 0 24 24" xmlns="http://www.w3.org/2000/svg">
  <path d="M8.5 12H7.045C4.26 12 2 9.76 2 7s2.26-5 5.045-5L10 4.5 12.955 2C15.74 2 18 4.24 18 7s-2.26 5-5.045 5H11.5"></path>
  <path d="M13 18H7v4h6v-4Z"></path>
  <path d="M13 20h5c2.21 0 4-1.79 4-4V7h-4"></path>
  <path d="M10.61 15H9.39c-.73 0-1.285-.655-1.165-1.37l.61-3.645a1.18 1.18 0 0 1 2.33 0l.61 3.645c.115.715-.44 1.37-1.165 1.37Z"></path>
</svg>