<svg width="80" height="80" fill="#5e5e5e" viewBox="0 0 24 24" xmlns="http://www.w3.org/2000/svg">
  <path fill-rule="evenodd" d="M19.08 16.78a20.64 20.64 0 0 0-6.86-1.158 20.6 20.6 0 0 0-7.25 1.3c.2.552.46 1.078.778 1.571l-2.52 1.627A10.845 10.845 0 0 1 1.5 14.224C1.5 8.31 6.193 3.5 12 3.5s10.5 4.81 10.5 10.725a10.84 10.84 0 0 1-1.877 6.12l-2.479-1.69c.396-.58.71-1.21.936-1.875Zm.22-4.338C18.517 9.031 15.54 6.5 12 6.5c-3.586 0-6.594 2.596-7.329 6.075-.118.665.062 1.243.556 1.09a23.73 23.73 0 0 1 6.994-1.043c2.328 0 4.606.333 6.766.975.427.127.49-.408.32-1.113a.439.439 0 0 1-.008-.042Z" clip-rule="evenodd"></path>
</svg>