<svg width="80" height="80" fill="none" stroke="#5e5e5e" stroke-linecap="round" stroke-linejoin="round" stroke-width="2" viewBox="0 0 24 24" xmlns="http://www.w3.org/2000/svg">
  <path d="M4 6a1.5 1.5 0 0 1 1.5-1.5h13A1.5 1.5 0 0 1 20 6v5.5H4V6Z"></path>
  <path d="M3 17.5v2"></path>
  <path d="M21 17.5v2"></path>
  <path d="M10 9H7a1.5 1.5 0 0 0-1.5 1.5v1h6v-1A1.5 1.5 0 0 0 10 9Z"></path>
  <path d="M17 9h-3a1.5 1.5 0 0 0-1.5 1.5v1h6v-1A1.5 1.5 0 0 0 17 9Z"></path>
  <path d="M2 13a1.5 1.5 0 0 1 1.5-1.5h17A1.5 1.5 0 0 1 22 13v4.5H2V13Z"></path>
</svg>