<svg width="80" height="80" fill="none" stroke="#5e5e5e" stroke-linecap="round" stroke-linejoin="round" stroke-width="2" viewBox="0 0 24 24" xmlns="http://www.w3.org/2000/svg">
  <path d="m18 18-3.5-3.5M6 6l3.5 3.5L6 6Z"></path>
  <path d="m6 18 3.5-3.5M18 6l-3.5 3.5L18 6Z"></path>
  <path d="M14.5 9.5h-5v5h5v-5Z"></path>
  <path d="M18 9.5A3.5 3.5 0 1 0 14.5 6"></path>
  <path d="M18 14.5a3.5 3.5 0 1 1-3.5 3.5"></path>
  <path d="M6 14.5A3.5 3.5 0 1 0 9.5 18"></path>
  <path d="M6 9.5A3.5 3.5 0 1 1 9.5 6"></path>
</svg>