<svg width="80" height="80" fill="none" stroke="#5e5e5e" stroke-linecap="round" stroke-width="2" viewBox="0 0 24 24" xmlns="http://www.w3.org/2000/svg">
  <path d="M12 18.5c2.21 0 4.21-.895 5.657-2.343A7.975 7.975 0 0 0 20 10.5c0-2.21-.895-4.21-2.343-5.657A7.975 7.975 0 0 0 12 2.5c-2.21 0-4.21.895-5.657 2.343A7.975 7.975 0 0 0 4 10.5c0 2.21.895 4.21 2.343 5.657A7.975 7.975 0 0 0 12 18.5Z" clip-rule="evenodd"></path>
  <path d="M19.778 18.278A10.966 10.966 0 0 1 12 21.5a10.966 10.966 0 0 1-7.778-3.222"></path>
</svg>