<svg width="80" height="80" fill="none" stroke="#5e5e5e" stroke-linecap="round" stroke-width="2" viewBox="0 0 24 24" xmlns="http://www.w3.org/2000/svg">
  <path d="M12 21.5c2.21 0 4.21-.895 5.657-2.343A7.975 7.975 0 0 0 20 13.5c0-2.21-.895-4.21-2.343-5.657A7.975 7.975 0 0 0 12 5.5c-2.21 0-4.21.895-5.657 2.343A7.975 7.975 0 0 0 4 13.5c0 2.21.895 4.21 2.343 5.657A7.975 7.975 0 0 0 12 21.5Z" clip-rule="evenodd"></path>
  <path d="M19.778 5.722A10.965 10.965 0 0 0 12 2.5a10.966 10.966 0 0 0-7.778 3.222"></path>
</svg>