<svg width="80" height="80" fill="none" stroke="#5e5e5e" stroke-linecap="round" stroke-width="2" viewBox="0 0 24 24" xmlns="http://www.w3.org/2000/svg">
  <path d="M10.5 20c2.21 0 4.21-.895 5.657-2.343A7.975 7.975 0 0 0 18.5 12c0-2.21-.895-4.21-2.343-5.657A7.975 7.975 0 0 0 10.5 4c-2.21 0-4.21.895-5.657 2.343A7.975 7.975 0 0 0 2.5 12c0 2.21.895 4.21 2.343 5.657A7.975 7.975 0 0 0 10.5 20Z" clip-rule="evenodd"></path>
  <path d="M18.278 19.778A10.966 10.966 0 0 0 21.5 12c0-3.038-1.231-5.788-3.222-7.778"></path>
</svg>