<svg width="80" height="80" fill="none" stroke="#5e5e5e" stroke-linecap="round" stroke-linejoin="round" stroke-width="2" viewBox="0 0 24 24" xmlns="http://www.w3.org/2000/svg">
  <path d="m7.075 16.91-.707 4.95-4.242-4.243 4.95-.707Z"></path>
  <path d="m12.025 3.475-4.95 4.95a6 6 0 1 0 8.485 8.485l4.95-4.95"></path>
  <path d="M13.793 10.192c2.343 2.344 5.35 3.135 6.717 1.768 1.367-1.367.576-4.374-1.767-6.717-2.343-2.344-5.351-3.135-6.718-1.768-1.367 1.367-.575 4.374 1.768 6.717Z"></path>
  <path fill="#5e5e5e" stroke="none" d="M14.323 6.406a1 1 0 1 0 1.414-1.414 1 1 0 0 0-1.414 1.414Z"></path>
  <path fill="#5e5e5e" stroke="none" d="M17.859 9.942a1 1 0 1 0 1.414-1.414 1 1 0 0 0-1.414 1.414Z"></path>
  <path fill="#5e5e5e" stroke="none" d="M15.03 9.235a1 1 0 1 0 1.414-1.415 1 1 0 0 0-1.414 1.415Z"></path>
</svg>