<svg width="80" height="80" fill="none" stroke="#5e5e5e" stroke-linejoin="round" stroke-width="2" viewBox="0 0 24 24" xmlns="http://www.w3.org/2000/svg">
  <path d="M7 6.8c0-.718-.672-1.3-1.5-1.3S4 6.082 4 6.8v10.4c0 .718.672 1.3 1.5 1.3S7 17.918 7 17.2V6.8Z"></path>
  <path d="M20 6.8c0-.718-.672-1.3-1.5-1.3S17 6.082 17 6.8v10.4c0 .718.672 1.3 1.5 1.3s1.5-.582 1.5-1.3V6.8Z"></path>
  <path d="M4 9.333C4 8.597 3.328 8 2.5 8S1 8.597 1 9.333v5.334C1 15.403 1.672 16 2.5 16S4 15.403 4 14.667V9.333Z"></path>
  <path d="M23 9.333C23 8.597 22.328 8 21.5 8S20 8.597 20 9.333v5.334c0 .736.672 1.333 1.5 1.333s1.5-.597 1.5-1.333V9.333Z"></path>
  <path d="M17 13.5H7v-3h10v3Z"></path>
</svg>