<svg width="80" height="80" fill="none" stroke="#5e5e5e" stroke-linecap="round" stroke-linejoin="round" stroke-width="2" viewBox="0 0 24 24" xmlns="http://www.w3.org/2000/svg">
  <path d="m17.5 9-1.94 6.306c-.04.13-.078.257-.124.384-.274.75-1.495 3.52-4.936 4.81-4 1.5-8-.5-8-4.462 0-3.961 4-3.538 6-5.038 2-1.5 4-4.5 4-4.5"></path>
  <path d="M19.627 12.243S20.186 9.587 20 8c-.252-2.164-1.25-3.75-2.5-4.5s-3.873-1.25-6 0C9.374 4.75 8.484 6.422 8.484 6.422l4.103-.384a.5.5 0 0 1 .527.36l.75 2.62a.5.5 0 0 0 .617.344l2.641-.754a.5.5 0 0 1 .572.233l1.933 3.402Z"></path>
  <path d="m18 4 3-1"></path>
</svg>