<svg width="80" height="80" fill="none" stroke="#5e5e5e" stroke-linecap="round" stroke-linejoin="round" stroke-width="2" viewBox="0 0 24 24" xmlns="http://www.w3.org/2000/svg">
  <path d="M2.5 9.356c0-.197.16-.356.356-.356h6.72C16.16 9 21.5 14.339 21.5 20.924a.076.076 0 0 1-.076.076H2.5V9.356Z"></path>
  <path d="M2.5 9V4h10"></path>
  <path d="M7.5 15.5a2 2 0 1 0 0-4 2 2 0 0 0 0 4Z"></path>
  <path d="M2.5 18H21"></path>
  <path d="M14.5 10c.667-1 2.7-3.2 4.5-2 1.75 1.167.25 4-.5 5"></path>
</svg>