<svg width="80" height="80" fill="none" stroke="#5e5e5e" stroke-linecap="round" stroke-linejoin="round" stroke-width="2" viewBox="0 0 24 24" xmlns="http://www.w3.org/2000/svg">
  <path d="M4.72 21h1.592a1 1 0 0 0 .934-.643l1.1-2.877.012-2.762a1 1 0 0 1 .016-.174l1.702-9.394a1 1 0 0 0-.984-1.178h-3.66a1 1 0 0 0-1 1.027l.261 9.436-.885 1.665a1 1 0 0 0 .134 1.133l.281.317-.481 2.24A1 1 0 0 0 4.719 21Z"></path>
  <path d="m8.358 14.63-3.665-.195"></path>
  <path d="M19.29 21H17.7a1 1 0 0 1-.94-.657l-1.047-2.863-.012-2.762a.993.993 0 0 0-.016-.174L13.983 5.15a1 1 0 0 1 .984-1.178h3.66a1 1 0 0 1 1 1.027l-.26 9.436.884 1.665a1 1 0 0 1-.134 1.133l-.281.317.435 2.261A1 1 0 0 1 19.29 21Z"></path>
  <path d="m15.7 14.63 3.666-.195"></path>
</svg>