<svg width="80" height="80" fill="none" stroke="#5e5e5e" stroke-linejoin="round" stroke-width="2" viewBox="0 0 24 24" xmlns="http://www.w3.org/2000/svg">
  <path d="M11.573 22C15.647 22 20 21.505 20 15.09c0-3.108-.746-5.638-2.237-7.59-1.393 2.333-2.426 3.5-3.098 3.5-1.008 0 0-3.045-1.166-5.354C12.722 4.106 11.344 2.89 9.364 2c.276 2.218.216 3.828-.178 4.828-.592 1.5-5.61 4.127-5.157 8.64C4.482 19.98 7.5 22 11.573 22Z" clip-rule="evenodd"></path>
  <path d="M10.854 12.004c-1.903 1.73-2.713 3.33-2.433 4.801.242 1.267 1.203 1.883 1.928 2.082.56.154 1.533.24 2.401-.534.92-.82.554-1.984-.78-3.425-.563-.608-.935-1.582-1.116-2.924Z"></path>
</svg>