<svg width="80" height="80" fill="none" stroke="#5e5e5e" stroke-linecap="round" stroke-linejoin="round" stroke-width="2" viewBox="0 0 24 24" xmlns="http://www.w3.org/2000/svg">
  <path d="m13.5 5-2 2M8 5a2.5 2.5 0 1 1-5 0 2.5 2.5 0 0 1 5 0Zm0 0h5.5H8Zm5.5 0-2-2 2 2Z"></path>
  <path d="m10.5 19 2 2m3.5-2a2.5 2.5 0 1 0 5 0 2.5 2.5 0 0 0-5 0Zm0 0h-5.5H16Zm-5.5 0 2-2-2 2Z"></path>
  <path d="m19 13.5-2-2M19 8a2.5 2.5 0 1 1 0-5 2.5 2.5 0 0 1 0 5Zm0 0v5.5V8Zm0 5.5 2-2-2 2Z"></path>
  <path d="m5 10.5-2 2M5 16a2.5 2.5 0 1 0 0 5 2.5 2.5 0 0 0 0-5Zm0 0v-5.5V16Zm0-5.5 2 2-2-2Z"></path>
</svg>