<svg width="80" height="80" fill="none" stroke="#5e5e5e" stroke-linecap="round" stroke-linejoin="round" stroke-width="2" viewBox="0 0 24 24" xmlns="http://www.w3.org/2000/svg">
  <path d="M8 12A5 5 0 1 0 8 2a5 5 0 0 0 0 10Z"></path>
  <path d="m13 7.6 7.063 8.882a.5.5 0 0 1-.031.674l-2.042 2.042a.5.5 0 0 1-.673.03L8.91 12"></path>
  <path d="m13.235 12.235 1.414 1.415"></path>
  <path d="M8.5 22.044c.958-1.25 2.123-1.874 3.495-1.874 2.058 0 4.487 2.585 6.558 2.23 2.072-.356 2.665-2.4 1.39-3.53"></path>
</svg>