<svg width="80" height="80" fill="none" stroke="#5e5e5e" stroke-linecap="round" stroke-linejoin="round" stroke-width="2" viewBox="0 0 24 24" xmlns="http://www.w3.org/2000/svg">
  <path d="M5.5 8v13"></path>
  <path d="M12 14.5V21"></path>
  <path d="M12 9.5V3"></path>
  <path d="M18.5 3v13"></path>
  <path d="M5.5 8a2.5 2.5 0 1 0 0-5 2.5 2.5 0 0 0 0 5Z"></path>
  <path d="M12 14.5a2.5 2.5 0 1 0 0-5 2.5 2.5 0 0 0 0 5Z"></path>
  <path d="M18.5 21a2.5 2.5 0 1 0 0-5 2.5 2.5 0 0 0 0 5Z"></path>
</svg>