<svg width="80" height="80" fill="none" stroke="#5e5e5e" stroke-linecap="round" stroke-linejoin="round" stroke-width="2" viewBox="0 0 24 24" xmlns="http://www.w3.org/2000/svg">
  <path d="M20.5 8H9a1 1 0 0 0-1 1v11.5a1 1 0 0 0 1 1h11.5a1 1 0 0 0 1-1V9a1 1 0 0 0-1-1Z"></path>
  <path d="M15 2.5H3.5a1 1 0 0 0-1 1V15a1 1 0 0 0 1 1H15a1 1 0 0 0 1-1V3.5a1 1 0 0 0-1-1Z"></path>
  <path d="M12.5 16 8 20.5"></path>
  <path d="M20.5 8 16 12.5"></path>
  <path d="M8 11.5 3.5 16"></path>
  <path d="M16 3.5 11.5 8"></path>
  <path d="M21.5 12 12 21.5"></path>
  <path d="M12 2.5 2.5 12"></path>
  <path d="M21.5 17 17 21.5"></path>
  <path d="M7 2.5 2.5 7"></path>
</svg>