<svg width="80" height="80" fill="none" stroke="#5e5e5e" stroke-linecap="round" stroke-linejoin="round" stroke-width="2" viewBox="0 0 24 24" xmlns="http://www.w3.org/2000/svg">
  <path d="M19.5 3h-15A1.5 1.5 0 0 0 3 4.5v15A1.5 1.5 0 0 0 4.5 21h15a1.5 1.5 0 0 0 1.5-1.5v-15A1.5 1.5 0 0 0 19.5 3Z"></path>
  <path d="M15 12a2 2 0 1 0 0-4 2 2 0 0 0 0 4Z"></path>
  <path d="M13 14.562c.309.843 1.054 1.438 1.924 1.438C16.07 16 17 15.274 17 14v-4"></path>
  <path d="M10.5 8H7v8"></path>
  <path d="M7 12h3.5"></path>
</svg>