<svg width="80" height="80" fill="none" stroke="#5e5e5e" stroke-linecap="round" stroke-linejoin="round" stroke-width="2" viewBox="0 0 24 24" xmlns="http://www.w3.org/2000/svg">
  <path d="M12 18c4.418 0 8-1.343 8-3s-3.582-3-8-3-8 1.343-8 3 3.582 3 8 3Z"></path>
  <path d="M12 12c4.418 0 8-2.239 8-5s-3.582-5-8-5-8 2.239-8 5 3.582 5 8 5Z"></path>
  <path d="M11.5 5 9 6.5"></path>
  <path d="m15 7-2.5 1.5"></path>
  <path d="M20 19c0 1.657-3.582 3-8 3s-8-1.343-8-3"></path>
  <path d="M20 19v-4"></path>
  <path d="M4 19v-4"></path>
  <path fill="#5e5e5e" stroke="none" d="M12 16c1.933 0 3.5-.448 3.5-1s-1.567-1-3.5-1-3.5.448-3.5 1 1.567 1 3.5 1Z"></path>
</svg>