<svg width="80" height="80" fill="none" stroke="#5e5e5e" stroke-linecap="round" stroke-linejoin="round" stroke-width="2" viewBox="0 0 24 24" xmlns="http://www.w3.org/2000/svg">
  <path d="M2.056 23A1.058 1.058 0 0 1 1 21.939V2.06C1 1.475 1.473 1 2.056 1h19.889C22.527 1 23 1.475 23 2.061V21.94c0 .586-.473 1.061-1.055 1.061H2.055Z" clip-rule="evenodd"></path>
  <path fill="#5e5e5e" fill-rule="evenodd" stroke="none" d="M19.33 8.944h-2.434c-.675 0-1.222.547-1.222 1.222v2.445h3.657l-.536 3.666h-3.12V23h-4.022v-6.723h-3.32V12.61h3.277l.043-3.479-.012-1.247a3.188 3.188 0 0 1 3.189-3.219h4.5v4.278Z" clip-rule="evenodd"></path>
</svg>