<svg width="80" height="80" fill="none" stroke="#5e5e5e" stroke-linecap="round" stroke-linejoin="round" stroke-width="2" viewBox="0 0 24 24" xmlns="http://www.w3.org/2000/svg">
  <path d="m11.071 7.929-5.657 5.656a2 2 0 0 0 0 2.829l4.95 4.95a2 2 0 0 0 2.828 0l4.95-4.95a2 2 0 0 0 0-2.829L12.485 7.93a1 1 0 0 0-1.414 0Z"></path>
  <path d="M11.5 7.455s3.03-3.38 3.705-4.085c.677-.704 2.579-1.42 3.706-.246 1.127 1.174.41 3.035-.267 3.74-.676.704-3.334 3.636-3.334 3.636"></path>
  <path d="M11.5 7.455S8.47 4.075 7.795 3.37c-.676-.704-2.579-1.42-3.706-.246-1.127 1.174-.41 3.035.267 3.74.676.704 3.334 3.636 3.334 3.636"></path>
</svg>