<svg width="80" height="80" fill="#5e5e5e" viewBox="0 0 24 24" xmlns="http://www.w3.org/2000/svg">
  <path fill-rule="evenodd" d="M3.927 12.06A15.318 15.318 0 0 1 1 6.494a18.352 18.352 0 0 0 4.256 4.15 15.065 15.065 0 0 1 10.34-4.104 8.169 8.169 0 0 1 6.451 3.156 3.68 3.68 0 0 1 .84 2.056 17.948 17.948 0 0 0-7.284-1.532 18.034 18.034 0 0 0-7.95 1.84c.083.04.168.082.253.121a17.973 17.973 0 0 0 8.178 1.712 18.057 18.057 0 0 0 4.895-.808 18.004 18.004 0 0 0 1.904-.715 3.645 3.645 0 0 1-.841 2.06 8.162 8.162 0 0 1-6.44 3.151 15.07 15.07 0 0 1-10.348-4.105 18.347 18.347 0 0 0-4.253 4.149 15.323 15.323 0 0 1 2.926-5.565Z" clip-rule="evenodd"></path>
  <path fill-rule="evenodd" d="M16.299 13.69c.764-.231 1.328-.62 1.328-1.569 0-.948-.564-1.48-1.329-1.713a1.58 1.58 0 0 0-.46-.069 14.489 14.489 0 0 1 .49.008c1.662.051 3.242.369 4.786.864.64.226 1.166.39 1.773.693v.199c0 .116 0 .053-.014.17-.662.277-1.119.438-1.758.664-1.537.432-3.124.764-4.786.815h-.019c-.157.005-.315.008-.473.008.154 0 .303-.023.446-.064l.016-.005Z" clip-rule="evenodd"></path>
</svg>