<svg width="80" height="80" fill="none" stroke="#5e5e5e" stroke-linejoin="round" stroke-width="2" viewBox="0 0 24 24" xmlns="http://www.w3.org/2000/svg">
  <path d="M19.5 3h-15A1.5 1.5 0 0 0 3 4.5v15A1.5 1.5 0 0 0 4.5 21h15a1.5 1.5 0 0 0 1.5-1.5v-15A1.5 1.5 0 0 0 19.5 3Z"></path>
  <path d="M9 9a1.5 1.5 0 0 1 1.5-1.5H12v3h-1.5A1.5 1.5 0 0 1 9 9Z"></path>
  <path d="M9 12a1.5 1.5 0 0 1 1.5-1.5H12v3h-1.5A1.5 1.5 0 0 1 9 12Z"></path>
  <path d="M9 15a1.5 1.5 0 0 1 1.5-1.5H12V15a1.5 1.5 0 1 1-3 0Z"></path>
  <path d="M12 7.5h1.5a1.5 1.5 0 1 1 0 3H12v-3Z"></path>
  <path d="M12 12a1.5 1.5 0 1 1 3 0 1.5 1.5 0 0 1-3 0Z"></path>
</svg>