<svg width="80" height="80" fill="none" stroke="#5e5e5e" stroke-linecap="round" stroke-linejoin="round" stroke-width="2" viewBox="0 0 24 24" xmlns="http://www.w3.org/2000/svg">
  <path d="M5 22h14a1 1 0 0 0 1-1V7l-4.5-5H5a1 1 0 0 0-1 1v18a1 1 0 0 0 1 1Z"></path>
  <path d="M8 11.5c.141.457.355.881.627 1.258A4.157 4.157 0 0 0 12 14.5a4.157 4.157 0 0 0 3.373-1.742c.272-.377.486-.8.627-1.258"></path>
  <path d="m10.76 14.534-.517 1.932"></path>
  <path d="m13.243 14.534.518 1.932"></path>
  <path d="m15.177 13.677 1.414 1.414"></path>
  <path d="m7.5 15.005 1.414-1.414"></path>
  <path d="M15 2v5h5"></path>
</svg>