<svg width="80" height="80" fill="none" stroke="#5e5e5e" stroke-linecap="round" stroke-linejoin="round" stroke-width="2" viewBox="0 0 24 24" xmlns="http://www.w3.org/2000/svg">
  <path d="M20 11.5V7l-4.5-5H5a1 1 0 0 0-1 1v18a1 1 0 0 0 1 1h6"></path>
  <path d="M15.425 15c-1.063 0-1.925 1.004-1.925 2.243 0 2.243 2.275 4.283 3.5 4.757 1.225-.474 3.5-2.514 3.5-4.757 0-1.239-.862-2.243-1.925-2.243-.651 0-1.227.377-1.575.953-.348-.576-.924-.953-1.575-.953Z"></path>
  <path d="M15 2v5h5"></path>
</svg>