<svg width="80" height="80" fill="none" stroke="#5e5e5e" stroke-linecap="round" stroke-linejoin="round" stroke-width="2" viewBox="0 0 24 24" xmlns="http://www.w3.org/2000/svg">
  <path d="M20 11.5V7l-4.5-5H5a1 1 0 0 0-1 1v18a1 1 0 0 0 1 1h6"></path>
  <path d="M17 20.5a2.5 2.5 0 1 0 0-5 2.5 2.5 0 0 0 0 5Z"></path>
  <path d="M17 14v1.5"></path>
  <path d="M17 20.5V22"></path>
  <path d="m19.914 15-1.06 1.06"></path>
  <path d="m14.914 20-1.06 1.06"></path>
  <path d="m14 15 1.06 1.06"></path>
  <path d="m19 20 1.06 1.06"></path>
  <path d="M13 18h1.5"></path>
  <path d="M19.5 18H21"></path>
  <path d="M15 2v5h5"></path>
</svg>