<svg width="80" height="80" fill="none" stroke="#5e5e5e" stroke-linecap="round" stroke-linejoin="round" stroke-width="2" viewBox="0 0 24 24" xmlns="http://www.w3.org/2000/svg">
  <path d="M20 10.421V3a1 1 0 0 0-1-1H5a1 1 0 0 0-1 1v18a1 1 0 0 0 1 1h8"></path>
  <path d="M7 8.5h3"></path>
  <path d="M14 8.5h3"></path>
  <path d="M7 14h3"></path>
  <path d="M7 17h3"></path>
  <path d="M8.5 10V7"></path>
  <path d="m18.864 18.864 2.121 2.122"></path>
  <path d="M14.621 18.864a3 3 0 1 0 4.243-4.243 3 3 0 0 0-4.243 4.243Z"></path>
</svg>