<svg width="80" height="80" fill="none" stroke="#5e5e5e" stroke-linecap="round" stroke-linejoin="round" stroke-width="2" viewBox="0 0 24 24" xmlns="http://www.w3.org/2000/svg">
  <path d="M19.5 3h-15A1.5 1.5 0 0 0 3 4.5v15A1.5 1.5 0 0 0 4.5 21h15a1.5 1.5 0 0 0 1.5-1.5v-15A1.5 1.5 0 0 0 19.5 3Z"></path>
  <path d="M17 7H7v10h10V7Z"></path>
  <path d="M17 11.5 11.5 17"></path>
  <path d="M12.5 7 7 12.5"></path>
  <path d="M17 7 7 17"></path>
  <path d="M7 11v6h6"></path>
  <path d="M11 7h6v6"></path>
</svg>