<svg width="80" height="80" fill="none" stroke="#5e5e5e" stroke-linecap="round" stroke-width="2" viewBox="0 0 24 24" xmlns="http://www.w3.org/2000/svg">
  <path fill="#5e5e5e" d="M12.245 4.199c-.122-.02-.108-.199.015-.199h7.49a.25.25 0 0 1 .25.25v7.49c0 .123-.18.137-.199.015l-.983-6.158a.5.5 0 0 0-.415-.415L12.245 4.2Z"></path>
  <path fill="#5e5e5e" d="M3.245 13.199c-.122-.02-.108-.199.015-.199h7.49a.25.25 0 0 1 .25.25v7.49c0 .123-.18.137-.199.016l-.983-6.159a.5.5 0 0 0-.415-.415L3.245 13.2Z"></path>
  <path fill="#5e5e5e" d="M7.745 8.699c-.122-.02-.108-.199.015-.199h7.49a.25.25 0 0 1 .25.25v7.49c0 .123-.18.137-.199.016l-.926-5.801a1 1 0 0 0-.83-.83l-5.8-.926Z"></path>
</svg>