<svg width="80" height="80" fill="none" stroke="#5e5e5e" stroke-linecap="round" stroke-linejoin="round" stroke-width="2" viewBox="0 0 24 24" xmlns="http://www.w3.org/2000/svg">
  <path d="M7.5 7.192C9.563 8 12.004 8 12.004 8s2.436 0 4.496-.808c2.25 2.627 3.828 6.09 4.865 9.007C22.415 19.15 20.1 22 16.967 22H7.01c-3.126 0-5.437-2.835-4.393-5.782C3.65 13.307 5.227 9.843 7.5 7.192Z"></path>
  <path d="M9 14h6"></path>
  <path d="M9 17h6"></path>
  <path d="M12.004 14v5"></path>
  <path d="m15 11-3 3-3-3"></path>
  <path d="M12 8c3.59 0 6.5-1.343 6.5-3S15.59 2 12 2 5.5 3.343 5.5 5 8.41 8 12 8Z" clip-rule="evenodd"></path>
</svg>