<svg width="80" height="80" fill="none" stroke="#5e5e5e" stroke-linecap="round" stroke-linejoin="round" stroke-width="2" viewBox="0 0 24 24" xmlns="http://www.w3.org/2000/svg">
  <path d="M21.215 6.02a13.152 13.152 0 0 0-9.256-3.77 13.153 13.153 0 0 0-9.214 3.729"></path>
  <path d="M3.333 14.738v-.03A8.667 8.667 0 0 1 12 6.043"></path>
  <path d="M15.585 6.815a8.668 8.668 0 0 1 5.082 7.893v.007"></path>
  <path d="M7.125 18.5v-3.792a4.875 4.875 0 1 1 9.75 0V18.5"></path>
  <path d="M8.763 21.75c.982-.242 1.612-1.277 1.612-2.152V15.25a1.625 1.625 0 0 1 3.25 0v4.348"></path>
</svg>