<svg width="80" height="80" fill="none" stroke="#5e5e5e" stroke-linecap="round" stroke-linejoin="round" stroke-width="2" viewBox="0 0 24 24" xmlns="http://www.w3.org/2000/svg">
  <path d="M22 12c0 5.523-4.477 10-10 10S2 17.523 2 12 6.477 2 12 2"></path>
  <path d="m19 4.736.172.528h.555l-.45.326.172.528L19 5.792l-.45.326.172-.528-.449-.326h.555L19 4.736Z"></path>
  <path d="M15 9.5a3 3 0 1 0-6 0v6a3 3 0 1 0 6 0v-6Z"></path>
  <path d="M9 12.5c-1 0-2.5 1.059-2.5 3v4.892"></path>
  <path d="M15 12.5c1 0 2.5 1.059 2.5 3v4.75"></path>
</svg>