<svg width="80" height="80" fill="none" stroke="#5e5e5e" stroke-linejoin="round" stroke-width="2" viewBox="0 0 24 24" xmlns="http://www.w3.org/2000/svg">
  <path d="M12 22c4.117 0 7.5-3.263 7.5-7.45 0-1.03-.052-2.131-.622-3.844s-.685-1.934-1.288-2.992c-.257 2.159-1.634 3.058-1.985 3.327 0-.28-.833-3.373-2.096-5.224C12.269 4 10.582 2.808 9.593 2c0 1.535-.432 3.817-1.05 4.98-.619 1.162-.735 1.205-1.507 2.07-.772.865-1.127 1.133-1.772 2.182-.646 1.05-.764 2.449-.764 3.477C4.5 18.897 7.883 22 12 22Z"></path>
</svg>