<svg width="80" height="80" fill="none" stroke="#5e5e5e" stroke-linecap="round" stroke-linejoin="round" stroke-width="2" viewBox="0 0 24 24" xmlns="http://www.w3.org/2000/svg">
  <path d="M12.34 10.019c-.557-.15-2.207-.679-4.755 1.027-1.516 1.016-2.153 2.574-2.368 3.72-.102.544.36.983.91.917.398-.047.84-.12 1.174-.233.985-.334.856-.965 1.358-1.727.503-.76 1.767-1.02 2.807-.442 1.04.577 1.373 1.562 1.149 2.398-.224.836-.727 1.597-1.99 1.856-1.264.258-1.672-.448-2.99-1.1-.688-.34-1.584.1-2.125.45a.757.757 0 0 0-.305.91c.087.232.208.503.364.774.408.707 2.19 2.976 4.493 3.294 2.304.319 4.702-.83 6.06-2.556 1.359-1.727 1.399-4.105.454-6.15"></path>
  <path d="M16.523 13.21 14.138 2.078c-.053-.25-.288-.422-.535-.357-.58.153-1.318.538-1.352 1.434-.045 1.153.182 10.02.485 11.629"></path>
</svg>