<svg width="80" height="80" fill="none" stroke="#5e5e5e" stroke-linecap="round" stroke-linejoin="round" stroke-width="2" viewBox="0 0 24 24" xmlns="http://www.w3.org/2000/svg">
  <path d="M7.69 16.421c-2.828-.707-7.424 1.061-2.828 2.829 1.768 4.596 3.535 0 2.828-2.829Z"></path>
  <path d="M11.241 5.123c-2.452-.006-5.616.769-6.014 1.864-.29.794 1.212 1.85 3.125 2.409"></path>
  <path d="M18.989 12.871c.006 2.452-.769 5.616-1.864 6.015-.794.288-1.85-1.213-2.41-3.126"></path>
  <path d="M19 12.882c3.331-3.032 1.063-8.837 1.063-8.837s-6.009-1.765-8.837 1.063C8.397 7.936 7.69 16.422 7.69 16.422s7.978-.507 11.31-3.54Z"></path>
  <path d="M19.004 12.886s-3.359-.53-5.304-2.474c-1.944-1.945-2.474-5.304-2.474-5.304"></path>
  <path fill="#5e5e5e" stroke="none" d="M16.176 7.937a1 1 0 1 0 1.414-1.414 1 1 0 0 0-1.414 1.414Z"></path>
  <path d="M20.5 10.472c-.27.88-.74 1.717-1.5 2.41-.824.75-1.932 1.345-3.133 1.816"></path>
  <path d="M13.5 3.828c-.849.244-1.641.647-2.274 1.28-.593.593-1.092 1.433-1.511 2.392"></path>
</svg>