<svg width="80" height="80" fill="none" stroke="#5e5e5e" stroke-linecap="round" stroke-linejoin="round" stroke-width="2" viewBox="0 0 24 24" xmlns="http://www.w3.org/2000/svg">
  <path d="M10.494 17.276 6 14.5h13.5a1.5 1.5 0 1 1 0 3h-8.218a1.5 1.5 0 0 1-.788-.224Z"></path>
  <path d="M15 5.5a1 1 0 1 0 0-2 1 1 0 0 0 0 2Z"></path>
  <path d="M17 16c2-1.5 1.25-4.783.75-5.75-.5-.967-1.475-2.25-1.475-2.25s-.525 0-1.025.5c-1.34 1.34-2.25 3-3.5 3s-3-1-3-1"></path>
  <path d="M10 7.5C8.202 5.252 6.808 4.217 4 4.031c-.55-.036-1 .417-1 .97v9"></path>
  <path d="M3.5 21.5c2 0 1.469-1 3-1s1 1 2.75 1 1.25-1 3-1 1.469 1 3 1 .75-1 2.5-1 1.281 1 3.25 1"></path>
</svg>