<svg width="80" height="80" fill="none" stroke="#5e5e5e" stroke-linecap="round" stroke-linejoin="round" stroke-width="2" viewBox="0 0 24 24" xmlns="http://www.w3.org/2000/svg">
  <path d="M20.5 16.5c.828 0 1.5-1.79 1.5-4s-.672-4-1.5-4-1.5 1.79-1.5 4 .672 4 1.5 4Z"></path>
  <path d="M3.5 16.5c.828 0 1.5-1.79 1.5-4s-.672-4-1.5-4-1.5 1.79-1.5 4 .672 4 1.5 4Z"></path>
  <path d="M12 22c1.657 0 3-4.477 3-10S13.657 2 12 2 9 6.477 9 12s1.343 10 3 10Z"></path>
  <path d="M17 20c1.105 0 2-3.582 2-8s-.895-8-2-8-2 3.582-2 8 .895 8 2 8Z"></path>
  <path d="M7 20c1.105 0 2-3.582 2-8s-.895-8-2-8-2 3.582-2 8 .895 8 2 8Z"></path>
</svg>