<svg width="80" height="80" fill="none" stroke="#5e5e5e" stroke-linecap="round" stroke-linejoin="round" stroke-width="2" viewBox="0 0 24 24" xmlns="http://www.w3.org/2000/svg">
  <path d="M8.5 11.098a.196.196 0 0 0-.078-.157A9.804 9.804 0 0 1 4.5 3.098V2h15v1.098a9.804 9.804 0 0 1-3.921 7.843.196.196 0 0 0-.079.157V22h-7V11.098Z"></path>
  <path d="M19 5.5H5"></path>
  <path d="M12 14.004v2"></path>
  <path d="M8.5 11a10 10 0 0 1-4-8V2"></path>
  <path d="M19.5 2v1a10 10 0 0 1-4 8"></path>
</svg>