<svg width="80" height="80" fill="none" stroke="#5e5e5e" stroke-linecap="round" stroke-linejoin="round" stroke-width="2" viewBox="0 0 24 24" xmlns="http://www.w3.org/2000/svg">
  <path d="M19.493 11.5c-.157 5.355-2.933 8.261-6.992 10-2.196-.94-4.017-2.223-5.251-4.05"></path>
  <path d="M19.5 9.5V5.128L12.503 2.5 5.5 5.128v5.886c0 1.294.147 2.45.424 3.486"></path>
  <path d="M4.634 15.316c-.687-.628-1.495-1.938-1.794-2.013 0 0-.898 2.217-.84 3.697.059 1.48 1.448 2.318 2.912 1.61C6.376 17.903 22 10 22 10l-4.5-1-12.866 6.316Z"></path>
  <path d="M14 10.5 9.5 9l-1 .5 1.5 3"></path>
</svg>