<svg width="80" height="80" fill="none" stroke="#5e5e5e" stroke-linecap="round" stroke-linejoin="round" stroke-width="2" viewBox="0 0 24 24" xmlns="http://www.w3.org/2000/svg">
  <path d="M13 10.5c-1-.25-2.377-.82-4.415.546-1.515 1.015-2.153 2.574-2.368 3.719-.102.544.36.983.91.918.398-.047.84-.12 1.174-.234.985-.333.856-.965 1.359-1.726.502-.762 1.766-1.02 2.806-.443s1.373 1.563 1.15 2.398c-.225.836-.727 1.597-1.991 1.856-1.264.259-1.672-.448-2.99-1.1-.687-.34-1.584.101-2.125.45a.757.757 0 0 0-.305.91c.088.232.208.503.365.774.407.707 2.189 2.976 4.492 3.295 2.304.318 4.702-.83 6.06-2.557 1.359-1.727 1.399-4.105.454-6.15"></path>
  <path d="M17.523 13.21 16 7l-4.646-4.647c-.196-.195-.51-.192-.668.035C10.31 2.93 9.811 3.965 10.5 5c.244.365 2 2.5 2 2.5s1.049 6.287 1.236 7.283"></path>
</svg>