<svg width="80" height="80" fill="none" stroke="#5e5e5e" stroke-linecap="round" stroke-linejoin="round" stroke-width="2" viewBox="0 0 24 24" xmlns="http://www.w3.org/2000/svg">
  <path d="M12 20c5.523 0 10-3.582 10-8s-4.477-8-10-8S2 7.582 2 12s4.477 8 10 8Z"></path>
  <path d="M12 14c2.761 0 5-1.343 5-3s-2.239-3-5-3-5 1.343-5 3 2.239 3 5 3Z"></path>
  <path d="M12 8V4"></path>
  <path d="M16 9s1.313-2 3.5-2"></path>
  <path d="M8 9S7 7 4.5 7"></path>
  <path d="M9 13.5s-3 1-3.5 4.5"></path>
  <path d="M15 13.5s3.25 1 3.5 4.5"></path>
</svg>