<svg width="80" height="80" fill="none" stroke="#5e5e5e" stroke-linecap="round" stroke-linejoin="round" stroke-width="2" viewBox="0 0 24 24" xmlns="http://www.w3.org/2000/svg">
  <path d="M8 3H4a1 1 0 0 0-1 1v4"></path>
  <path d="M8 21H4a1 1 0 0 1-1-1v-4"></path>
  <path d="M16 21h4a1 1 0 0 0 1-1v-4"></path>
  <path d="M16 3h4a1 1 0 0 1 1 1v4"></path>
  <path d="M12 15.5a3.5 3.5 0 1 0 0-7 3.5 3.5 0 0 0 0 7Z"></path>
  <path d="M12 8.5v-2"></path>
  <path d="M12 17.5v-2"></path>
  <path d="M17.5 12h-2"></path>
  <path d="M8.5 12h-2"></path>
  <path fill="#5e5e5e" stroke="none" d="M12 13a1 1 0 1 0 0-2 1 1 0 0 0 0 2Z"></path>
</svg>