<svg width="80" height="80" fill="none" stroke="#5e5e5e" stroke-linecap="round" stroke-linejoin="round" stroke-width="2" viewBox="0 0 24 24" xmlns="http://www.w3.org/2000/svg">
  <path d="M3.5 3a1 1 0 0 1 1-1h15a1 1 0 0 1 1 1v18a1 1 0 0 1-1 1h-15a1 1 0 0 1-1-1V3Z"></path>
  <path d="M8 14.5h2"></path>
  <path d="M8 17.5h5"></path>
  <path d="M4 2.5S5.882 9 12 9s8-6.5 8-6.5"></path>
  <path d="M12 11a2 2 0 1 0 0-4 2 2 0 0 0 0 4Z"></path>
  <path d="M7.5 2h-3a1 1 0 0 0-1 1v3"></path>
  <path d="M16.5 2h3a1 1 0 0 1 1 1v3"></path>
</svg>