<svg width="80" height="80" fill="none" stroke="#5e5e5e" stroke-linecap="round" stroke-linejoin="round" stroke-width="2" viewBox="0 0 24 24" xmlns="http://www.w3.org/2000/svg">
  <path d="M2.5 4a1 1 0 0 1 1-1h6L12 6h8.5a1 1 0 0 1 1 1v13a1 1 0 0 1-1 1h-17a1 1 0 0 1-1-1V4Z"></path>
  <path d="M12 16a2 2 0 1 0 0-4 2 2 0 0 0 0 4Z"></path>
  <path d="M12 10.5V12"></path>
  <path d="M12 16v1.5"></path>
  <path d="m14.414 11.5-1.06 1.06"></path>
  <path d="m10.414 15.5-1.06 1.06"></path>
  <path d="m9.5 11.5 1.06 1.06"></path>
  <path d="m13.5 15.5 1.06 1.06"></path>
  <path d="M8.5 14H10"></path>
  <path d="M14 14h1.5"></path>
</svg>