<svg width="80" height="80" fill="none" stroke="#5e5e5e" stroke-linecap="round" stroke-linejoin="round" stroke-width="2" viewBox="0 0 24 24" xmlns="http://www.w3.org/2000/svg">
  <path d="M12 22c5.523 0 10-4.477 10-10S17.523 2 12 2 2 6.477 2 12s4.477 10 10 10Z"></path>
  <path d="m15.046 3.25-3.011 2.18v2.179l3.872 3.051 2.151-.872 1.29-3.487"></path>
  <path d="m9.023 3.25 3.012 2.18v2.179L8.163 10.66l-2.151-.872L4.72 6.301"></path>
  <path d="m3 11.096 3.012-1.308 2.15.872 1.291 4.795-1.29 1.743H4.29"></path>
  <path d="M8.163 20.25v-3.051l1.29-1.744h5.163l1.291 1.744v3.05"></path>
  <path d="M19.78 17.198h-3.873l-1.29-1.743 1.29-4.795 2.151-.872 3.442 1.744"></path>
</svg>