<svg width="80" height="80" fill="none" stroke="#5e5e5e" stroke-linecap="round" stroke-linejoin="round" stroke-width="2" viewBox="0 0 24 24" xmlns="http://www.w3.org/2000/svg">
  <path d="M12 12 9.5 9.5M12 4v8-8Zm0 8 2.5-2.5L12 12Z"></path>
  <path d="m12 12-2.5 2.5M12 20v-8 8Zm0-8 2.5 2.5L12 12Z"></path>
  <path d="M10 6a2 2 0 1 0 0-4 2 2 0 0 0 0 4Z"></path>
  <path d="M4 16a2 2 0 1 0 0-4 2 2 0 0 0 0 4Z"></path>
  <path d="M4 12h16"></path>
  <path d="M20 12a2 2 0 1 0 0-4 2 2 0 0 0 0 4Z"></path>
  <path d="M14 22a2 2 0 1 0 0-4 2 2 0 0 0 0 4Z"></path>
</svg>