<svg width="80" height="80" fill="none" stroke="#5e5e5e" stroke-linecap="round" stroke-linejoin="round" stroke-width="2" viewBox="0 0 24 24" xmlns="http://www.w3.org/2000/svg">
  <path d="M4 14v6h6"></path>
  <path d="M14 20h6v-6"></path>
  <path d="M20 10V4h-6"></path>
  <path d="M10 4H4v6"></path>
  <path d="M22 10h-4v4h4v-4Z"></path>
  <path d="M6 10H2v4h4v-4Z"></path>
  <path d="M14 18h-4v4h4v-4Z"></path>
  <path d="M14 2h-4v4h4V2Z"></path>
  <path d="M12 9v6"></path>
  <path d="M9 12h6"></path>
  <path d="m14 4 6 6"></path>
  <path d="m10 4-6 6"></path>
  <path d="m10 20-6-6"></path>
  <path d="m20 14-5.5 6"></path>
</svg>