<svg width="80" height="80" fill="none" stroke="#5e5e5e" stroke-linecap="round" stroke-linejoin="round" stroke-width="2" viewBox="0 0 24 24" xmlns="http://www.w3.org/2000/svg">
  <path d="M15.5 8.5 14 10m8-8s-5.205-.9-7 2c-1.336 2.158.5 4.5.5 4.5L22 2Zm0 0s.9 5.205-2 7c-2.158 1.336-4.5-.5-4.5-.5L22 2Zm0 0-6.5 6.5L22 2Z"></path>
  <path d="M15.5 15.5 14 14m8 8s-5.205.9-7-2c-1.336-2.158.5-4.5.5-4.5L22 22Zm0 0s.9-5.205-2-7c-2.158-1.336-4.5.5-4.5.5L22 22Zm0 0-6.5-6.5L22 22Z"></path>
  <path d="m8.632 8.5 1.5 1.5m-8-8s5.205-.9 7 2c1.336 2.158-.5 4.5-.5 4.5L2.132 2Zm0 0s-.9 5.205 2 7c2.158 1.336 4.5-.5 4.5-.5L2.132 2Zm0 0 6.5 6.5-6.5-6.5Z"></path>
  <path d="m8.632 15.5 1.5-1.5m-8 8s5.205.9 7-2c1.336-2.158-.5-4.5-.5-4.5l-6.5 6.5Zm0 0s-.9-5.205 2-7c2.158-1.336 4.5.5 4.5.5l-6.5 6.5Zm0 0 6.5-6.5-6.5 6.5Z"></path>
</svg>