<svg width="80" height="80" fill="none" stroke="#5e5e5e" stroke-linecap="round" stroke-linejoin="round" stroke-width="2" viewBox="0 0 24 24" xmlns="http://www.w3.org/2000/svg">
  <path d="M20 3H4a1 1 0 0 0-1 1v16a1 1 0 0 0 1 1h16a1 1 0 0 0 1-1V4a1 1 0 0 0-1-1Z"></path>
  <path d="M8.062 3 3 7.5"></path>
  <path d="M13.001 3 3 12"></path>
  <path d="M17.5 3 3 16.5"></path>
  <path d="m9.5 15-6 5.5"></path>
  <path d="m21 4.5-6.378 5.926"></path>
  <path d="M9.5 10.5V21"></path>
  <path d="M9.5 10.5H21"></path>
</svg>