<svg width="80" height="80" fill="none" stroke="#5e5e5e" stroke-linecap="round" stroke-linejoin="round" stroke-width="2" viewBox="0 0 24 24" xmlns="http://www.w3.org/2000/svg">
  <path d="M12 22c5.523 0 10-4.477 10-10S17.523 2 12 2 2 6.477 2 12s4.477 10 10 10Z"></path>
  <path d="M15.5 3.5V12"></path>
  <path d="m8.318 3.318 7.071 7.071"></path>
  <path d="M3.5 8.5H12"></path>
  <path d="M10.182 8.818 3.111 15.89"></path>
  <path d="M8.5 12.5V21"></path>
  <path d="m8.818 13.818 7.071 7.072"></path>
  <path d="M12 15.5h9"></path>
  <path d="m21.182 8.318-7.071 7.072"></path>
  <path d="M12 15.5a3.5 3.5 0 1 0 0-7 3.5 3.5 0 0 0 0 7Z"></path>
</svg>