<svg width="80" height="80" fill="none" stroke="#5e5e5e" stroke-linecap="round" stroke-linejoin="round" stroke-width="2" viewBox="0 0 24 24" xmlns="http://www.w3.org/2000/svg">
  <path d="M9.5 15v1.5a3.5 3.5 0 1 1-7 0v-7"></path>
  <path d="M14.5 15v1.5a3.5 3.5 0 1 0 7 0v-7"></path>
  <path d="M16 4H8a5.5 5.5 0 1 0 0 11h8a5.5 5.5 0 1 0 0-11Z"></path>
  <path d="M10.5 9.5h-4"></path>
  <path d="M8.5 7.5v4"></path>
  <path fill="#5e5e5e" stroke="none" d="M18 8.5a1 1 0 1 0-2 0 1 1 0 0 0 2 0Z"></path>
  <path fill="#5e5e5e" stroke="none" d="M16 11a1 1 0 1 0-2 0 1 1 0 0 0 2 0Z"></path>
</svg>