<svg width="80" height="80" fill="none" stroke="#5e5e5e" stroke-linecap="round" stroke-linejoin="round" stroke-width="2" viewBox="0 0 24 24" xmlns="http://www.w3.org/2000/svg">
  <path d="M18 2H6a1 1 0 0 0-1 1v18a1 1 0 0 0 1 1h12a1 1 0 0 0 1-1V3a1 1 0 0 0-1-1Z"></path>
  <path d="M8 17h4"></path>
  <path d="M10 15v4"></path>
  <path d="M16 5H8v4.5h8V5Z"></path>
  <path fill="#5e5e5e" stroke="none" d="M15.5 16a1 1 0 1 0 0-2 1 1 0 0 0 0 2Z"></path>
  <path fill="#5e5e5e" stroke="none" d="M15.5 20a1 1 0 1 0 0-2 1 1 0 0 0 0 2Z"></path>
</svg>