<svg width="80" height="80" fill="none" stroke="#5e5e5e" stroke-linecap="round" stroke-linejoin="round" stroke-width="2" viewBox="0 0 24 24" xmlns="http://www.w3.org/2000/svg">
  <path d="M11.5 2.5c-.573 2.23-.573 3.886 0 4.969.86 1.623 2.85 2.521.287 4.687-2.563 2.165-5.161.348-6.766.348-1.604 0-3.01 1.807-3.01 4.496 0 1.793.33 3.293.989 4.5"></path>
  <path d="M14.992 2.5c-.72 2.665-.557 4.354.493 5.07 1.573 1.073 1.694-1.168 4.585.165 2.892 1.333 2.14 5.98.477 8.373-1.663 2.392-5.213 4.81-8.543 4.392-3.33-.417-4.567-4.49-4.996-4.49-.429 0-1.334.013-1.51 1.699-.119 1.123.216 2.387 1.004 3.791"></path>
  <path d="M17.822 14.145c-.289.863-.777 1.524-1.465 2.005-.687.48-1.56.764-2.618.85"></path>
</svg>