<svg width="80" height="80" fill="none" stroke="#5e5e5e" stroke-linecap="round" stroke-linejoin="round" stroke-width="2" viewBox="0 0 24 24" xmlns="http://www.w3.org/2000/svg">
  <path d="M14.156 13.916c1.687-1.687.623-5.486-2.376-8.485-3-3-6.798-4.063-8.485-2.376C1.608 4.742 2.67 8.54 5.67 11.54c2.999 3 6.798 4.063 8.485 2.376Z"></path>
  <path d="M14.156 9.631c1.687 1.687.623 5.486-2.376 8.485-3 3-6.798 4.063-8.485 2.376-1.687-1.687-.624-5.486 2.376-8.485 2.999-3 6.798-4.063 8.485-2.376Z"></path>
  <path d="M9.844 13.916C8.157 12.229 9.221 8.43 12.22 5.43c3-3 6.798-4.063 8.485-2.376 1.687 1.687.624 5.486-2.376 8.485-2.999 3-6.798 4.063-8.485 2.376Z"></path>
  <path d="M9.844 9.631c-1.687 1.687-.623 5.486 2.376 8.485 3 3 6.798 4.063 8.485 2.376 1.687-1.687.624-5.486-2.376-8.485-2.999-3-6.798-4.063-8.485-2.376Z"></path>
</svg>