<svg width="80" height="80" fill="none" stroke="#5e5e5e" stroke-linecap="round" stroke-linejoin="round" stroke-width="2" viewBox="0 0 24 24" xmlns="http://www.w3.org/2000/svg">
  <path d="M3 4.5A1.5 1.5 0 0 1 4.5 3h15A1.5 1.5 0 0 1 21 4.5v15a1.5 1.5 0 0 1-1.5 1.5h-15A1.5 1.5 0 0 1 3 19.5v-15Z"></path>
  <path d="M2 12h20"></path>
  <path d="M12 22V2"></path>
  <path d="M3 15V9"></path>
  <path d="M21 15V9"></path>
  <path d="M15 21H9"></path>
  <path d="M15 3H9"></path>
  <path d="M12 12s3.949-1.773 4.55-2.374a1.538 1.538 0 1 0-2.176-2.175C13.773 8.05 12 12 12 12Zm0 0s-3.949-1.773-4.55-2.374L12 12Zm0 0s-1.773-3.949-2.374-4.55L12 12Zm0 0s3.948 1.773 4.55 2.374L12 12Zm0 0s1.773 3.949 2.374 4.55L12 12Zm0 0s-3.949 1.773-4.55 2.374a1.538 1.538 0 1 0 2.176 2.175C10.227 15.95 12 12 12 12Z"></path>
</svg>