<svg width="80" height="80" fill="none" stroke="#5e5e5e" stroke-linecap="round" stroke-linejoin="round" stroke-width="2" viewBox="0 0 24 24" xmlns="http://www.w3.org/2000/svg">
  <path d="M6 21a3.5 3.5 0 1 0 0-7 3.5 3.5 0 0 0 0 7Z"></path>
  <path d="M18 21a3.5 3.5 0 1 0 0-7 3.5 3.5 0 0 0 0 7Z"></path>
  <path d="M2.5 17V5.441c0-.695 0-1.043.189-1.305s.519-.372 1.179-.592L5.5 3"></path>
  <path d="M21.5 17V5.441c0-.695 0-1.043-.189-1.305s-.518-.372-1.178-.592L18.5 3"></path>
  <path d="M14.5 17a2.5 2.5 0 0 0-5 0"></path>
</svg>