<svg width="80" height="80" fill="none" stroke="#5e5e5e" stroke-linecap="round" stroke-linejoin="round" stroke-width="2" viewBox="0 0 24 24" xmlns="http://www.w3.org/2000/svg">
  <path d="m2.868 12.06 2.475 2.475a6.5 6.5 0 0 0 9.193-9.192L12.06 2.868"></path>
  <path d="m15 15 3 3"></path>
  <path d="M9.475 9.475c2.538-2.539 3.488-5.705 2.121-7.071-1.367-1.367-4.532-.418-7.07 2.12-2.54 2.54-3.489 5.705-2.122 7.072s4.532.417 7.07-2.121Z"></path>
  <path d="M20.06 20.06c1.172-1.171 1.647-2.596 1.061-3.181-.585-.586-2.01-.111-3.182 1.06-1.171 1.172-1.646 2.596-1.06 3.182.586.586 2.01.111 3.182-1.06Z"></path>
</svg>