<svg width="80" height="80" fill="none" stroke="#5e5e5e" stroke-linecap="round" stroke-linejoin="round" stroke-width="2" viewBox="0 0 24 24" xmlns="http://www.w3.org/2000/svg">
  <path d="M16.5 22h-10"></path>
  <path d="M11.5 14v8"></path>
  <path d="M17.5 8c0 .838-.178 1.642-.5 2.374-.926 2.11-3.04 3.626-5.5 3.626a6 6 0 0 1-6-6c0-1.186.267-2.306.605-3.25C6.694 3.109 7.5 2 7.5 2h8s.908 1.248 1.5 3.056c.287.876.5 1.883.5 2.944Z"></path>
  <path d="M17.5 8s-3.5 1.5-6 0-6 0-6 0"></path>
  <path d="M17 5.056c.287.876.5 1.883.5 2.944 0 .837-.178 1.642-.5 2.374"></path>
  <path d="M6.105 4.75C5.767 5.694 5.5 6.814 5.5 8c0 .943.218 1.835.605 2.629"></path>
</svg>