<svg width="80" height="80" fill="none" stroke="#5e5e5e" stroke-linecap="round" stroke-linejoin="round" stroke-width="2" viewBox="0 0 24 24" xmlns="http://www.w3.org/2000/svg">
  <path d="m17.956 20.772 2.685-9.5A1 1 0 0 0 19.678 10h-5.74a.547.547 0 0 1-.534-.67l.25-1.082c.23-.993.303-2.015.218-3.03l-.046-.552A2.51 2.51 0 0 0 13.1 3.1a2.048 2.048 0 0 0-1.448-.6h-.12a.904.904 0 0 0-.79.465l-1.33 2.392A6.481 6.481 0 0 1 6.85 7.9L3.521 9.716a1 1 0 0 0-.521.878V20.5a1 1 0 0 0 1 1h12.994a1 1 0 0 0 .962-.728Z"></path>
</svg>