<svg width="80" height="80" fill="none" stroke="#5e5e5e" stroke-linecap="round" stroke-linejoin="round" stroke-width="2" viewBox="0 0 24 24" xmlns="http://www.w3.org/2000/svg">
  <path d="M9 3.5H2.5v17H9v-17Z"></path>
  <path d="M20 6.5h-6.5A1.5 1.5 0 0 0 12 8v8a1.5 1.5 0 0 0 1.5 1.5H20a1.5 1.5 0 0 0 1.5-1.5V8A1.5 1.5 0 0 0 20 6.5Z"></path>
  <path d="M16.75 14a1.75 1.75 0 1 0 0-3.5 1.75 1.75 0 0 0 0 3.5Z"></path>
  <path d="M9 12h3"></path>
  <path fill="#5e5e5e" stroke="none" d="M7 8.75a1.25 1.25 0 1 0-2.5 0 1.25 1.25 0 0 0 2.5 0Z"></path>
</svg>