<svg width="80" height="80" fill="none" stroke="#5e5e5e" stroke-linecap="round" stroke-linejoin="round" stroke-width="2" viewBox="0 0 24 24" xmlns="http://www.w3.org/2000/svg">
  <path d="M12 7a2.5 2.5 0 1 0 0-5 2.5 2.5 0 0 0 0 5Z"></path>
  <path d="M12 22a2.5 2.5 0 1 0 0-5 2.5 2.5 0 0 0 0 5Z"></path>
  <path d="M7 9.5H2v5h5v-5Z"></path>
  <path d="M22 9.5h-5v5h5v-5Z"></path>
  <path d="M9.5 4.5h-5v5"></path>
  <path d="M9.5 19.5h-5v-5"></path>
  <path d="M14.5 4.5H20v5"></path>
  <path d="M14.5 19.5h5v-5"></path>
</svg>