<svg width="80" height="80" fill="none" stroke="#5e5e5e" stroke-linecap="round" stroke-linejoin="round" stroke-width="2" viewBox="0 0 24 24" xmlns="http://www.w3.org/2000/svg">
  <path d="M9.098 15.712c1.562 1.562 5.361.296 8.486-2.828 3.124-3.124 4.39-6.923 2.828-8.486"></path>
  <path d="m13.695 3.338.707.707"></path>
  <path d="m11.22 5.813.707.707"></path>
  <path d="m9.098 8.642.707.707"></path>
  <path d="m8.391 12.177.707.707"></path>
  <path d="m17.584 2.277.707.707"></path>
  <path d="m16.877 6.52 1.414 1.414"></path>
  <path d="m14.402 8.995 1.414 1.414"></path>
  <path d="m11.573 11.116 1.414 1.415"></path>
  <path d="M9.098 17.833a1.5 1.5 0 1 0-2.12-2.121l-2.83 2.829a1.5 1.5 0 1 0 2.122 2.12l2.828-2.828Z"></path>
</svg>