<svg width="80" height="80" fill="none" stroke="#5e5e5e" stroke-linecap="round" stroke-linejoin="round" stroke-width="2" viewBox="0 0 24 24" xmlns="http://www.w3.org/2000/svg">
  <path d="M19.424 2.67c-3.482.614-7.292 3.44-8.767 7.29-1.613 4.208-2.049 4.67-4.015 5.734C4.75 16.718 2.3 17.537 2.3 17.537"></path>
  <path d="M4.819 16.554c2.11-1.27 4.854.042 6.083.902 1.228.86 2.478.82 3.195-.204.717-1.024.328-2.212-.901-3.073-.82-.573-3.563-1.884-2.54-4.219"></path>
  <path d="M21.594 4.8c-5.161 1.269-7.21 2.887-9.217 8.805"></path>
  <path d="M10.492 17.169c-.39.846-1.147 2.859-1.065 4.137"></path>
</svg>