<svg width="80" height="80" fill="none" stroke="#5e5e5e" stroke-linecap="round" stroke-linejoin="round" stroke-width="2" viewBox="0 0 24 24" xmlns="http://www.w3.org/2000/svg">
  <path d="M5.5 6.069c0-.04.03-.073.069-.078L16.04 4.639a4.396 4.396 0 1 1 0 8.72L5.57 12.01a.079.079 0 0 1-.069-.079V6.07Z"></path>
  <path d="M5.5 6 2 4v10l3.5-2"></path>
  <path d="m19 12.5-3.347 7.95A2.534 2.534 0 0 1 13.317 22c-1.812 0-3.04-1.847-2.336-3.518l2.52-5.982"></path>
  <path d="M17.5 13.5a4.5 4.5 0 1 0 0-9 4.5 4.5 0 0 0 0 9Z"></path>
</svg>