<svg width="80" height="80" fill="none" stroke="#5e5e5e" stroke-linecap="round" stroke-linejoin="round" stroke-width="2" viewBox="0 0 24 24" xmlns="http://www.w3.org/2000/svg">
  <path d="m9.597 10.771 1.159 9.277a1.737 1.737 0 0 1-3.446.43l-1.187-9.494"></path>
  <path d="M6.5 2a4.5 4.5 0 0 0 0 9c.789 0 1.87-.088 3.097-.228l6.201-1.011L22 8.75v-4.5l-7.75-1.125L6.5 2Z"></path>
  <path d="M18.5 4.1v4.8"></path>
  <path d="m22 8.75-6.202 1.01"></path>
  <path d="m22 4.25-7.75-1.125"></path>
  <path d="M8 6.5a1.5 1.5 0 1 1-3 0 1.5 1.5 0 0 1 3 0Z"></path>
</svg>