<svg width="80" height="80" fill="none" stroke="#5e5e5e" stroke-linecap="round" stroke-linejoin="round" stroke-width="2" viewBox="0 0 24 24" xmlns="http://www.w3.org/2000/svg">
  <path d="M12 14a2 2 0 1 0 0-4 2 2 0 0 0 0 4Z"></path>
  <path d="M8.682 7a6.025 6.025 0 0 0-1.726 1.75"></path>
  <path d="M6.099 13.09a6.037 6.037 0 0 1 0-2.18"></path>
  <path d="M8.682 17a6.03 6.03 0 0 1-1.726-1.75"></path>
  <path d="M13.18 17.884a6.034 6.034 0 0 1-2.36 0"></path>
  <path d="M15.318 17a6.03 6.03 0 0 0 1.726-1.75"></path>
  <path d="M17.901 13.09a6.032 6.032 0 0 0 0-2.18"></path>
  <path d="M15.318 7a6.025 6.025 0 0 1 1.726 1.75"></path>
  <path d="M10.82 6.116a6.027 6.027 0 0 1 2.36 0"></path>
  <path d="M20.876 16.61a9.962 9.962 0 0 0 .69-1.686M22 12a10.106 10.106 0 0 0-.2-2l.2 2ZM2 12a10.118 10.118 0 0 1 .2-2L2 12Zm17.323 6.81a10.052 10.052 0 0 1-1.398 1.247l1.398-1.247Zm-14.646 0a10.051 10.051 0 0 0 1.398 1.247L4.677 18.81Zm3.18-15.914a9.97 9.97 0 0 0-1.782 1.047l1.781-1.047Zm8.287 0a9.97 9.97 0 0 1 1.78 1.047l-1.78-1.047Zm-3.02-.834a10.107 10.107 0 0 0-2.247 0h2.246Zm0 19.876a9.985 9.985 0 0 0 2.126-.478l-2.127.478Zm-2.247 0a9.985 9.985 0 0 1-2.127-.478l2.127.478Zm-6.8-16.04a10.03 10.03 0 0 0-.953 1.492l.953-1.493Zm15.846 0a10.049 10.049 0 0 1 .953 1.492l-.953-1.493ZM3.123 16.61a9.944 9.944 0 0 1-.689-1.686l.69 1.686Z"></path>
</svg>