<svg width="80" height="80" fill="none" stroke="#5e5e5e" stroke-linecap="round" stroke-linejoin="round" stroke-width="2" viewBox="0 0 24 24" xmlns="http://www.w3.org/2000/svg">
  <path d="M20 11v-.5a8 8 0 1 0-16 0v.5"></path>
  <path d="M4 17s-1 2.5 1 3.5 12 1 14 0 1-3.5 1-3.5"></path>
  <path d="M18 10.5H6a3.5 3.5 0 1 0 0 7h12a3.5 3.5 0 1 0 0-7Z"></path>
  <path d="m5.5 14.5.796-.398A2.998 2.998 0 0 1 8.75 14l.212.085A2.49 2.49 0 0 0 11 14a2.49 2.49 0 0 1 2.038-.085l.48.192c.624.25 1.326.221 1.928-.08a2.356 2.356 0 0 1 2.108 0l.946.473"></path>
  <path fill="#5e5e5e" stroke="none" d="M8.5 8.775a1.25 1.25 0 1 0 0-2.5 1.25 1.25 0 0 0 0 2.5Z"></path>
  <path fill="#5e5e5e" stroke="none" d="M11.875 7.4a1.25 1.25 0 1 0 0-2.5 1.25 1.25 0 0 0 0 2.5Z"></path>
</svg>