<svg width="80" height="80" fill="none" stroke="#5e5e5e" stroke-linecap="round" stroke-linejoin="round" stroke-width="2" viewBox="0 0 24 24" xmlns="http://www.w3.org/2000/svg">
  <path d="M9 5h12a1 1 0 0 1 1 1v13a1 1 0 0 1-1 1H9"></path>
  <path d="M2 6a1 1 0 0 1 1-1h6v15H3a1 1 0 0 1-1-1V6Z"></path>
  <path d="M5.5 8.5v2"></path>
  <path d="m18.5 8-6 8.5"></path>
  <path fill="#5e5e5e" stroke="none" d="M6.5 13.5a1 1 0 1 0-2 0 1 1 0 0 0 2 0Z"></path>
  <path fill="#5e5e5e" stroke="none" d="M6.5 16.5a1 1 0 1 0-2 0 1 1 0 0 0 2 0Z"></path>
</svg>