<svg width="80" height="80" fill="none" stroke="#5e5e5e" stroke-linejoin="round" stroke-width="2" viewBox="0 0 24 24" xmlns="http://www.w3.org/2000/svg">
  <path d="M3.527 5h11V2h-11v3Z"></path>
  <path d="M14.527 5c3.259 3.561 5.13 5.625 5.61 6.192.722.85.419 1.81-1.387 1.81s-2.848-2.643-4.223-2.643c-.009-.001-.01 3.378-.002 10.139A1.5 1.5 0 0 1 13.026 22h-.002c-.83 0-1.502-.672-1.502-1.502v-4.005c-3.986-.604-6.153-.938-6.502-1-.522-.094-1.494-.593-1.494-2.027V5h11Z" clip-rule="evenodd"></path>
</svg>