<svg width="80" height="80" fill="none" stroke="#5e5e5e" stroke-linecap="round" stroke-linejoin="round" stroke-width="2" viewBox="0 0 24 24" xmlns="http://www.w3.org/2000/svg">
  <path d="M7 7a3 3 0 0 1 3-3h4.5a3 3 0 0 1 3 3v1H7V7Z"></path>
  <path d="m2 12.5 9.758 2.44a1 1 0 0 0 .485 0L22 12.5V19a1 1 0 0 1-1 1H3a1 1 0 0 1-1-1v-6.5Z"></path>
  <path d="M22 13.5V9a1 1 0 0 0-1-1H3a1 1 0 0 0-1 1v4.5"></path>
  <path fill="#5e5e5e" stroke="none" d="M13.25 11.5a1.25 1.25 0 1 1-2.5 0 1.25 1.25 0 0 1 2.5 0Z"></path>
</svg>