<svg width="80" height="80" fill="none" stroke="#5e5e5e" stroke-linecap="round" stroke-linejoin="round" stroke-width="2" viewBox="0 0 24 24" xmlns="http://www.w3.org/2000/svg">
  <path d="M4.792 13.591c-.858.586-1.287 1.556-1.287 2.91C3.505 18.53 6 22 8.25 22h5.758c2.203 0 3.54-1.926 3.54-3.47V12.3c0-.897-.725-1.625-1.622-1.627a1.618 1.618 0 0 0-1.622 1.613v.056"></path>
  <path d="M5.49 14.723V3.83a1.609 1.609 0 0 1 3.218 0v7.993"></path>
  <path d="M8.708 12V9.904a1.402 1.402 0 1 1 2.804 0v2.31"></path>
  <path d="M11.5 12.33v-1.426a1.402 1.402 0 1 1 2.804 0v1.598"></path>
  <path d="M5.5 4h15"></path>
  <path d="m18 6.25.833-.75L20.5 4l-1.667-1.5L18 1.75"></path>
</svg>