<svg width="80" height="80" fill="none" stroke="#5e5e5e" stroke-linejoin="round" stroke-width="2" viewBox="0 0 24 24" xmlns="http://www.w3.org/2000/svg">
  <path d="M5.013 20.486v-11h-3v11h3Z"></path>
  <path d="M5.013 9.487c3.562-3.26 5.626-5.13 6.192-5.61.85-.722 1.81-.42 1.81 1.387 0 1.806-2.642 2.847-2.642 4.223-.002.008 3.378.009 10.138.002a1.5 1.5 0 0 1 1.502 1.499v.001c0 .83-.672 1.502-1.502 1.502h-4.005c-.604 3.987-.937 6.154-1 6.502-.094.522-.592 1.494-2.027 1.494H5.013v-11Z" clip-rule="evenodd"></path>
</svg>