<svg width="80" height="80" fill="none" stroke="#5e5e5e" stroke-linecap="round" stroke-linejoin="round" stroke-width="2" viewBox="0 0 24 24" xmlns="http://www.w3.org/2000/svg">
  <path d="M12 22c5.523 0 10-4.477 10-10S17.523 2 12 2 2 6.477 2 12s4.477 10 10 10Z"></path>
  <path d="M14.5 21.5a2.5 2.5 0 0 0-5 0"></path>
  <path d="M7.75 21.055C9.04 21.66 10.48 22 12 22s2.96-.339 4.25-.945"></path>
  <path fill="#5e5e5e" stroke="none" d="M7.5 9a1.5 1.5 0 1 0 0-3 1.5 1.5 0 0 0 0 3Z"></path>
  <path fill="#5e5e5e" stroke="none" d="M5.5 13a1.5 1.5 0 1 0 0-3 1.5 1.5 0 0 0 0 3Z"></path>
  <path fill="#5e5e5e" stroke="none" d="M12 7a1.5 1.5 0 1 0 0-3 1.5 1.5 0 0 0 0 3Z"></path>
  <path fill="#5e5e5e" stroke="none" d="M16.5 9a1.5 1.5 0 1 0 0-3 1.5 1.5 0 0 0 0 3Z"></path>
  <path fill="#5e5e5e" stroke="none" d="M18.5 13a1.5 1.5 0 1 0 0-3 1.5 1.5 0 0 0 0 3Z"></path>
</svg>