<svg width="80" height="80" fill="none" stroke="#5e5e5e" stroke-linecap="round" stroke-linejoin="round" stroke-width="2" viewBox="0 0 24 24" xmlns="http://www.w3.org/2000/svg">
  <path d="M2 8a1 1 0 0 1 1-1h18a1 1 0 0 1 1 1v4.323c0 .409-.25.778-.59 1.007-.61.413-1.513 1.245-1.81 2.676-.113.54-.548.994-1.1.994h-13c-.552 0-.987-.453-1.1-.994-.297-1.431-1.2-2.263-1.81-2.676-.34-.229-.59-.598-.59-1.007V8Z"></path>
  <path d="M7 14h10"></path>
  <path d="M7 14v-1.5"></path>
  <path d="M10.5 14v-1.5"></path>
  <path d="M13.5 14v-1.5"></path>
  <path d="M17 14v-1.5"></path>
  <path d="M5.5 10h1"></path>
  <path d="M9.5 10h1"></path>
  <path d="M13.5 10h1"></path>
  <path d="M17.5 10h1"></path>
</svg>