<svg width="80" height="80" fill="none" stroke="#5e5e5e" stroke-linecap="round" stroke-linejoin="round" stroke-width="2" viewBox="0 0 24 24" xmlns="http://www.w3.org/2000/svg">
  <path d="M3 16.5v3A1.5 1.5 0 0 0 4.5 21h3"></path>
  <path d="M16.5 21h3a1.5 1.5 0 0 0 1.5-1.5v-3"></path>
  <path d="M21 7.5v-3A1.5 1.5 0 0 0 19.5 3h-3"></path>
  <path d="M3 7.5v-3A1.5 1.5 0 0 1 4.5 3h3"></path>
  <path d="m17 12-5 5-5-5c-.5-.5-.75-1.5 0-2.5s2.25-1 3-.5 1 1 2 1 1.25-.5 2-1 2.25-.5 3 .5.5 2 0 2.5Z"></path>
</svg>