<svg width="80" height="80" fill="none" stroke="#5e5e5e" stroke-linecap="round" stroke-linejoin="round" stroke-width="2" viewBox="0 0 24 24" xmlns="http://www.w3.org/2000/svg">
  <path d="M7.27 10.01c-.844-1.038-1.636-1.26-2.377-.669-1.112.888-1.43 3.984-.536 6.714C5.25 18.784 6.99 22.5 10.5 22.5s4.341-3.74 5.773-6c1.432-2.262 2.19-4.443.786-7.16"></path>
  <path d="M5.5 9.019A322.208 322.208 0 0 0 3.5 6c-.723-1.072 1.126-2.459 2-1.516.583.629 1.357 1.555 2.323 2.779"></path>
  <path d="M7.512 12.82c-.242-3.032-.045-5.006.591-5.922.955-1.375 2.729-1.896 4.399-1.896.994 0 1.902.424 2.724 1.27"></path>
  <path d="M20.5 6.307c.293 1.018-.185 1.948-1.658 2.159-1.472.21-2.576.951-3.373 1.574-.796.623-2.22 2.513-2.501 3.462-.281.948-1.888.076-2.32-.303-.431-.379-.855-1.208 0-2.076.856-.867.671-1.04.671-1.92 0-.88 4.681-3.79 7.317-4.056.586-.034 1.571.142 1.864 1.16Z" clip-rule="evenodd"></path>
  <path d="M11.504 2v2.631"></path>
  <path d="M10.153 5.359c-1.509-1.897-2.725-2.955-3.65-3.175"></path>
  <path d="m8.502 3.514.495-2.034"></path>
  <path d="M17.806 5.358c-.16.553-.16 1.07 0 1.554.162.483.507 1 1.036 1.553"></path>
</svg>