<svg width="80" height="80" fill="none" stroke="#5e5e5e" stroke-linecap="round" stroke-linejoin="round" stroke-width="2" viewBox="0 0 24 24" xmlns="http://www.w3.org/2000/svg">
  <path d="M14.121 5.636 5.636 14.12a1 1 0 0 0 0 1.414l2.828 2.829a1 1 0 0 0 1.414 0l8.486-8.486a1 1 0 0 0 0-1.414l-2.829-2.828a1 1 0 0 0-1.414 0Z"></path>
  <path d="M3.515 20.486 7.05 16.95"></path>
  <path d="m16.95 7.05 3.536-3.535"></path>
  <path d="m7.404 12.354 4.243 4.242"></path>
  <path d="m9.879 9.879 4.243 4.242"></path>
  <path d="m12.354 7.403 4.242 4.243"></path>
  <path d="m6.344 13.414 7.07-7.071"></path>
  <path d="m10.586 17.657 7.071-7.071"></path>
</svg>