<svg width="80" height="80" fill="none" stroke="#5e5e5e" stroke-linecap="round" stroke-linejoin="round" stroke-width="2" viewBox="0 0 24 24" xmlns="http://www.w3.org/2000/svg">
  <path d="M12 22a9.97 9.97 0 0 0 7.071-2.929A9.97 9.97 0 0 0 22 12a9.969 9.969 0 0 0-2.929-7.071A9.969 9.969 0 0 0 12 2a9.969 9.969 0 0 0-7.071 2.929A9.969 9.969 0 0 0 2 12a9.969 9.969 0 0 0 2.929 7.071A9.969 9.969 0 0 0 12 22Z"></path>
  <path d="M12 14.313v-2a3 3 0 1 0-3-3"></path>
  <path fill="#5e5e5e" fill-rule="evenodd" stroke="none" d="M12 18.813a1.25 1.25 0 1 0 0-2.5 1.25 1.25 0 0 0 0 2.5Z" clip-rule="evenodd"></path>
</svg>