<svg width="80" height="80" fill="none" stroke="#5e5e5e" stroke-linecap="round" stroke-linejoin="round" stroke-width="2" viewBox="0 0 24 24" xmlns="http://www.w3.org/2000/svg">
  <path d="m18 2-2.885 13.705a1 1 0 0 1-.98.795H4.5c-.83 0-1.5.67-1.5 1.5v.775a2.997 2.997 0 0 0 3.215 2.99l8.53-.61a2.998 2.998 0 0 0 2.72-2.375L21 2h-3Z"></path>
  <path d="M7.5 8c2.21 0 4-.672 4-1.5S9.71 5 7.5 5s-4 .672-4 1.5S5.29 8 7.5 8Z"></path>
  <path d="M11.5 6.5v3c0 .83-1.79 1.5-4 1.5s-4-.67-4-1.5v-3"></path>
</svg>