<svg width="80" height="80" fill="none" stroke="#5e5e5e" stroke-linecap="round" stroke-width="2" viewBox="0 0 24 24" xmlns="http://www.w3.org/2000/svg">
  <path d="M7.307 2.421 4.962 4.766A1.658 1.658 0 0 0 7.307 7.11L9.65 4.766A1.658 1.658 0 0 0 7.307 2.42Z"></path>
  <path d="M12.386 6.72 9.26 9.846a1.658 1.658 0 1 0 2.345 2.345l3.126-3.126a1.658 1.658 0 1 0-2.345-2.345Z"></path>
  <path d="m14.34 9.455 6.885 6.885c.514.514.406 1.455-.242 2.103-.647.647-1.588.755-2.102.242L11.996 11.8"></path>
  <path d="m11.214 3.202-5.47 5.471a1.658 1.658 0 1 0 2.344 2.345l5.47-5.471a1.658 1.658 0 0 0-2.344-2.345Z"></path>
  <path d="M6.927 11.571c.712 2.219.593 3.858-.355 4.917-1.424 1.59-1.202 5.583 2.013 5.583 3.216 0 4.16-3.993 1.436-5.394"></path>
</svg>