<svg width="80" height="80" fill="none" stroke="#5e5e5e" stroke-linecap="round" stroke-linejoin="round" stroke-width="2" viewBox="0 0 24 24" xmlns="http://www.w3.org/2000/svg">
  <path d="m5.589 3.374-2.43 2.519a1 1 0 0 0 .025 1.414l.36.347a1 1 0 0 0 1.414-.025l2.43-2.52a1 1 0 0 0-.025-1.413l-.36-.347a1 1 0 0 0-1.414.025Z"></path>
  <path d="m12.785 10.317-2.43 2.519a1 1 0 0 0 .025 1.414l.36.347a1 1 0 0 0 1.414-.025l2.43-2.519a1 1 0 0 0-.025-1.414l-.36-.347a1 1 0 0 0-1.414.025Z"></path>
  <path d="M8.43 4.03 3.915 8.708a1 1 0 0 0 .025 1.414l.36.347a1 1 0 0 0 1.414-.025l4.514-4.678a1 1 0 0 0-.026-1.414l-.36-.347a1 1 0 0 0-1.414.025Z"></path>
  <path d="M12.028 7.502 7.514 12.18a1 1 0 0 0 .026 1.414l.36.347a1 1 0 0 0 1.414-.025l4.513-4.678a1 1 0 0 0-.025-1.414l-.36-.347a1 1 0 0 0-1.414.025Z"></path>
  <path d="m11.617 4.327-7.29 7.556a1 1 0 0 0 .025 1.414l.36.347a1 1 0 0 0 1.414-.025l7.29-7.556a1 1 0 0 0-.025-1.414l-.36-.348a1 1 0 0 0-1.414.026Z"></path>
  <path d="m12.501 14.212 2.083-2.16 7.204 6.95-2.084 2.16-7.203-6.95Z"></path>
  <path d="M10.5 20.125c0 1.035-.895 1.875-2 1.875s-2-.84-2-1.875c0-1.035 2-3.125 2-3.125s2 2.09 2 3.125Z"></path>
</svg>