<svg width="80" height="80" fill="none" stroke="#5e5e5e" stroke-linecap="round" stroke-linejoin="round" stroke-width="2" viewBox="0 0 24 24" xmlns="http://www.w3.org/2000/svg">
  <path d="M19.5 9.176c0 4.751-4 8.824-7.5 8.824s-7.5-4.073-7.5-8.824C4.5 5.326 7.446 2 12 2c4.553 0 7.5 3.327 7.5 7.176Z"></path>
  <path d="M12.5 2c1.85 1.91 3.5 5.06 3.5 8 0 2.903-1.69 6.096-3.5 8"></path>
  <path d="M11.5 2C9.342 4.044 8 6.853 8 10c0 3.108 1.388 5.962 3.5 8"></path>
  <path d="M11 8.009s2.533.509 4.5 0S19 6.5 19 6.5"></path>
  <path d="M4.5 10S7 11.25 9 11.75s4 .25 4 .25"></path>
  <path d="m15 17.5-.003.015L15 17.5Zm-.003.015-.697 3.533S12.937 22 12 22c-.938 0-2.3-.952-2.3-.952L9 17.5l3 .5 2.997-.485Z"></path>
</svg>