<svg width="80" height="80" fill="none" stroke="#5e5e5e" stroke-linecap="round" stroke-linejoin="round" stroke-width="2" viewBox="0 0 24 24" xmlns="http://www.w3.org/2000/svg">
  <path d="M2 2h20"></path>
  <path d="M19 2H5a1 1 0 0 0-1 1v18a1 1 0 0 0 1 1h14a1 1 0 0 0 1-1V3a1 1 0 0 0-1-1Z"></path>
  <path d="M10 16h4v6h-4v-6Z"></path>
  <path d="M7.5 6h1"></path>
  <path d="M7.5 9h1"></path>
  <path d="M11.5 6h1"></path>
  <path d="M11.5 9h1"></path>
  <path d="M15.5 6h1"></path>
  <path d="M15.5 9h1"></path>
  <path d="M2 22h20"></path>
  <path d="M14 16h1c.276 0 .505-.226.452-.497C15.176 14.083 13.735 13 12 13c-1.736 0-3.176 1.083-3.452 2.503-.053.271.176.497.452.497h1"></path>
</svg>