<svg width="80" height="80" fill="#5e5e5e" viewBox="0 0 24 24" xmlns="http://www.w3.org/2000/svg">
  <path d="M17.696 8.02c-1.642-.348-2.786-1.79-2.81-3.457h-2.538v10.223a2.151 2.151 0 0 1-2.189 2.065c-1.17-.025-2.09-.995-2.09-2.164a2.15 2.15 0 0 1 2.14-2.114c.224 0 .423.024.622.099V10.06c-.2-.025-.423-.025-.622-.025h-.1c-2.587.075-4.627 2.19-4.577 4.776a4.688 4.688 0 0 0 4.751 4.602 4.703 4.703 0 0 0 4.652-4.701v-5.2a6.065 6.065 0 0 0 3.557 1.145V8.095c-.298 0-.547-.025-.796-.075Z"></path>
  <path d="M16.975 22h-9.95A5.027 5.027 0 0 1 2 16.975v-9.95A5.011 5.011 0 0 1 7.025 2h9.95A5.027 5.027 0 0 1 22 7.025v9.95C22 19.736 19.736 22 16.975 22ZM7.05 2.224A4.83 4.83 0 0 0 2.224 7.05v9.875a4.83 4.83 0 0 0 4.826 4.826h9.875a4.83 4.83 0 0 0 4.826-4.826V7.05a4.83 4.83 0 0 0-4.826-4.826H7.05Z"></path>
  <path d="M18.07 17.87v-.223c0-.025.024-.025.024-.025.025 0 .299.249.299.249"></path>
  <path d="M10.21 16.602a1.89 1.89 0 0 0 1.89-1.816v-.796a9.874 9.874 0 0 0-1.443-.497c-.05-.025-.1-.025-.15-.025v.149c0 1.12-.322 2.04-.845 2.886.15.05.324.074.498.074 0 .025.024.025.05.025Z"></path>
  <path d="M18.27 17.77c-.026-.024-.1-.049-.125-.024-.05.025-.075.05-.075.1a6.28 6.28 0 0 1-.522 2.263c.025-.074-.125-.373-.15-.448-.05-.149-.099-.298-.174-.447a13.491 13.491 0 0 0-.398-.87 11.31 11.31 0 0 0-1.02-1.568 6.793 6.793 0 0 0-.82-.87c-.548 2.114-2.438 3.706-4.727 3.73h-.05a4.94 4.94 0 0 1-2.686-.795c-.174.149-.373.298-.547.447a7.096 7.096 0 0 1-1.07-1.492.353.353 0 0 1-.05-.15c-.05.05-.1.075-.149.125a14.424 14.424 0 0 0-2.313 2.637l.174.174c.025-.025.05-.075.074-.1l.622.548.398.174c-.05.025-.074.074-.124.1.074.049.15.074.224.124.05-.05.1-.075.149-.125l.92.423 2.264.15h7.488c0 .024 0 .05-.025.074h1.02l.074-.075c0-.024.025-.024.025-.05l1.368-.124 1.368-.572.92-.696c.026.05.05.074.076.124l.174-.174a15.156 15.156 0 0 0-2.314-2.612Z"></path>
  <path d="M10.259 19.388a4.688 4.688 0 0 0 4.527-3.681 10.975 10.975 0 0 0-1.865-1.319l-.597-.298v.671c-.05 1.145-.995 2.065-2.14 2.065h-.05c-.223 0-.422-.05-.621-.124-.473.696-1.095 1.343-1.791 1.94a4.696 4.696 0 0 0 2.487.721c0 .025.025.025.05.025Zm-1.095-1.79c-.024 0 0 0 0 0Z"></path>
</svg>