<svg width="80" height="80" fill="none" stroke="#5e5e5e" stroke-linecap="round" stroke-linejoin="round" stroke-width="2" viewBox="0 0 24 24" xmlns="http://www.w3.org/2000/svg">
  <path d="M2 3h20v11H2V3Z"></path>
  <path d="M22 14v4H2v-4"></path>
  <path fill="#5e5e5e" stroke="none" d="M6.545 9h-1.09A.455.455 0 0 0 5 9.455v1.09c0 .252.204.455.455.455h1.09A.455.455 0 0 0 7 10.546V9.455A.455.455 0 0 0 6.545 9Z"></path>
  <path fill="#5e5e5e" stroke="none" d="M6.545 6h-1.09A.455.455 0 0 0 5 6.455v1.09c0 .252.204.455.455.455h1.09A.455.455 0 0 0 7 7.545v-1.09A.455.455 0 0 0 6.545 6Z"></path>
  <path fill="#5e5e5e" stroke="none" d="M10.546 9H9.455A.455.455 0 0 0 9 9.455v1.09c0 .252.204.455.455.455h1.09a.455.455 0 0 0 .455-.454V9.455A.455.455 0 0 0 10.546 9Z"></path>
  <path fill="#5e5e5e" stroke="none" d="M10.546 6H9.455A.455.455 0 0 0 9 6.455v1.09c0 .252.204.455.455.455h1.09A.455.455 0 0 0 11 7.545v-1.09A.455.455 0 0 0 10.546 6Z"></path>
  <path fill="#5e5e5e" stroke="none" d="M14.546 9h-1.091a.455.455 0 0 0-.455.455v1.09c0 .252.204.455.454.455h1.091a.455.455 0 0 0 .455-.454V9.455A.455.455 0 0 0 14.546 9Z"></path>
  <path fill="#5e5e5e" stroke="none" d="M14.546 6h-1.091a.455.455 0 0 0-.455.455v1.09c0 .252.204.455.454.455h1.091A.455.455 0 0 0 15 7.545v-1.09A.455.455 0 0 0 14.546 6Z"></path>
  <path fill="#5e5e5e" stroke="none" d="M18.546 6h-1.091a.455.455 0 0 0-.455.455v1.09c0 .252.203.455.454.455h1.091A.455.455 0 0 0 19 7.545v-1.09A.455.455 0 0 0 18.546 6Z"></path>
  <path d="M10.423 18 8 21h8l-2.423-3"></path>
</svg>