<svg width="80" height="80" fill="none" stroke="#5e5e5e" stroke-linecap="round" stroke-linejoin="round" stroke-width="2" viewBox="0 0 24 24" xmlns="http://www.w3.org/2000/svg">
  <path d="m9.421 6.861 6.718 6.718-10.3 6.671-3.022-3.023L9.42 6.861Z"></path>
  <path d="M19.386 9.755c-.53.53-.88.535-1.406.715-.016 1.398.003 2.805-1.77 3.152L9.302 6.716S9.297 6.03 10 5.672c.247-.116.749-.061 1.048-.013.703-1.512 1.768-1.767 2.951-1.278.568-.86 1.97-1.225 3.014-.888 1.045.337 1.037 1.036 1.731 1.378.695.341 1.402-.366 1.407-.716.004-.35-.058-1.018.413-.896.288.077.52.357.798 1.522.156.653.065 1.62-.493 2.214-.343.364-1.108.555-1.458.663.033.096.506 1.567-.025 2.097Z"></path>
  <path d="M19.41 7.658c-1.405.715-2.45.378-3.486-.658"></path>
</svg>