<svg width="80" height="80" fill="none" stroke="#5e5e5e" stroke-linecap="round" stroke-linejoin="round" stroke-width="2" viewBox="0 0 24 24" xmlns="http://www.w3.org/2000/svg">
  <path d="M6 20c0-3.59 2.686-6.5 6-6.5s6 2.91 6 6.5"></path>
  <path d="M6.5 18.5c0 .5 1.25 1 2 .5s.98-1.753 1.75-1.537c.77.215.75 1.787 1.75 2.537s2.75.5 3.5-.75-.04-1.588.53-2.399c.38-.54.866-.408.97-.351"></path>
  <path d="M11.5 10.5h1"></path>
  <path d="m16.076 11.235.848.53"></path>
  <path d="m7.076 11.765.848-.53"></path>
  <path d="m19.53 14.067.5.866"></path>
  <path d="m4.03 14.933.5-.866"></path>
  <path d="m20.947 18.503.105.994"></path>
  <path d="m2.447 19.497.105-.994"></path>
  <path d="M21 5 4.5 9"></path>
  <path d="m8 3.5 6.5 3-6 1.5L6 4.5l2-1Z"></path>
  <path d="M4.5 9 3 7"></path>
</svg>