<svg width="80" height="80" fill="none" stroke="#5e5e5e" stroke-linecap="round" stroke-width="2" viewBox="0 0 24 24" xmlns="http://www.w3.org/2000/svg">
  <path d="M12 22a9.969 9.969 0 0 0 7.071-2.929A9.969 9.969 0 0 0 22 12a9.969 9.969 0 0 0-2.929-7.071A9.969 9.969 0 0 0 12 2a9.969 9.969 0 0 0-7.071 2.929A9.969 9.969 0 0 0 2 12a9.969 9.969 0 0 0 2.929 7.071A9.969 9.969 0 0 0 12 22Z" clip-rule="evenodd"></path>
  <path d="M12 19a6.978 6.978 0 0 0 4.95-2.05A6.978 6.978 0 0 0 19 12"></path>
</svg>