<svg width="80" height="80" fill="none" stroke="#5e5e5e" stroke-linecap="round" stroke-width="2" viewBox="0 0 24 24" xmlns="http://www.w3.org/2000/svg">
  <path d="M12 22c5.523 0 10-4.477 10-10S17.523 2 12 2 2 6.477 2 12s4.477 10 10 10Z"></path>
  <path d="M3 15.492c1.316.528 2.263.528 2.842 0 .868-.791.119-3.194 1.335-3.856 1.215-.663 3.067 2.274 4.798 1.308 1.731-.966-.163-3.543 1.039-4.588 1.2-1.045 2.763.134 3.036-1.613.273-1.747-1.274-.99-1.57-2.64-.199-1.1-.199-1.679 0-1.736"></path>
  <path d="M14.51 21.676c-.937-.96-1.274-1.85-1.011-2.675.393-1.236 1.042-1.162 1.325-1.927.284-.764-.516-1.852 1.258-2.782 1.183-.62 2.81.098 4.88 2.156"></path>
</svg>