<svg width="80" height="80" fill="none" stroke="#5e5e5e" stroke-linecap="round" stroke-linejoin="round" stroke-width="2" viewBox="0 0 24 24" xmlns="http://www.w3.org/2000/svg">
  <path d="M2 9.156V3.5h20v5.656a2.75 2.75 0 0 0-1.818 2.594A2.75 2.75 0 0 0 22 14.344V20H2v-5.656a2.75 2.75 0 0 0 1.818-2.594A2.75 2.75 0 0 0 2 9.156Z"></path>
  <path d="M6.5 9v5.5"></path>
  <path d="M9 9v5.5"></path>
  <path d="M9 9h1.5a1.5 1.5 0 1 1 0 3H9V9Z"></path>
  <path d="M16 14.5c.828 0 1.5-1.12 1.5-2.5s-.672-2.5-1.5-2.5-1.5 1.12-1.5 2.5.672 2.5 1.5 2.5Z"></path>
</svg>