<svg width="80" height="80" fill="none" stroke="#5e5e5e" stroke-linecap="round" stroke-linejoin="round" stroke-width="2" viewBox="0 0 24 24" xmlns="http://www.w3.org/2000/svg">
  <path d="M18 6H5v12h13V6Z"></path>
  <path d="M13.5 12a2 2 0 1 0-4 0 2 2 0 0 0 4 0Z"></path>
  <path d="M7.5 6a.49.49 0 0 1 .012-.108l.804-3.5A.513.513 0 0 1 8.82 2h5.372c.242 0 .452.163.504.392l.804 3.5"></path>
  <path d="M7.5 18c0 .037.004.073.012.108l.804 3.5A.513.513 0 0 0 8.82 22h5.372a.513.513 0 0 0 .504-.392l.804-3.5"></path>
  <path d="M19.5 8v2"></path>
</svg>