<svg width="80" height="80" fill="none" stroke="#5e5e5e" stroke-linecap="round" stroke-linejoin="round" stroke-width="2" viewBox="0 0 24 24" xmlns="http://www.w3.org/2000/svg">
  <path d="M16.5 6h-9a1 1 0 0 0-1 1v10a1 1 0 0 0 1 1h9a1 1 0 0 0 1-1V7a1 1 0 0 0-1-1Z"></path>
  <path d="M12 6v3"></path>
  <path d="M10.5 6h3"></path>
  <path d="M12 15v3"></path>
  <path d="M10.5 18h3"></path>
  <path d="m17.5 11.967-3 .033"></path>
  <path d="M17.5 10.5v3"></path>
  <path d="m9.5 12-3 .033"></path>
  <path d="M6.5 10.5v3"></path>
  <path d="M15.5 6V2h-7v4"></path>
  <path d="M15.5 18v3.5a.5.5 0 0 1-.5.5H9a.5.5 0 0 1-.5-.5V18"></path>
  <path d="M3.5 10v4"></path>
  <path d="M20.5 10v4"></path>
</svg>