<svg width="80" height="80" fill="#5e5e5e" viewBox="0 0 24 24" xmlns="http://www.w3.org/2000/svg">
  <path d="M18.442 22H5.556A3.562 3.562 0 0 1 2 18.442V5.556A3.561 3.561 0 0 1 5.556 2h12.886a3.561 3.561 0 0 1 3.556 3.556v12.886A3.559 3.559 0 0 1 18.442 22ZM5.556 2.151a3.41 3.41 0 0 0-3.405 3.405v12.886a3.41 3.41 0 0 0 3.408 3.407h12.885a3.41 3.41 0 0 0 3.407-3.407V5.556a3.41 3.41 0 0 0-3.407-3.407H5.556v.002Z"></path>
  <path d="M22 17.398 2 18.444V6.603l20-1.046v11.84Z"></path>
  <path d="m9.585 7.96-1.23.064c-.031 2.446-.065 3.823-.506 4.81-.448.999-1.402 1.828-3.305 3.477l-.245.21 1.937-.102c3.156-2.783 3.281-3.388 3.35-8.459Z"></path>
  <path d="M7.45 9.944v-1.21l-2.735-.248v1.209l2.736.249Z"></path>
  <path d="M4.715 10.532v1.21l2.736.25v-1.21l-2.736-.25Z"></path>
  <path d="m11.723 13.69-7.722.403V13.01l7.722-.405v1.085Z"></path>
  <path d="m19.99 13.258-7.723.404v-1.084l7.724-.405v1.085Z"></path>
  <path d="m19.563 8.794-5.622.294V8.003l5.622-.294v1.085Z"></path>
  <path d="m10.53 14.295-1.485.077 1.193 1.84 1.485-.076-1.193-1.841Z"></path>
  <path d="m18.806 13.862-1.483.077 1.194 1.841L20 15.703l-1.194-1.84Z"></path>
  <path d="m14.949 14.063-1.485.078-1.194 1.965 1.486-.077 1.193-1.966Z"></path>
  <path d="m16.75 15.872-1.259.066v-4.147l1.26-.064v4.145Z"></path>
  <path d="M18.429 7.769v.76c-.716.614-2.163 1.656-6.162 2.536v1.157c4.858-1.044 6.516-2.514 7.294-3.252V7.71l-1.132.06Z"></path>
  <path d="M13.681 8.697c-.053-.036-.104-.072-.153-.104l-1.047.684s.467.339.518.373c.855.588 2.417 1.662 6.992 2.169v-1.157c-4.156-.482-5.543-1.438-6.31-1.965Z"></path>
  <path d="m12.481 9.277 1.06.637 1.271-1.956-1.163-.481-1.168 1.8Z"></path>
</svg>