<svg width="80" height="80" fill="none" stroke="#5e5e5e" stroke-linecap="round" stroke-linejoin="round" stroke-width="2" viewBox="0 0 24 24" xmlns="http://www.w3.org/2000/svg">
  <path d="M12 22c5.523 0 10-4.477 10-10S17.523 2 12 2 2 6.477 2 12s4.477 10 10 10Z"></path>
  <path fill="#5e5e5e" fill-rule="evenodd" stroke="none" d="M7.5 9.5a1.25 1.25 0 1 0 0-2.5 1.25 1.25 0 0 0 0 2.5Z" clip-rule="evenodd"></path>
  <path fill="#5e5e5e" fill-rule="evenodd" stroke="none" d="M7.5 13.5a1.25 1.25 0 1 0 0-2.5 1.25 1.25 0 0 0 0 2.5Z" clip-rule="evenodd"></path>
  <path fill="#5e5e5e" fill-rule="evenodd" stroke="none" d="M12 9.5A1.25 1.25 0 1 0 12 7a1.25 1.25 0 0 0 0 2.5Z" clip-rule="evenodd"></path>
  <path fill="#5e5e5e" fill-rule="evenodd" stroke="none" d="M12 13.5a1.25 1.25 0 1 0 0-2.5 1.25 1.25 0 0 0 0 2.5Z" clip-rule="evenodd"></path>
  <path fill="#5e5e5e" fill-rule="evenodd" stroke="none" d="M16.5 9.5a1.25 1.25 0 1 0 0-2.5 1.25 1.25 0 0 0 0 2.5Z" clip-rule="evenodd"></path>
  <path fill="#5e5e5e" fill-rule="evenodd" stroke="none" d="M16.5 13.5a1.25 1.25 0 1 0 0-2.5 1.25 1.25 0 0 0 0 2.5Z" clip-rule="evenodd"></path>
  <path d="M8.5 16.5h7"></path>
</svg>