<svg width="80" height="80" fill="#5e5e5e" viewBox="0 0 24 24" xmlns="http://www.w3.org/2000/svg">
  <path fill-rule="evenodd" d="M20.536 2.997 1.656 8.26l4.537 4.647 4.207.074 4.842-4.72c-.128-.263-.193-.482-.193-.66 0-.396.156-.71.399-.933.414-.382.913-.44 1.497-.172l3.591-3.498Z" clip-rule="evenodd"></path>
  <path fill-rule="evenodd" d="m21.051 3.364-5.262 18.88-4.647-4.537-.073-4.207 4.687-4.76c.254.183.532.265.832.248.451-.025.743-.297.88-.458.137-.16.297-.427.284-.824a1.282 1.282 0 0 0-.261-.732l3.56-3.61Z" clip-rule="evenodd"></path>
</svg>