<svg width="80" height="80" fill="none" stroke="#5e5e5e" stroke-linecap="round" stroke-linejoin="round" stroke-width="2" viewBox="0 0 24 24" xmlns="http://www.w3.org/2000/svg">
  <path d="M5 7v3"></path>
  <path d="M7 5h3"></path>
  <path d="M5 17v-3"></path>
  <path d="M7 19h3"></path>
  <path d="M19 17v-3"></path>
  <path d="M17 19h-3"></path>
  <path d="M19 7v3"></path>
  <path d="M17 5h-3"></path>
  <path d="M8.5 12h7"></path>
  <path d="M12 15.5v-7"></path>
  <path d="M5 7a2 2 0 1 0 0-4 2 2 0 0 0 0 4Z"></path>
  <path d="M19 7a2 2 0 1 1 0-4 2 2 0 0 1 0 4Z"></path>
  <path d="M19 17a2 2 0 1 0 0 4 2 2 0 0 0 0-4Z"></path>
  <path d="M5 17a2 2 0 1 1 0 4 2 2 0 0 1 0-4Z"></path>
</svg>