<svg width="80" height="80" fill="none" stroke="#5e5e5e" stroke-linecap="round" stroke-linejoin="round" stroke-width="2" viewBox="0 0 24 24" xmlns="http://www.w3.org/2000/svg">
  <path d="M19.071 19.071c3.905-3.905 3.905-10.237 0-14.142-3.905-3.905-10.237-3.905-14.142 0-3.905 3.905-3.905 10.237 0 14.142 3.905 3.905 10.237 3.905 14.142 0ZM16.243 7.757a6 6 0 1 1-8.485 8.486 6 6 0 0 1 8.485-8.486Z" clip-rule="evenodd"></path>
  <path d="m19.071 19.07-2.828-2.828"></path>
  <path d="m4.929 19.07 2.828-2.828"></path>
  <path d="m4.929 4.929 2.828 2.828"></path>
  <path d="m19.071 4.929-2.828 2.828"></path>
  <path d="M16.243 16.243a6 6 0 1 0-8.486-8.486 6 6 0 0 0 8.486 8.486Z"></path>
</svg>