<svg width="80" height="80" fill="none" stroke="#5e5e5e" stroke-linecap="round" stroke-linejoin="round" stroke-width="2" viewBox="0 0 24 24" xmlns="http://www.w3.org/2000/svg">
  <path d="M3 22h18"></path>
  <path d="M8.5 10h7"></path>
  <path d="M9.5 10h5L16 22H8l1.5-12Z"></path>
  <path d="m9.5 4.5 1 5.5h3l1-5.5"></path>
  <path d="m16 6-1.5-1.5L12 2 9.5 4.5 8 6"></path>
  <path d="M18.5 3.5 20 2"></path>
  <path d="M5.5 3.5 4 2"></path>
  <path d="M18.5 9.5 20 11"></path>
  <path d="M5.5 9.5 4 11"></path>
  <path d="M19 6.5h2"></path>
  <path d="M5 6.5H3"></path>
  <path d="M9 14h6"></path>
  <path d="M8.5 18h7"></path>
  <path d="M14.5 10 16 22"></path>
  <path d="M9.5 10 8 22"></path>
</svg>