<svg width="80" height="80" fill="none" stroke="#5e5e5e" stroke-linecap="round" stroke-width="2" viewBox="0 0 24 24" xmlns="http://www.w3.org/2000/svg">
  <path d="M15.095 2h-6.19a1 1 0 0 0-.995.9l-.9 9a1.003 1.003 0 0 0 0 .2l.9 9a1 1 0 0 0 .995.9h6.19a1 1 0 0 0 .995-.9l.9-9a1.003 1.003 0 0 0 0-.2l-.9-9a1 1 0 0 0-.995-.9Z"></path>
  <path d="M7 12h10"></path>
  <path d="M12 2v20"></path>
  <path d="M10 2h4"></path>
  <path d="M10 22h4"></path>
  <path d="m7.5 7-.49 4.9a1.003 1.003 0 0 0 0 .2L7.5 17"></path>
  <path d="m16.5 7 .49 4.9a.955.955 0 0 1 0 .2L16.5 17"></path>
</svg>