<svg width="80" height="80" fill="none" stroke="#5e5e5e" stroke-linecap="round" stroke-linejoin="round" stroke-width="2" viewBox="0 0 24 24" xmlns="http://www.w3.org/2000/svg">
  <path d="m21.546 5.99-3.535-3.536a1 1 0 0 0-1.414 0l-4.95 4.95a1 1 0 0 0 0 1.414l3.535 3.536a1 1 0 0 0 1.415 0l4.95-4.95a1 1 0 0 0 0-1.414Z"></path>
  <path d="m12.354 15.182-3.536-3.535a1 1 0 0 0-1.414 0l-4.95 4.95a1 1 0 0 0 0 1.413l3.536 3.536a1 1 0 0 0 1.414 0l4.95-4.95a1 1 0 0 0 0-1.414Z"></path>
  <path d="m15.536 8.465-7.07 7.07"></path>
</svg>