<svg width="80" height="80" fill="none" stroke="#5e5e5e" stroke-linecap="round" stroke-linejoin="round" stroke-width="2" viewBox="0 0 24 24" xmlns="http://www.w3.org/2000/svg">
  <path d="M18.107 17.156A7.973 7.973 0 0 1 13 19c-.117 0-.233-.002-.346-.01a7.977 7.977 0 0 1-5.31-2.336A7.96 7.96 0 0 1 5 11a7.96 7.96 0 0 1 2.344-5.656A7.964 7.964 0 0 1 13 3a7.963 7.963 0 0 1 5.656 2.343 7.894 7.894 0 0 1 1.936 3.127 8.079 8.079 0 0 1 .346 3.538 8.106 8.106 0 0 1-.35 1.536c-.513 1.51-1.182 2.532-2.48 3.612Z"></path>
  <path d="M11.053 9.744a1.736 1.736 0 0 1 1.85-1.607 2.048 2.048 0 0 1 1.422.708c.364.42.543.952.504 1.505a2.477 2.477 0 0 1-.853 1.71 2.49 2.49 0 0 1-1.814.605 3.032 3.032 0 0 1-2.81-3.232 3.697 3.697 0 0 1 3.94-3.424 4.494 4.494 0 0 1 3.098 1.543 4.483 4.483 0 0 1 1.099 3.28 5.521 5.521 0 0 1-1.9 3.804A5.512 5.512 0 0 1 11.951 16c-.132 0-.263-.004-.4-.013-1.393-.096-2.712-.368-3.801-1.237A6.77 6.77 0 0 1 5.5 11.5"></path>
  <path d="m7 17-4 4.243"></path>
</svg>