<svg width="80" height="80" fill="none" stroke="#5e5e5e" stroke-linecap="round" stroke-linejoin="round" stroke-width="2" viewBox="0 0 24 24" xmlns="http://www.w3.org/2000/svg">
  <path d="M9.122 11.132C8.976 8.654 8.39 7.37 7.36 7.282 5.7 7.14 3.155 9.855 2.4 13.669c-.754 3.814-.381 6.546.606 6.73.987.185 2.422-.89 3.102-.89.681 0 3.04.521 3.04-.421v-4.052"></path>
  <path d="M14.812 11.185c.14-2.513.729-3.814 1.765-3.902 1.66-.143 4.205 2.571 4.96 6.385.754 3.814.381 6.546-.606 6.73-.987.185-2.422-.89-3.102-.89-.681 0-3.04.521-3.04-.421v-4.052"></path>
  <path d="M10.278 2.5v7.455c-.022 1.146-.978 1.719-2.868 1.719"></path>
  <path d="M13.646 2.5v7.455c.022 1.146.978 1.719 2.868 1.719"></path>
  <path d="M7.5 15.035c1.978 0 3.478-.47 4.5-1.409 1.03.94 2.534 1.409 4.514 1.409"></path>
</svg>