<svg width="80" height="80" fill="none" stroke="#5e5e5e" stroke-linecap="round" stroke-linejoin="round" stroke-width="2" viewBox="0 0 24 24" xmlns="http://www.w3.org/2000/svg">
  <path d="M22 19V5a1 1 0 0 0-1-1H3a1 1 0 0 0-1 1v14a1 1 0 0 0 1 1h18a1 1 0 0 0 1-1Z"></path>
  <path d="M12.5 4s-2.5 5-2 8.5h3L14 20"></path>
  <path d="M17 20h-6"></path>
  <path d="M15 4H9"></path>
  <path d="M17 8v1"></path>
  <path d="M7 8v1"></path>
  <path d="M6.5 14.5S8.595 16 12 16s5.5-1.5 5.5-1.5"></path>
</svg>