<svg width="80" height="80" fill="none" stroke="#5e5e5e" stroke-linecap="round" stroke-linejoin="round" stroke-width="2" viewBox="0 0 24 24" xmlns="http://www.w3.org/2000/svg">
  <path d="M12 21.5c5.247 0 9.5-4.03 9.5-9h-4L16 14l-1.5-1.5h-12c0 4.97 4.253 9 9.5 9Z"></path>
  <path d="M20.473 12.5c.061-.408 0-.825 0-1.25 0-4.556-3.682-8.75-8.224-8.75-1.911 0-4.169.654-5.565 1.752.211.367.332.793.332 1.248a2.496 2.496 0 0 1-3.002 2.448c-.315.874-.486 2.318-.486 3.302 0 .425-.062.842 0 1.25"></path>
  <path d="M3 15.5h5"></path>
</svg>