<svg width="80" height="80" fill="none" stroke="#5e5e5e" stroke-linecap="round" stroke-linejoin="round" stroke-width="2" viewBox="0 0 24 24" xmlns="http://www.w3.org/2000/svg">
  <path d="M22 12v8.41c0 .602-.448 1.09-1 1.09H3c-.552 0-1-.488-1-1.09V12l10 6.5L22 12Z"></path>
  <path d="m22 11.892-5-3.446M2 11.892l5-3.446-5 3.446Z"></path>
  <path d="M17 2.5H7v12.207a1 1 0 0 0 .455.839l4 2.6a1 1 0 0 0 1.09 0l4-2.6a1 1 0 0 0 .455-.839V2.5Z"></path>
  <path d="M10 6.5h2"></path>
  <path d="M10 9.5h4"></path>
</svg>