<svg width="80" height="80" fill="none" stroke="#5e5e5e" stroke-linecap="round" stroke-linejoin="round" stroke-width="2" viewBox="0 0 24 24" xmlns="http://www.w3.org/2000/svg">
  <path d="M19.65 3H4.35A1.35 1.35 0 0 0 3 4.35v15.3c0 .746.604 1.35 1.35 1.35h15.3A1.35 1.35 0 0 0 21 19.65V4.35A1.35 1.35 0 0 0 19.65 3Z"></path>
  <path d="M18 13.5 14.5 15"></path>
  <path d="M10.5 16.5 7 18"></path>
  <path d="M8 14.5c1-1.448 1.5-2.448 1.5-3a1.5 1.5 0 1 0-3 0c0 .552.5 1.552 1.5 3Z"></path>
  <path d="M16 11c1-1.448 1.5-2.448 1.5-3a1.5 1.5 0 1 0-3 0c0 .552.5 1.552 1.5 3Z"></path>
</svg>