<svg width="80" height="80" fill="none" stroke="#5e5e5e" stroke-linecap="round" stroke-width="2" viewBox="0 0 24 24" xmlns="http://www.w3.org/2000/svg">
  <path d="M9 11.5a1.5 1.5 0 1 0 0-3 1.5 1.5 0 0 0 0 3Z"></path>
  <path d="M15 11.5a1.5 1.5 0 1 0 0-3 1.5 1.5 0 0 0 0 3Z"></path>
  <path d="M12 17.5c1.38 0 2.5-.672 2.5-1.5 0-.829-1.12-1.5-2.5-1.5s-2.5.671-2.5 1.5c0 .828 1.12 1.5 2.5 1.5Z"></path>
  <path d="M5.636 19.071a9.018 9.018 0 0 0 2.919 2.17 8.201 8.201 0 0 0 6.89 0 9.017 9.017 0 0 0 2.919-2.17"></path>
  <path d="M20.317 15.827c.44-1.179.683-2.472.683-3.827 0-1.356-.243-2.65-.683-3.828"></path>
  <path d="M3.683 8.172A10.939 10.939 0 0 0 3 12c0 1.355.243 2.648.683 3.827"></path>
  <path d="M18.364 4.929a9.016 9.016 0 0 0-2.92-2.17A8.201 8.201 0 0 0 12 2C9.514 2 7.264 3.12 5.636 4.929"></path>
</svg>