<svg width="80" height="80" fill="none" stroke="#5e5e5e" stroke-linecap="round" stroke-linejoin="round" stroke-width="2" viewBox="0 0 24 24" xmlns="http://www.w3.org/2000/svg">
  <path d="M20 2.5H4A1.5 1.5 0 0 0 2.5 4v16A1.5 1.5 0 0 0 4 21.5h16a1.5 1.5 0 0 0 1.5-1.5V4A1.5 1.5 0 0 0 20 2.5Z"></path>
  <path d="M9 12V7.826C9 7.217 9.6 6 12 6s3 1.217 3 1.826V12"></path>
  <path d="M8 12v3h8v-3"></path>
  <path d="M6 10v2h12v-2"></path>
  <path d="M9 18h6"></path>
  <path d="M12 15v3"></path>
</svg>