<svg width="80" height="80" fill="none" stroke="#5e5e5e" stroke-linecap="round" stroke-linejoin="round" stroke-width="2" viewBox="0 0 24 24" xmlns="http://www.w3.org/2000/svg">
  <path d="M4.5 7.5V4.782c0-.446.044-.607.125-.77a.882.882 0 0 1 .355-.378c.152-.088.304-.134.722-.134h12.596c.418 0 .57.046.722.134a.883.883 0 0 1 .355.378c.081.163.125.324.125.77V7.5"></path>
  <path d="M2.5 7.5h19v13h-19v-13Z"></path>
  <path fill="#5e5e5e" fill-rule="evenodd" stroke="none" d="M6.5 13a1.5 1.5 0 1 0 0-3 1.5 1.5 0 0 0 0 3Z" clip-rule="evenodd"></path>
  <path d="M2.784 20.195 7.5 15l2.5 2 3-3.5 8.197 6.695"></path>
</svg>