<svg width="80" height="80" fill="none" stroke="#5e5e5e" stroke-linecap="round" stroke-linejoin="round" stroke-width="2" viewBox="0 0 24 24" xmlns="http://www.w3.org/2000/svg">
  <path d="m10.498 18-.951-2.005 2.555-.209a1.89 1.89 0 0 0 0-3.782H7.999c-1.695 0-3.499 1.788-3.499 3.517 0 1.729.394 2.72.823 3.648.43.929 1.575 2.83 4.685 2.83h4.47c2.624 0 4.522-2.427 4.516-5.5"></path>
  <path d="M7.003 12V5c0-.827.67-1.498 1.498-1.498h.002c.829.001 1.5.673 1.5 1.502"></path>
  <path d="M13.004 10.01v-.5a1.5 1.5 0 0 1 3 0v.5"></path>
  <path d="m12.977 12 .02-8.5A1.496 1.496 0 0 0 11.504 2"></path>
  <path d="m16.007 8 .008 4.525c0 1.447-.67 1.946-2.011 1.496"></path>
  <path d="M17.505 6.502A1.495 1.495 0 0 1 18.998 8c-.007 3.751-.008 6.585-.004 8.5"></path>
  <path d="M17.502 6.502c-.826 0-1.495.67-1.495 1.495"></path>
  <path d="M11.5 2c-.828 0-1.492.672-1.492 1.5v8.02"></path>
</svg>