<svg width="80" height="80" fill="none" stroke="#5e5e5e" stroke-linecap="round" stroke-linejoin="round" stroke-width="2" viewBox="0 0 24 24" xmlns="http://www.w3.org/2000/svg">
  <path d="M14.5 2.5h-8a2 2 0 0 0-2 2v1a2 2 0 0 0 2 2h8a2 2 0 0 0 2-2v-1a2 2 0 0 0-2-2Z"></path>
  <path d="M10.5 2.5v4"></path>
  <path d="M7.5 2.5v4"></path>
  <path d="M13.5 2.5v4"></path>
  <path d="M13.5 20H4a1 1 0 0 1-1-1V8.5a1 1 0 0 1 1-1h13a1 1 0 0 1 1 1V13"></path>
  <path d="M17 16v2h2"></path>
  <path d="M17.5 22a4.5 4.5 0 1 0 0-9 4.5 4.5 0 0 0 0 9Z"></path>
  <path d="M6.5 2.5h8"></path>
  <path d="M6.5 7.5h8"></path>
</svg>