<svg width="80" height="80" fill="none" stroke="#5e5e5e" stroke-linecap="round" stroke-linejoin="round" stroke-width="2" viewBox="0 0 24 24" xmlns="http://www.w3.org/2000/svg">
  <path d="M4 3v18a1 1 0 0 0 1 1h14a1 1 0 0 0 1-1V6.805a1 1 0 0 0-.302-.717L15.79 2.284A1 1 0 0 0 15.094 2H5a1 1 0 0 0-1 1Z"></path>
  <path d="M20 10.5H4"></path>
  <path d="M20 14.5h-5"></path>
  <path d="M20 18h-5"></path>
  <path d="M15 22V10.5"></path>
  <path d="M9 22V10.5"></path>
  <path d="M9 16.5H4"></path>
</svg>