<svg width="80" height="80" fill="none" stroke="#5e5e5e" stroke-linecap="round" stroke-linejoin="round" stroke-width="2" viewBox="0 0 24 24" xmlns="http://www.w3.org/2000/svg">
  <path d="M10 7V2.5a.5.5 0 0 0-.5-.5h-7a.5.5 0 0 0-.5.5v19a.5.5 0 0 0 .5.5h7a.5.5 0 0 0 .5-.5V17"></path>
  <path d="M14 17v4.5a.5.5 0 0 0 .5.5h7a.5.5 0 0 0 .5-.5v-19a.5.5 0 0 0-.5-.5h-7a.5.5 0 0 0-.5.5V7"></path>
  <path d="M14 12h8"></path>
  <path d="M2.5 12H10"></path>
  <path d="m16.374 14.409-.795-.796-1.591-1.59 1.59-1.592.796-.795"></path>
  <path d="m7.688 14.409.795-.796 1.591-1.59-1.591-1.592-.796-.795"></path>
</svg>