<svg width="80" height="80" fill="none" stroke="#5e5e5e" stroke-linecap="round" stroke-linejoin="round" stroke-width="2" viewBox="0 0 24 24" xmlns="http://www.w3.org/2000/svg">
  <path d="M22 13c0-1.32-.365-2.554-1-3.608A7.037 7.037 0 0 0 18.608 7 6.968 6.968 0 0 0 15 6a6.996 6.996 0 0 0-7 7 6.996 6.996 0 0 0 7 7c1.32 0 2.554-.365 3.608-1A7.037 7.037 0 0 0 21 16.608 6.968 6.968 0 0 0 22 13Z"></path>
  <path d="M8.5 4.5H4V7h4.5V4.5Z"></path>
  <path d="M5 11v4"></path>
  <path d="M12 13a3 3 0 0 1 3-3"></path>
  <path d="M18 13a3 3 0 0 1-3 3"></path>
  <path d="M21 16.607V19h-2.393"></path>
  <path d="M21 9.392V7h-2.393"></path>
  <path d="M11.392 7H2v12h9.392"></path>
</svg>