<svg width="80" height="80" fill="none" stroke="#5e5e5e" stroke-linecap="round" stroke-linejoin="round" stroke-width="2" viewBox="0 0 24 24" xmlns="http://www.w3.org/2000/svg">
  <path d="M21 3H3a1 1 0 0 0-1 1v13a1 1 0 0 0 1 1h18a1 1 0 0 0 1-1V4a1 1 0 0 0-1-1Z"></path>
  <path d="M19 7.5h-2"></path>
  <path d="M19 10.5h-2"></path>
  <path d="M13.5 7.5H5v6h8.5v-6Z"></path>
  <path fill="#5e5e5e" stroke="none" d="M18 14.5a1 1 0 1 0 0-2 1 1 0 0 0 0 2Z"></path>
  <path d="M6 18v3"></path>
  <path d="M18 18v3"></path>
</svg>