<svg width="80" height="80" fill="none" stroke="#5e5e5e" stroke-linecap="round" stroke-linejoin="round" stroke-width="2" viewBox="0 0 24 24" xmlns="http://www.w3.org/2000/svg">
  <path d="m14.501 9.187.553-.553.265-.265a2.75 2.75 0 1 0-3.89-3.889l-6.843 6.844a.071.071 0 0 0 0 .101l3.485 3.485a.5.5 0 0 0 .707 0l1.856-1.856.553-.553"></path>
  <path d="m14.081 3.242.884-.884a1.75 1.75 0 0 1 2.475 2.475l-.884.884-2.475-2.475Z"></path>
  <path d="M5.243 12.081 3.12 14.202l2.475 2.475 2.122-2.121-2.475-2.475Z"></path>
  <path d="M11.43 12.612a2.25 2.25 0 1 0 3.182-3.182 2.25 2.25 0 0 0-3.182 3.182Z"></path>
  <path d="m3 10 6.364 6.364"></path>
  <path d="M5 22h16"></path>
  <path d="M15.5 11c2 0 4 2 4 5 0 3.2-2.583 4.917-4 6"></path>
</svg>