<svg width="80" height="80" fill="none" stroke="#5e5e5e" stroke-linecap="round" stroke-linejoin="round" stroke-width="2" viewBox="0 0 24 24" xmlns="http://www.w3.org/2000/svg">
  <path d="M2.5 6v10a1 1 0 0 0 1 1h17a1 1 0 0 0 1-1V6a1 1 0 0 0-1-1h-17a1 1 0 0 0-1 1Z"></path>
  <path d="M10 9.5h2"></path>
  <path d="M6.5 12.5h11"></path>
  <path d="M6 17v2"></path>
  <path d="M10 17v2"></path>
  <path d="M14 17v2"></path>
  <path d="M18 17v2"></path>
  <path fill="#5e5e5e" stroke="none" d="M7.5 9.5a1 1 0 1 1-2 0 1 1 0 0 1 2 0Z"></path>
</svg>