<svg width="80" height="80" fill="none" stroke="#5e5e5e" stroke-linecap="round" stroke-linejoin="round" stroke-width="2" viewBox="0 0 24 24" xmlns="http://www.w3.org/2000/svg">
  <path d="M7.486 13.488c-1.66.295-2.49 1.3-2.49 3.012 0 2.57 2.576 5.5 4.9 5.5h5.944c2.274 0 3.655-1.925 3.655-3.47v-6.525a1.5 1.5 0 0 0-1.5-1.5h-.004c-.826 0-1.496.67-1.496 1.495"></path>
  <path d="M7.486 15.02v-4.514c0-.829.672-1.501 1.501-1.501h.002c.83 0 1.503.674 1.503 1.504v2.002"></path>
  <path d="M10.492 12.004V3.508a1.508 1.508 0 0 1 3.015 0v8.496"></path>
  <path d="M13.495 11.858v-1.356a1.5 1.5 0 1 1 3 0v1.5"></path>
</svg>