<svg width="80" height="80" fill="none" stroke="#5e5e5e" stroke-linecap="round" stroke-linejoin="round" stroke-width="2" viewBox="0 0 24 24" xmlns="http://www.w3.org/2000/svg">
  <path d="M2.5 4a1 1 0 0 1 1-1h17a1 1 0 0 1 1 1v12a1 1 0 0 1-1 1h-17a1 1 0 0 1-1-1V4Z"></path>
  <path d="M2.5 13a1 1 0 0 1 1-1h17a1 1 0 0 1 1 1v3a1 1 0 0 1-1 1h-17a1 1 0 0 1-1-1v-3Z"></path>
  <path d="M11 6 9 8.5"></path>
  <path d="m14 7-1.5 2"></path>
  <path fill="#5e5e5e" stroke="none" d="M12 15.5a1 1 0 1 0 0-2 1 1 0 0 0 0 2Z"></path>
  <path d="M8.5 17 7 21h10l-1.5-4"></path>
</svg>