<svg width="80" height="80" fill="#5e5e5e" viewBox="0 0 24 24" xmlns="http://www.w3.org/2000/svg">
  <path d="M22 18h-4v4h4v-4Z"></path>
  <path d="M14 18h-4v4h4v-4Z"></path>
  <path d="M6 18H2v4h4v-4Z"></path>
  <path d="M22 10h-4v4h4v-4Z"></path>
  <path d="M14 10h-4v4h4v-4Z"></path>
  <path d="M6 10H2v4h4v-4Z"></path>
  <path d="M22 2h-4v4h4V2Z"></path>
  <path d="M14 2h-4v4h4V2Z"></path>
  <path d="M6 2H2v4h4V2Z"></path>
  <path d="M10 6H6v4h4V6Z"></path>
  <path d="M10 14H6v4h4v-4Z"></path>
  <path d="M18 6h-4v4h4V6Z"></path>
  <path d="M18 14h-4v4h4v-4Z"></path>
</svg>