<svg width="80" height="80" fill="none" stroke="#5e5e5e" stroke-linecap="round" stroke-width="2" viewBox="0 0 24 24" xmlns="http://www.w3.org/2000/svg">
  <path d="M8.494 2c.06 3.125-.102 5.293-.485 6.505-.576 1.817-4.968 6.876-4.968 9.546 0 2.67 3.152 4.144 4.854 3.138"></path>
  <path d="M16 2c-.111 3.125.024 5.293.408 6.505.575 1.817 5.071 6.22 5.071 9.141 0 2.922-3.256 4.549-4.958 3.543"></path>
  <path d="M6.503 17.417c.855-.486 1.598-.486 2.23 0C9.68 18.147 9.978 20 12.004 20s3.02-2.078 3.996-2.583c.651-.336 1.318-.336 2 0"></path>
  <path d="M10.143 11.073c-.397.428-.817.904-1.124 1.734a4.6 4.6 0 0 0-.311 1.405"></path>
</svg>