<svg width="80" height="80" fill="none" stroke="#5e5e5e" stroke-linecap="round" stroke-linejoin="round" stroke-width="2" viewBox="0 0 24 24" xmlns="http://www.w3.org/2000/svg">
  <path d="M2.5 16.157 10.017 2.97c.462-.98 1.296-1.471 2.503-1.471 1.81 0 2.989 2.493 2.989 2.493l1.99.297c-2.005.033-3.164.436-3.478 1.21-.47 1.161 1.228 2.365 1.488 4.002.26 1.636-.776 4.4-3.265 5.781-1.66.921-3.73 1.16-6.215.717l-3.05 5.5"></path>
  <path d="M7.471 13.49c1.29-2.325 2.137-3.818 2.544-4.479.609-.99 3.122-.692 2.22 1.782-.603 1.649-2.19 2.548-4.764 2.697Z" clip-rule="evenodd"></path>
  <path d="M16.484 16.492c.57-1.368 1.405-2.198 2.501-2.488 1.097-.29 2.097-.113 3 .53-.562 1.298-1.396 2.13-2.502 2.496-1.106.367-2.105.187-3-.538Z" clip-rule="evenodd"></path>
  <path d="M13.493 17.557c.378 1.36 1.38 2.27 3.007 2.73 1.626.46 2.965.197 4.016-.787-1.3-1.515-2.472-2.347-3.515-2.495-1.044-.148-2.213.036-3.508.552Z" clip-rule="evenodd"></path>
</svg>