<svg width="80" height="80" fill="none" stroke="#5e5e5e" stroke-linecap="round" stroke-linejoin="round" stroke-width="2" viewBox="0 0 24 24" xmlns="http://www.w3.org/2000/svg">
  <path d="M10.25 16.5c.983 0 1.395-1.769 2.25-2.123.886-.368 2.209.667 2.877 0 .667-.668-.153-2.151.214-3.038.355-.854 1.909-1.106 1.909-2.089 0-.983-1.769-1.22-2.123-2.075-.368-.886.667-2.384 0-3.052-.668-.667-2.244.368-3.13 0C11.392 3.77 11.233 2 10.25 2c-.983 0-1.248 1.982-2.103 2.337-.886.367-2.356-.881-3.024-.214-.667.668.368 1.99 0 2.877C4.77 7.855 3 8.267 3 9.25c0 .983 1.769 1.235 2.123 2.09.368.886-.667 2.369 0 3.037.668.667 2.138-.368 3.024 0 .855.354 1.12 2.123 2.103 2.123Z" clip-rule="evenodd"></path>
  <path d="M10 11a2 2 0 1 0 0-4 2 2 0 0 0 0 4Z"></path>
  <path d="M8.285 15c-.604 3.4-.247 5.527 1.072 6.383 1.979 1.284 3.367.28 4.091-.455.725-.736 3.077-3.956 5.09-3.956 2.014 0 2.62 1.94 2.429 3-.127.706-.456 1.23-.986 1.568"></path>
</svg>