<svg width="80" height="80" fill="none" stroke="#5e5e5e" stroke-linecap="round" stroke-linejoin="round" stroke-width="2" viewBox="0 0 24 24" xmlns="http://www.w3.org/2000/svg">
  <path d="M3 9c0-2.828 0-4.243.879-5.121C4.757 3 6.172 3 9 3h1v18H9c-2.828 0-4.243 0-5.121-.879C3 19.243 3 17.828 3 15V9Z"></path>
  <path d="M21 9c0-2.828 0-4.243-.879-5.121C19.243 3 17.828 3 15 3h-1v18h1c2.828 0 4.243 0 5.121-.879C21 19.243 21 17.828 21 15V9Z"></path>
  <path d="M17.5 6.5v1"></path>
  <path d="M6.5 16.5v1"></path>
</svg>