<svg width="80" height="80" fill="none" stroke="#5e5e5e" stroke-linecap="round" stroke-linejoin="round" stroke-width="2" viewBox="0 0 24 24" xmlns="http://www.w3.org/2000/svg">
  <path d="M18.85 3c-.264.267-1.23 1.336-1.845 1.87-.088.268 1.054 1.337 1.317 1.604.264.267 3.426-1.603 3.162-1.87-.21-.214-1.844-1.16-2.634-1.604Z"></path>
  <path d="M5.686 8.361a2.87 2.87 0 0 1-.015-.132 9.794 9.794 0 0 0-2.15 3.071 1.758 1.758 0 1 1-.753 3.433c-.01 1.773.575 3.478 1.79 4.8 1.753 1.908 4.405 2.576 7.015 2.033 1.607-.334 3.197-1.127 4.553-2.373a10 10 0 0 0 1.695-2.025c-1.112.335-2.338-.206-2.8-1.3a1.842 1.842 0 0 0-1.289-1.077l-.841-.19a2.986 2.986 0 0 1-2.12-1.825l-.046-.116a2.792 2.792 0 0 0-2.428-1.77 2.791 2.791 0 0 1-2.595-2.412l-.016-.117Z"></path>
  <path d="m6.577 5.829-.126.134a2.935 2.935 0 0 0-.765 2.397l.016.117a2.791 2.791 0 0 0 2.595 2.413 2.791 2.791 0 0 1 2.428 1.77l.046.115a2.987 2.987 0 0 0 2.12 1.825l.841.19a1.842 1.842 0 0 1 1.289 1.078c.498 1.176 1.877 1.712 3.05 1.208a3.784 3.784 0 0 0 2.24-2.873l.105-.665a4.97 4.97 0 0 0 .05-1.083l-.054-.845a8.638 8.638 0 0 0-1.753-4.69l-.126-.165a7.895 7.895 0 0 0-7.05-3.07l-.702.07a6.646 6.646 0 0 0-4.204 2.074Z"></path>
</svg>