<svg width="80" height="80" fill="none" stroke="#5e5e5e" stroke-linecap="round" stroke-linejoin="round" stroke-width="2" viewBox="0 0 24 24" xmlns="http://www.w3.org/2000/svg">
  <path d="M12 21h2.977c.042-1.369.243-2.12.602-2.257C19.334 17.318 22 13.717 22 9.5H2c0 4.126 2.552 7.662 6.178 9.147.38.155.663.94.85 2.353H12Z" clip-rule="evenodd"></path>
  <path d="M7.222 13.01c.18.594.417 1.084.713 1.47.29.38.646.73 1.07 1.053"></path>
  <path d="M20.25 9.498a8.572 8.572 0 0 0-1.941-3.717"></path>
  <path d="M16.1 4.01a8.384 8.384 0 0 0-2.024-.807"></path>
  <path d="M11.025 3c-3.561.411-6.453 3.049-7.275 6.5"></path>
</svg>