<svg width="80" height="80" fill="none" stroke="#5e5e5e" stroke-linecap="round" stroke-linejoin="round" stroke-width="2" viewBox="0 0 24 24" xmlns="http://www.w3.org/2000/svg">
  <path d="M7.557 12.474c-1.2 1.372-1.413 3.043-1.324 4.205.042.552.602.856 1.116.65.373-.148.78-.333 1.074-.529.865-.577.577-1.154.865-2.019.289-.865 1.559-1.57 2.713-1.28 1.153.288 1.614 1.28 1.614 2.146 0 .865-.364 1.853-1.442 2.307-1.19.5-1.731 0-3.173-.288-.752-.15-1.504.507-1.936.983a.757.757 0 0 0-.059.96c.144.2.33.431.552.653.577.577 2.885 2.307 5.192 2.019 2.308-.289 4.327-2.02 5.193-4.038.865-2.02.288-4.327-1.154-6.058-1.443-1.73-4.039-2.019-4.615-2.019-.577 0-2.596 0-4.616 2.308Z"></path>
  <path d="m15.781 11.32-9.46-7.234c-.198-.152-.483-.136-.631.066-.357.485-.694 1.254-.152 1.975.692.924 3.365 3.27 4.615 4.327"></path>
  <path d="M17.5 13 11.57 2.097c-.119-.22-.386-.32-.603-.197-.524.297-1.145.862-.945 1.742.255 1.125 1.269 3.13 1.978 4.606"></path>
  <path d="m18 14-.475-10.154c-.011-.25-.207-.457-.457-.44-.6.038-1.406.273-1.612 1.152C15.194 5.682 15.007 6.363 15 8"></path>
</svg>