<svg width="80" height="80" fill="none" stroke="#5e5e5e" stroke-linecap="round" stroke-linejoin="round" stroke-width="2" viewBox="0 0 24 24" xmlns="http://www.w3.org/2000/svg">
  <path d="M18 20.008A9.994 9.994 0 0 1 12 22a9.996 9.996 0 0 1-8.662-5H7.5"></path>
  <path d="M16 2.832c3.532 1.543 6 5.067 6 9.168 0 1.821-.487 3.53-1.338 5l-2.021-3.5"></path>
  <path d="M2.05 13c-.033-.329-.05-.662-.05-1C2 6.477 6.477 2 12 2L9.979 5.5"></path>
  <path d="M12 15a3 3 0 1 0 0-6 3 3 0 0 0 0 6Z"></path>
</svg>