<svg width="80" height="80" fill="none" stroke="#5e5e5e" stroke-linecap="round" stroke-linejoin="round" stroke-width="2" viewBox="0 0 24 24" xmlns="http://www.w3.org/2000/svg">
  <path d="M12.872 22h-.447a7.726 7.726 0 0 1-6.463-3.492l-1.098-1.675a2.814 2.814 0 0 1 .537-3.691l1.143-.968a.581.581 0 0 0 .206-.444V3.625a1.625 1.625 0 0 1 3.25 0v4.5a1.625 1.625 0 0 1 3.25 0v.75a1.625 1.625 0 0 1 3.25 0v2a1.625 1.625 0 0 1 3.25 0v5.11c0 .824-.25 1.63-.715 2.31l-.486.711A6.877 6.877 0 0 1 12.872 22Z"></path>
</svg>