<svg width="80" height="80" fill="none" stroke="#5e5e5e" stroke-linecap="round" stroke-linejoin="round" stroke-width="2" viewBox="0 0 24 24" xmlns="http://www.w3.org/2000/svg">
  <path d="m13.973 8.414 6.405-4.546a.916.916 0 0 1 1.226 1.344L20.5 6.5l-2.638 3.517a1 1 0 0 0-.104 1.028l3.566 7.527A1 1 0 0 1 20.42 20h-4.102a1 1 0 0 1-.98-.802l-1.578-7.811-.203-2.06a1 1 0 0 1 .416-.913Z"></path>
  <path d="m14 11.5 3.5-1"></path>
  <path d="M9.968 8.551 3.604 4.098a.906.906 0 0 0-1.202 1.337L3.5 6.695l2.616 3.318a1 1 0 0 1 .119 1.047l-3.559 7.511A1 1 0 0 0 3.58 20h4.081a1 1 0 0 0 .985-.827L10 11.5l.376-1.94a1 1 0 0 0-.408-1.009Z"></path>
  <path d="m6.5 10.5 3.5 1"></path>
</svg>