<svg width="80" height="80" fill="none" stroke="#5e5e5e" stroke-linecap="round" stroke-linejoin="round" stroke-width="2" viewBox="0 0 24 24" xmlns="http://www.w3.org/2000/svg">
  <path d="M3 9V4.5A1.5 1.5 0 0 1 4.5 3h15A1.5 1.5 0 0 1 21 4.5V9"></path>
  <path d="m10.5 13 6-6.5"></path>
  <path d="m13 10.5 2 2"></path>
  <path d="m15.5 8 2 2"></path>
  <path d="M3 15v4.5A1.5 1.5 0 0 0 4.5 21h15a1.5 1.5 0 0 0 1.5-1.5V15"></path>
  <path d="M9 17.5a2.5 2.5 0 1 0 0-5 2.5 2.5 0 0 0 0 5Z"></path>
</svg>