<svg width="80" height="80" fill="#5e5e5e" viewBox="0 0 24 24" xmlns="http://www.w3.org/2000/svg">
  <path fill-rule="evenodd" d="M8.53 4.808c3.024.634 3.607 1.712 3.608 1.713C11.019.058 7.595 1.64 6.866 2.014a.308.308 0 0 0-.166.235c-.064.507-.138 2.146 1.83 2.559Z" clip-rule="evenodd"></path>
  <path fill-rule="evenodd" d="M7.327 11.346a5.167 5.167 0 0 0-.219 2.614 5.019 5.019 0 0 0 4.535 4.17l.765.272c.3.097.694.193 1.155.26.683.1 1.384.115 2.077.016 1.683-.238 3.102-1.105 4.09-2.75l.222-.389c-.606 3.339-2.984 6.409-6.783 7.12-2.645.495-5.145-.187-7.013-1.673l.021.042c-1.234-2.396-1.455-4.556-.89-6.482.27-.922.74-1.747 1.353-2.478.216-.257.441-.492.673-.71l.014-.012Zm1.367-4.178c1.255-.198 3.303-.187 4.452 1.096a.026.026 0 0 1-.024.043c-.613-.126-1.446-.128-2.085-.02-1.347.225-2.432.943-3.131 1.94l-.246.187a8.708 8.708 0 0 0-1.402 1.333 7.332 7.332 0 0 0-1.45 2.658c-.509 1.731-.42 3.635.397 5.696a8.516 8.516 0 0 1-1.683-2.728c-.918-2.405-.638-5.535.94-7.554 1.124-1.441 2.782-2.422 4.232-2.651ZM15.84 3.52c2.301-3.081 5.061-.83 5.424-.51a.139.139 0 0 1 .047.09c.049.477.178 3.922-6.45 3.806 1.804.442 3.717 1.946 4.517 3.596.268.554.475 1.13.585 1.735.106.588.153 1.19.14 1.792-.026.139-.117.367-.258.653l-.058.113-.12.227-.276.493c-.91 1.612-2.23 2.443-3.82 2.668a6.813 6.813 0 0 1-1.936-.015 7.474 7.474 0 0 1-.615-.116 5.003 5.003 0 0 0 3.263-2.223c.165-.22.306-.463.416-.733.502-1.238.57-2.471.18-3.854-.625-2.214-2.296-3.835-4.406-4.561-.018-.007-.018-.032 0-.037.277-.08 1.447-.554 3.367-3.124Z" clip-rule="evenodd"></path>
</svg>