<svg width="80" height="80" fill="none" stroke="#5e5e5e" stroke-linecap="round" stroke-linejoin="round" stroke-width="2" viewBox="0 0 24 24" xmlns="http://www.w3.org/2000/svg">
  <path d="M3.5 4.5V12a3 3 0 0 0 3 3h11a3 3 0 0 0 3-3V4.5"></path>
  <path d="M3.5 5a3 3 0 0 1 3-3h11a3 3 0 0 1 0 6h-11a3 3 0 0 1-3-3Z"></path>
  <path fill="#5e5e5e" stroke="none" d="M7.5 6a1 1 0 1 0 0-2 1 1 0 0 0 0 2Z"></path>
  <path fill="#5e5e5e" stroke="none" d="M10.5 6a1 1 0 1 0 0-2 1 1 0 0 0 0 2Z"></path>
  <path fill="#5e5e5e" stroke="none" d="M13.5 6a1 1 0 1 0 0-2 1 1 0 0 0 0 2Z"></path>
  <path fill="#5e5e5e" stroke="none" d="M16.5 6a1 1 0 1 0 0-2 1 1 0 0 0 0 2Z"></path>
  <path d="M9.5 15v7"></path>
  <path d="M14.5 15v7"></path>
</svg>