<svg width="80" height="80" fill="none" stroke="#5e5e5e" stroke-linecap="round" stroke-linejoin="round" stroke-width="2" viewBox="0 0 24 24" xmlns="http://www.w3.org/2000/svg">
  <path d="M14.758 8.75c2.762 4.784 2.48 10.116-.629 11.91-3.109 1.796-7.868-.627-10.63-5.41C.74 10.469 1.02 5.136 4.13 3.34s7.868.628 10.63 5.41Z"></path>
  <path d="M9.129 8.75c-2.761 4.784-2.48 10.116.63 11.91 3.108 1.796 7.867-.627 10.628-5.41 2.762-4.782 2.48-10.115-.629-11.91S11.89 3.968 9.13 8.75Z"></path>
  <path d="M11.876 5.172a14.46 14.46 0 0 1 2.882 3.578c2.762 4.783 2.48 10.115-.63 11.91a4.497 4.497 0 0 1-2.129.59"></path>
</svg>