<svg width="80" height="80" fill="none" stroke="#5e5e5e" stroke-linecap="round" stroke-linejoin="round" stroke-width="2" viewBox="0 0 24 24" xmlns="http://www.w3.org/2000/svg">
  <path d="m9.167 17.907-4.857-5.44a1.9 1.9 0 1 1 2.901-2.453L8 11V4.497a1.5 1.5 0 1 1 3 0V3.5a1.5 1.5 0 0 1 3 0v.915a1.5 1.5 0 0 1 3 0v1.658a1.5 1.5 0 0 1 3 0v6.84a5.07 5.07 0 0 1-.968 2.98l-1.417 1.949a.384.384 0 0 1-.31.158h-7.93a.28.28 0 0 1-.208-.093Z"></path>
  <path d="M17 18h-7a.5.5 0 0 0-.5.5v3a.5.5 0 0 0 .5.5h7a.5.5 0 0 0 .5-.5v-3a.5.5 0 0 0-.5-.5Z"></path>
</svg>