<svg width="80" height="80" fill="#5e5e5e" viewBox="0 0 24 24" xmlns="http://www.w3.org/2000/svg">
  <path d="m19.225 11.508-2.628-1.504a.084.084 0 0 0-.126.076v3.74c0 .07.038.127.095.165l2.628 1.504a.084.084 0 0 0 .126-.076v-3.74a.197.197 0 0 0-.095-.165Z"></path>
  <path d="m15.555 9.438-2.628-1.504a.084.084 0 0 0-.126.076v5.819c0 .05.038.088.088.088h2.68c.05 0 .087-.038.087-.088V9.602a.209.209 0 0 0-.1-.164Z"></path>
  <path d="m9.34 15.471 2.627-1.504a.189.189 0 0 0 .095-.164V7.586c0-.063-.07-.107-.126-.076L9.308 9.014a.189.189 0 0 0-.095.164v6.217c0 .07.07.108.126.076Z"></path>
  <path d="M20.053 12.133v1.706c0 .05.038.089.088.089h2.982c.089 0 .12-.12.044-.158l-2.982-1.706c-.063-.038-.132.006-.132.07Z"></path>
  <path d="m8.346 9.564-7.303 4.189c-.076.044-.045.158.044.158H8.39c.05 0 .088-.038.088-.089V9.64c-.006-.07-.076-.108-.133-.076Z"></path>
</svg>