<svg width="80" height="80" fill="none" stroke="#5e5e5e" stroke-linecap="round" stroke-linejoin="round" stroke-width="2" viewBox="0 0 24 24" xmlns="http://www.w3.org/2000/svg">
  <path d="M8.364 12c1.212-1.212 2.424-1.818 3.636-1.818 1.212 0 2.424.606 3.636 1.818 1.415-1.212 2.475-1.818 3.182-1.818.707 0 1.768.606 3.182 1.818 0-5.523-4.477-10-10-10S2 6.477 2 12c1.414-1.212 2.475-1.818 3.182-1.818.707 0 1.767.606 3.182 1.818Z"></path>
  <path d="m2 12 10 10-3.636-10"></path>
  <path d="M15.636 12 12 22l10-10"></path>
</svg>