<svg width="80" height="80" fill="none" stroke="#5e5e5e" stroke-linecap="round" stroke-linejoin="round" stroke-width="2" viewBox="0 0 24 24" xmlns="http://www.w3.org/2000/svg">
  <path d="M19 15.5V22H6.812C4.938 22 4 21 4 18.5V2h6"></path>
  <path d="M16.5 13a4.5 4.5 0 1 0 0-9 4.5 4.5 0 0 0 0 9Z"></path>
  <path d="M11 9V8"></path>
  <path d="M22 9V8"></path>
  <path d="M16.5 4c-.083-.5-.6-1.6-2-2"></path>
  <path d="M16.5 4c.042-.5.3-1.6 1-2"></path>
  <path fill="#5e5e5e" stroke="none" d="M18 9a1 1 0 1 0 0-2 1 1 0 0 0 0 2Z"></path>
  <path fill="#5e5e5e" stroke="none" d="M15 9a1 1 0 1 0 0-2 1 1 0 0 0 0 2Z"></path>
  <path d="M4 18h15"></path>
</svg>