<svg width="80" height="80" fill="none" stroke="#5e5e5e" stroke-linecap="round" stroke-width="2" viewBox="0 0 24 24" xmlns="http://www.w3.org/2000/svg">
  <path d="M6.5 20h-2a1 1 0 0 1-1-1V3a1 1 0 0 1 1-1h10a1 1 0 0 1 1 1v2"></path>
  <path d="M6.5 6v15a1 1 0 0 0 1 1h12a1 1 0 0 0 1-1V6a1 1 0 0 0-1-1h-12a1 1 0 0 0-1 1Z"></path>
  <path d="M13.5 17.5a4 4 0 1 0 0-8 4 4 0 0 0 0 8Z"></path>
  <path d="M17.5 14s-1.5-.25-2.5.5-1.3 2.551-1 3"></path>
  <path d="M12 13.5c0 1-1 2-2 2"></path>
  <path d="M15.5 10s0 2-1.5 2"></path>
</svg>