<svg width="80" height="80" fill="none" stroke="#5e5e5e" stroke-linecap="round" stroke-width="2" viewBox="0 0 24 24" xmlns="http://www.w3.org/2000/svg">
  <path d="M8.32 6.373a4.04 4.04 0 0 1 7.36 0l1.53 3.377 1.843 3.16a4.94 4.94 0 0 1-.826 6.033l-.595.577a4.007 4.007 0 0 1-5.316.236.5.5 0 0 0-.632 0 4.007 4.007 0 0 1-5.316-.236l-.595-.577a4.94 4.94 0 0 1-.826-6.032L6.79 9.75l1.53-3.377Z"></path>
  <path d="M10.75 2c.333.25 1.05.95 1.25 1.75.2.8.083 1.667 0 2"></path>
  <path fill="#5e5e5e" stroke="none" d="M8 15a1 1 0 1 0 0-2 1 1 0 0 0 0 2Z"></path>
  <path fill="#5e5e5e" stroke="none" d="M9 18a1 1 0 1 0 0-2 1 1 0 0 0 0 2Z"></path>
  <path fill="#5e5e5e" stroke="none" d="M11.5 16a1 1 0 1 0 0-2 1 1 0 0 0 0 2Z"></path>
</svg>