<svg width="80" height="80" fill="none" stroke="#5e5e5e" stroke-linecap="round" stroke-linejoin="round" stroke-width="2" viewBox="0 0 24 24" xmlns="http://www.w3.org/2000/svg">
  <path d="M13.5 6S17 9.5 17 14s-2.222 8.111-4 8c-1.778-.111-3.5-3.5-3-8s3.5-8 3.5-8Z"></path>
  <path d="M13.5 6s.5-2.062 2-3.03C17 2 19.945 4.5 19.5 6c-.445 1.5-2 1.5-2.5 0s2-3.25 3.5-3.03C22 3.187 22.128 5.59 22 7c-.25 2.75-1 5-1 5"></path>
  <path d="M13.5 6s0 4-3.5 8-6.837 4.85-8 3.5c-1.162-1.35 0-5 3.5-8.5s8-3 8-3Z"></path>
  <path fill="#5e5e5e" stroke="none" d="M13.622 14.954a1.25 1.25 0 1 0 0-2.5 1.25 1.25 0 0 0 0 2.5Z"></path>
  <path fill="#5e5e5e" stroke="none" d="M13.122 18.454a1.25 1.25 0 1 0 0-2.5 1.25 1.25 0 0 0 0 2.5Z"></path>
</svg>