<svg width="80" height="80" fill="none" stroke="#5e5e5e" stroke-linecap="round" stroke-linejoin="round" stroke-width="2" viewBox="0 0 24 24" xmlns="http://www.w3.org/2000/svg">
  <path d="M14.5 2h-5A1.5 1.5 0 0 0 8 3.5v2A1.5 1.5 0 0 0 9.5 7h5A1.5 1.5 0 0 0 16 5.5v-2A1.5 1.5 0 0 0 14.5 2Z"></path>
  <path d="M15 10H9a6 6 0 0 0 0 12h6a6 6 0 0 0 0-12Z"></path>
  <path d="M3 16.5c1.521-1.934 6-1.5 9-.5s7 2.5 9 0"></path>
  <path fill="#5e5e5e" stroke="none" d="M12.5 4.5a.5.5 0 1 1-1 0 .5.5 0 0 1 1 0Z"></path>
</svg>