<svg width="80" height="80" fill="none" stroke="#5e5e5e" stroke-linecap="round" stroke-width="2" viewBox="0 0 24 24" xmlns="http://www.w3.org/2000/svg">
  <path d="M4 2c2 1.668 3.002 3.336 3.002 5.002C7.002 9.502 5 10.622 4 12c-1 1.378-1.498 2.966-1.498 5.002 0 1.357.5 3.023 1.498 4.998"></path>
  <path d="M20.002 2C18 3.668 17 5.336 17 7.002c0 2.5 2.002 3.62 3.002 4.998 1 1.378 1.497 2.966 1.497 5.002 0 1.357-.5 3.023-1.497 4.998"></path>
  <path d="M7.002 14.591c1.26-.12 2.308.06 3.14.54 1.25.723 1.854 1.549 1.858 2.347.003.533.003 2.04 0 4.522"></path>
  <path d="M17.002 14.591c-1.26-.12-2.308.06-3.14.54-1.25.723-1.854 1.549-1.858 2.347"></path>
</svg>