<svg width="80" height="80" fill="none" stroke="#5e5e5e" stroke-linecap="round" stroke-linejoin="round" stroke-width="2" viewBox="0 0 24 24" xmlns="http://www.w3.org/2000/svg">
  <path d="M20 2.5H4A1.5 1.5 0 0 0 2.5 4v16A1.5 1.5 0 0 0 4 21.5h16a1.5 1.5 0 0 0 1.5-1.5V4A1.5 1.5 0 0 0 20 2.5Z"></path>
  <path d="M9.5 6h-4v12h4V6Z"></path>
  <path d="M18.5 6h-6v3h6V6Z"></path>
  <path fill="#5e5e5e" stroke="none" d="M12.5 13a1 1 0 1 0 0-2 1 1 0 0 0 0 2Z"></path>
  <path fill="#5e5e5e" stroke="none" d="M12.5 16a1 1 0 1 0 0-2 1 1 0 0 0 0 2Z"></path>
  <path fill="#5e5e5e" stroke="none" d="M12.5 19a1 1 0 1 0 0-2 1 1 0 0 0 0 2Z"></path>
  <path fill="#5e5e5e" stroke="none" d="M15.5 13a1 1 0 1 0 0-2 1 1 0 0 0 0 2Z"></path>
  <path fill="#5e5e5e" stroke="none" d="M15.5 16a1 1 0 1 0 0-2 1 1 0 0 0 0 2Z"></path>
  <path fill="#5e5e5e" stroke="none" d="M15.5 19a1 1 0 1 0 0-2 1 1 0 0 0 0 2Z"></path>
  <path fill="#5e5e5e" stroke="none" d="M18.5 13a1 1 0 1 0 0-2 1 1 0 0 0 0 2Z"></path>
  <path fill="#5e5e5e" stroke="none" d="M18.5 16a1 1 0 1 0 0-2 1 1 0 0 0 0 2Z"></path>
  <path fill="#5e5e5e" stroke="none" d="M18.5 19a1 1 0 1 0 0-2 1 1 0 0 0 0 2Z"></path>
</svg>