<svg width="80" height="80" fill="none" stroke="#5e5e5e" stroke-linecap="round" stroke-linejoin="round" stroke-width="2" viewBox="0 0 24 24" xmlns="http://www.w3.org/2000/svg">
  <path d="m14.588 9.412 6.118-5.883"></path>
  <path d="M14.588 3.294h6.118v6.118"></path>
  <path d="M8.177 4.61A.94.94 0 0 1 9 5.094l1.15 2.074c.152.271.159.6.02.877l-1.11 2.219s.322 1.652 1.667 2.997 2.992 1.661 2.992 1.661l2.218-1.109a.941.941 0 0 1 .878.02l2.08 1.156a.94.94 0 0 1 .484.822V18.2c0 1.215-1.13 2.094-2.281 1.705-2.366-.798-6.04-2.319-8.367-4.646C6.403 12.93 4.883 9.256 4.084 6.89c-.388-1.152.49-2.282 1.706-2.282h2.387Z"></path>
</svg>