<svg width="80" height="80" fill="none" stroke="#5e5e5e" stroke-linejoin="round" stroke-width="2" viewBox="0 0 24 24" xmlns="http://www.w3.org/2000/svg">
  <path d="M19.5 3h-15A1.5 1.5 0 0 0 3 4.5v15A1.5 1.5 0 0 0 4.5 21h15a1.5 1.5 0 0 0 1.5-1.5v-15A1.5 1.5 0 0 0 19.5 3Z"></path>
  <path d="M9.72 7c.222 0 .427.12.535.315l.748 1.347c.098.177.103.39.012.57L10.5 10.5s.126 1.126 1 2c.874.874 2 1 2 1l1.263-.519a.612.612 0 0 1 .571.013l1.352.751a.612.612 0 0 1 .314.535v1.551c0 .79-.734 1.361-1.483 1.108-1.537-.518-3.924-1.506-5.437-3.02-1.513-1.512-2.5-3.899-3.02-5.436C6.809 7.733 7.38 7 8.17 7h1.55Z"></path>
</svg>