<svg width="80" height="80" fill="none" stroke="#5e5e5e" stroke-linejoin="round" stroke-width="2" viewBox="0 0 24 24" xmlns="http://www.w3.org/2000/svg">
  <path d="M8.57 3.765a.98.98 0 0 1 .856.504l1.198 2.158a.98.98 0 0 1 .02.914L9.49 9.65s.334 1.72 1.734 3.12c1.4 1.4 3.114 1.728 3.114 1.728l2.309-1.154a.98.98 0 0 1 .914.02l2.164 1.204c.311.172.504.5.504.856v2.485c0 1.265-1.175 2.18-2.374 1.774-2.463-.83-6.286-2.413-8.709-4.836C6.723 12.425 5.141 8.602 4.31 6.14c-.404-1.199.51-2.374 1.775-2.374H8.57Z"></path>
</svg>