<svg width="80" height="80" fill="none" stroke="#5e5e5e" stroke-linecap="round" stroke-linejoin="round" stroke-width="2" viewBox="0 0 24 24" xmlns="http://www.w3.org/2000/svg">
  <path d="M8.398 4.169c.349 0 .67.19.84.494l1.174 2.115a.96.96 0 0 1 .02.896L9.3 9.936s.328 1.686 1.7 3.058c1.372 1.372 3.052 1.694 3.052 1.694l2.262-1.131a.96.96 0 0 1 .896.02l2.12 1.179a.96.96 0 0 1 .494.839v2.435c0 1.24-1.152 2.136-2.327 1.74-2.413-.815-6.16-2.365-8.534-4.74-2.374-2.374-3.925-6.12-4.74-8.534-.396-1.175.5-2.327 1.74-2.327h2.435Z"></path>
  <path d="M19.313 4.457 15.24 8.53"></path>
  <path d="m15.24 4.457 4.073 4.073"></path>
</svg>