<svg width="80" height="80" fill="none" stroke="#5e5e5e" stroke-linecap="round" stroke-linejoin="round" stroke-width="2" viewBox="0 0 24 24" xmlns="http://www.w3.org/2000/svg">
  <path d="M13.338 14.455c.614.261 1.049.345 1.049.345l2.357-1.179a1 1 0 0 1 .933.02l2.21 1.23a1 1 0 0 1 .513.873v2.537c0 1.292-1.201 2.224-2.425 1.811-1.874-.632-4.518-1.69-6.767-3.212"></path>
  <path d="M9.722 10.749c-.213-.534-.284-.9-.284-.9l1.178-2.357a1 1 0 0 0-.02-.932L9.373 4.356a1 1 0 0 0-.874-.514H5.962c-1.292 0-2.224 1.2-1.811 2.425.605 1.795 1.602 4.297 3.023 6.482"></path>
  <path d="M20 4 4 20"></path>
</svg>