<svg width="80" height="80" fill="none" stroke="#5e5e5e" stroke-linecap="round" stroke-linejoin="round" stroke-width="2" viewBox="0 0 24 24" xmlns="http://www.w3.org/2000/svg">
  <path d="M9.518 22c-.49-1.598-1.23-2.789-2.217-3.573-1.483-1.177-3.839-.446-4.709-1.66-.87-1.213.61-3.446 1.13-4.763.518-1.317-1.991-1.782-1.698-2.156.195-.25 1.463-.969 3.804-2.158C6.493 3.897 8.95 2 13.2 2c6.372 0 8.8 5.403 8.8 8.84 0 3.436-2.94 7.138-7.128 7.936-.374.546.166 1.62 1.62 3.224"></path>
  <path d="M10.51 2.295c-.593 2.614-.593 4.648 0 6.102.892 2.181 4.83 1.846 4.83 3.881 0 2.035-2.294 2.426-1.988 3.838.204.941.658 2.162 1.362 3.662"></path>
  <path d="M8.5 15.275c.118 0 1.2-.069 1.98-.875.519-.538.779-1.171.779-1.9"></path>
</svg>