<svg width="80" height="80" fill="none" stroke="#5e5e5e" stroke-linecap="round" stroke-linejoin="round" stroke-width="2" viewBox="0 0 24 24" xmlns="http://www.w3.org/2000/svg">
  <path d="M16 8a2.5 2.5 0 1 0 0-5 2.5 2.5 0 0 0 0 5Z"></path>
  <path d="m11.5 20 4.055-1.03a.5.5 0 0 0 .21-.86L11.5 14.5l2-4-5.205-1.87a.995.995 0 0 1-.565-.51L5.5 4"></path>
  <path d="m11.5 14.5-3.485 4.395a.983.983 0 0 1-.385.285L2.5 21"></path>
  <path d="m13.5 10.5 4.95 1.395c.235.07.44.22.57.425L21 15.5"></path>
  <path fill="#5e5e5e" stroke="none" d="M9 4a1.5 1.5 0 1 0 0-3 1.5 1.5 0 0 0 0 3Z"></path>
</svg>