<svg width="80" height="80" fill="none" stroke="#5e5e5e" stroke-linecap="round" stroke-linejoin="round" stroke-width="2" viewBox="0 0 24 24" xmlns="http://www.w3.org/2000/svg">
  <path d="M16.148 3H7.852a.5.5 0 0 0-.47.331l-3.336 9.29a.5.5 0 0 0-.02.263l.897 4.71a.5.5 0 0 0 .49.406h13.173a.5.5 0 0 0 .491-.407l.897-4.709a.5.5 0 0 0-.02-.263l-3.335-9.29a.5.5 0 0 0-.47-.331Z"></path>
  <path d="M12 18v4"></path>
  <path d="M12 6v3"></path>
  <path d="m8.25 11.701 1.5 2.598"></path>
  <path d="m15.75 11.701-1.5 2.598"></path>
</svg>