<svg width="80" height="80" fill="none" stroke="#5e5e5e" stroke-linecap="round" stroke-linejoin="round" stroke-width="2" viewBox="0 0 24 24" xmlns="http://www.w3.org/2000/svg">
  <path d="M16.5 2v3.76c3.656 2.097 5.307 4.887 4.953 8.37-.354 3.484-2.005 6.107-4.953 7.87"></path>
  <path d="M6.886 2c-1.069.185-1.838.81-2.308 1.879C3.873 5.48 2.5 10.982 2.5 11.863c0 .881 1.784 3.254 6.026 6.855 1.966 1.668 3.127 1.583 3.756.464.63-1.12-.203-1.837-1.257-2.664-1.932-1.514-4.474-3.91-4.474-4.963 0-.7.658-2.838 1.975-6.412"></path>
  <path d="M4.1 14.47c.258 2.49.724 4.99 1.4 7.5"></path>
  <path d="M16.5 9.973c.773.513 1.273 1.182 1.5 2.006.227.823.293 1.574.198 2.253"></path>
</svg>