<svg width="80" height="80" fill="none" stroke="#5e5e5e" stroke-linecap="round" stroke-linejoin="round" stroke-width="2" viewBox="0 0 24 24" xmlns="http://www.w3.org/2000/svg">
  <path d="M11 21.5c-2.363-.884-4.334-3.907-5.32-5.679-.427-.764-.202-1.704.481-2.25a1.915 1.915 0 0 1 2.55.14l.789.789V8.75a1.25 1.25 0 1 1 2.5 0v3a1.25 1.25 0 0 1 2.5 0v1a1.25 1.25 0 0 1 2.5 0v1a1.25 1.25 0 0 1 2.5 0v3.934c0 .535-.133 1.064-.441 1.501-.512.726-1.432 1.832-2.56 2.315-1.75.75-3.314.817-5.5 0Z"></path>
  <path d="M14.5 6a4 4 0 1 0-7.874 1"></path>
</svg>