<svg width="80" height="80" fill="none" stroke="#5e5e5e" stroke-linecap="round" stroke-linejoin="round" stroke-width="2" viewBox="0 0 24 24" xmlns="http://www.w3.org/2000/svg">
  <path d="M5.5 20.5c2.084-.895 4.046-1.378 5.887-1.45 1.841-.07 4.212.246 7.113.95"></path>
  <path d="M11.523 22c-.384-4.72-.225-8.387.477-11"></path>
  <path d="M12 11.588c.795-3.01 2.195-4.804 4.2-5.383 2.004-.58 3.938-.315 5.8.797.01 2.446-1.052 4.237-3.185 5.375s-4.405.875-6.815-.79Z" clip-rule="evenodd"></path>
  <path d="M11.896 11.057c.417-3.594-.418-6.125-2.505-7.593-2.087-1.469-4.503-1.796-7.249-.984-.48 3.315.254 5.821 2.2 7.52 1.945 1.698 4.463 2.05 7.554 1.057Z" clip-rule="evenodd"></path>
</svg>