<svg width="80" height="80" fill="#5e5e5e" viewBox="0 0 24 24" xmlns="http://www.w3.org/2000/svg">
  <path d="M.693 13.64c.981 4.7 5.562 7.736 10.28 6.85l-.003.002c5.496-.897 8.07-4.218 10.161-5.88 1.113-.884 1.695-1.4 2.265-1.698-.373.063-.613-.05-.935-.164-.356-.126-.812-.251-1.657-.14-1.612.215-3.022 1.825-3.022 1.825l-.86.765a8.807 8.807 0 0 1-3.617 1.661 8.828 8.828 0 0 1-6.189-.981A8.771 8.771 0 0 1 3.071 5.658 8.757 8.757 0 0 0 .693 13.64Z"></path>
  <path fill-rule="evenodd" d="m10.973 20.49-.003.002c5.496-.897 8.07-4.218 10.161-5.88 1.113-.884 1.695-1.4 2.265-1.698-.373.063-.613-.05-.935-.164-.356-.126-.812-.251-1.657-.14-1.612.215-3.022 1.825-3.022 1.825l-.86.765a8.807 8.807 0 0 1-3.617 1.661 8.828 8.828 0 0 1-6.189-.981A8.771 8.771 0 0 1 3.071 5.658 8.757 8.757 0 0 0 .693 13.64c.981 4.7 5.562 7.736 10.28 6.85Z" clip-rule="evenodd"></path>
  <path fill-rule="evenodd" d="M17.875 14.293c-1.338 4.673-6.227 7.382-10.92 6.05A8.804 8.804 0 0 1 .557 11.27a8.188 8.188 0 0 0 5.92 7.01c4.36 1.238 8.903-1.28 10.146-5.622a8.106 8.106 0 0 0 .178-3.727 8.195 8.195 0 0 0-1.943-3.95 8.828 8.828 0 0 1 2.811 3.866 8.721 8.721 0 0 1 .204 5.447Z" clip-rule="evenodd"></path>
  <path fill-rule="evenodd" d="M9.348 3.059a8.81 8.81 0 0 1 3.364.667C8.376 4.95 5.637 9.264 6.436 13.72v.007a8.9 8.9 0 0 0 .042.215l.006.027a8.722 8.722 0 0 0 .045.205l.018.072c.089.364.2.719.333 1.063a9.2 9.2 0 0 1-3.06-3.67c-.825-1.776-.945-3.823-.304-6.4a8.798 8.798 0 0 1 4.39-2.063c.484-.08.966-.118 1.442-.118Zm-6.655 5.65.007.175a8.695 8.695 0 0 1 .031-1.61c-.04.492-.054.97-.038 1.434Z" clip-rule="evenodd"></path>
</svg>