<svg width="80" height="80" fill="#5e5e5e" viewBox="0 0 24 24" xmlns="http://www.w3.org/2000/svg">
  <path fill-rule="evenodd" d="M9.427 4.558C5.66 6.976 3.57 9.79 3.15 13c-.65 4.999 3.82 7.445 6.084 5.247 2.265-2.198.907-4.989-.733-5.751-1.64-.763-2.643-.497-2.468-1.517.175-1.019 2.509-3.845 4.558-5.16a.374.374 0 0 0 .057-.511l-.507-.659c-.22-.286-.43-.275-.715-.092Z" clip-rule="evenodd"></path>
  <path fill-rule="evenodd" d="M19.34 4.558C15.574 6.976 13.482 9.79 13.064 13c-.651 4.999 3.82 7.445 6.084 5.247 2.265-2.198.907-4.989-.733-5.751-1.64-.763-2.643-.497-2.468-1.517.175-1.019 2.508-3.845 4.558-5.16a.374.374 0 0 0 .057-.511l-.507-.659c-.22-.286-.43-.275-.715-.092Z" clip-rule="evenodd"></path>
</svg>