<svg width="80" height="80" fill="none" stroke="#5e5e5e" stroke-linejoin="round" stroke-width="2" viewBox="0 0 24 24" xmlns="http://www.w3.org/2000/svg">
  <path fill="#5e5e5e" stroke="none" d="M12.002 13.5a1.5 1.5 0 1 0 0-3 1.5 1.5 0 0 0 0 3Z"></path>
  <path d="M9.52 15.738a4.47 4.47 0 0 0 2.48.746 4.47 4.47 0 0 0 2.48-.746l3.03 4.603A9.933 9.933 0 0 1 12 22c-2.036 0-3.93-.61-5.51-1.659l3.03-4.603Zm-2.012-3.496-5.49.33A10.031 10.031 0 0 1 7.528 3l2.46 4.934a4.514 4.514 0 0 0-2.48 4.308Zm6.505-4.308L16.473 3a10.031 10.031 0 0 1 5.51 9.572l-5.49-.33a4.514 4.514 0 0 0-2.48-4.308Z"></path>
</svg>