<svg width="80" height="80" fill="none" stroke="#5e5e5e" stroke-linecap="round" stroke-linejoin="round" stroke-width="2" viewBox="0 0 24 24" xmlns="http://www.w3.org/2000/svg">
  <path d="M18.5 11.6C18.5 16 12 22 12 22s-6.5-6-6.5-10.4C5.5 7.955 8.41 5 12 5s6.5 2.955 6.5 6.6Z"></path>
  <path d="M12 2v3"></path>
  <path d="M9 2.5 11 5"></path>
  <path d="M15 2.5 13 5"></path>
  <path d="M6 10h4"></path>
  <path d="M14.5 13.5H18"></path>
  <path d="M8 17h3"></path>
  <path d="M6.906 7.5A6.636 6.636 0 0 0 5.5 11.6c0 2.777 2.59 6.192 4.5 8.333"></path>
  <path d="M18.5 11.6c0 1.387-.646 2.933-1.53 4.4"></path>
</svg>