<svg width="80" height="80" fill="none" stroke="#5e5e5e" stroke-linecap="round" stroke-linejoin="round" stroke-width="2" viewBox="0 0 24 24" xmlns="http://www.w3.org/2000/svg">
  <path d="M19.5 7.5c1.091.277 2 .75 2 2S20 11 19 11"></path>
  <path d="M13 5c0-1.5.874-2.5 2-2.5 1 0 1.524.31 2 1.5"></path>
  <path d="M15.5 6s.476-1.066 1.061-1.455c.935-.621 2.189-.686 2.875 0a2.029 2.029 0 0 1 0 2.874c-.796.796-1.437 1.081-1.437 1.081"></path>
  <path d="M5 7c-2.542 2.542-3.208 6.457-1.705 9.552 0 0-.795 3.948-.295 4.448.5.5 4.431-.296 4.431-.296a7.978 7.978 0 0 0 3.47.796c2.167 0 4.485-.926 6.1-2.5 1.591-1.592 2.303-3.649 2.303-5.882 0-2.254-.804-4.118-2.477-5.856-1.673-1.737-3.627-2.606-5.883-2.606C8.691 4.656 6.592 5.408 5 7Z"></path>
  <path d="M2.5 14S5 13.5 6 15.5"></path>
  <path d="M9 21s.5-2-.5-3"></path>
  <path d="M10.901 21.5a7.978 7.978 0 0 1-3.47-.796"></path>
  <path d="M3.295 16.552C1.792 13.457 2.458 9.542 5 7"></path>
</svg>