<svg width="80" height="80" fill="none" stroke="#5e5e5e" stroke-linecap="round" stroke-linejoin="round" stroke-width="2" viewBox="0 0 24 24" xmlns="http://www.w3.org/2000/svg">
  <path d="M6 3a1 1 0 0 1 1-1h10a1 1 0 0 1 1 1v12a1 1 0 0 1-1 1H7a1 1 0 0 1-1-1V3Z"></path>
  <path fill="#5e5e5e" stroke="none" d="M9 14a1 1 0 1 0 0-2 1 1 0 0 0 0 2Z"></path>
  <path fill="#5e5e5e" stroke="none" d="M15 14a1 1 0 1 0 0-2 1 1 0 0 0 0 2Z"></path>
  <path d="M6 10h12"></path>
  <path d="M10.5 19h3"></path>
  <path d="M9 22h6"></path>
  <path d="m8.5 16-3 6"></path>
  <path d="m15.5 16 3 6"></path>
  <path d="M18 7.5v5"></path>
  <path d="M6 7.5v5"></path>
</svg>