<svg width="80" height="80" fill="none" stroke="#5e5e5e" stroke-linecap="round" stroke-linejoin="round" stroke-width="2" viewBox="0 0 24 24" xmlns="http://www.w3.org/2000/svg">
  <path d="M11.197 12.708a5.5 5.5 0 1 0 7.07-8.427 5.5 5.5 0 0 0-7.07 8.427Z"></path>
  <path d="M19.267 11.647s-2.818.246-5.5-2.003c-2.68-2.25-2.927-5.068-2.927-5.068"></path>
  <path d="M13.433 13.932c-1.73.506-2.534 1.463-3.337 2.421-.804.958-.841 2.558-1.805 3.707-.965 1.15-2.373 1.272-3.522.308-1.15-.964-1.273-2.373-.309-3.522.965-1.149 2.534-1.464 3.338-2.421.803-.958 1.607-1.915 1.805-3.707"></path>
  <path d="M19.416 5.245a1.5 1.5 0 0 0-2.298-1.928"></path>
</svg>