<svg width="80" height="80" fill="none" stroke="#5e5e5e" stroke-linecap="round" stroke-linejoin="round" stroke-width="2" viewBox="0 0 24 24" xmlns="http://www.w3.org/2000/svg">
  <path d="M20.5 2.5h-17a1 1 0 0 0-1 1v8a1 1 0 0 0 1 1h17a1 1 0 0 0 1-1v-8a1 1 0 0 0-1-1Z"></path>
  <path d="M7 2.5v10"></path>
  <path d="M17 2.5v10"></path>
  <path d="M15 2.5h4"></path>
  <path d="M2.5 5.5h19"></path>
  <path d="M2.5 9.5h19"></path>
  <path d="M2.5 10.5v-6"></path>
  <path d="M21.5 10.5v-6"></path>
  <path d="M5 2.5h4"></path>
  <path d="M15 12.5h4"></path>
  <path d="M5 12.5h4"></path>
  <path d="M16 12.5a4 4 0 1 1-8 0"></path>
  <path d="m14 16-.5 2.5V22"></path>
  <path d="m10 16 .5 2.5V22"></path>
</svg>