<svg width="80" height="80" fill="none" stroke="#5e5e5e" stroke-linecap="round" stroke-linejoin="round" stroke-width="2" viewBox="0 0 24 24" xmlns="http://www.w3.org/2000/svg">
  <path d="M20.5 9h-17a1 1 0 0 0-1 1v10a1 1 0 0 0 1 1h17a1 1 0 0 0 1-1V10a1 1 0 0 0-1-1Z"></path>
  <path d="M4 6h16"></path>
  <path d="M7.5 3h9"></path>
  <path d="M13 12v3"></path>
  <path d="M9 16.375c0-.76.645-1.375 1.44-1.375H13v1.625c0 .76-.645 1.375-1.44 1.375h-1.12C9.645 18 9 17.385 9 16.625v-.25Z"></path>
  <path d="M15.5 12.5 13 12"></path>
</svg>