<svg width="80" height="80" fill="none" stroke="#5e5e5e" stroke-linecap="round" stroke-linejoin="round" stroke-width="2" viewBox="0 0 24 24" xmlns="http://www.w3.org/2000/svg">
  <path d="M20.5 4h-17a1 1 0 0 0-1 1v14a1 1 0 0 0 1 1h17a1 1 0 0 0 1-1V5a1 1 0 0 0-1-1Z"></path>
  <path d="M6.5 4v16"></path>
  <path d="M14 16.5a4.5 4.5 0 1 0 0-9 4.5 4.5 0 0 0 0 9Z"></path>
  <path fill="#5e5e5e" stroke="none" d="M14 13.5a1.5 1.5 0 1 0 0-3 1.5 1.5 0 0 0 0 3Z"></path>
  <path d="M2.5 8h4"></path>
  <path d="M2.5 12h4"></path>
  <path d="M2.5 16h4"></path>
</svg>