<svg width="80" height="80" fill="none" stroke="#5e5e5e" stroke-width="2" viewBox="0 0 24 24" xmlns="http://www.w3.org/2000/svg">
  <path d="M19.5 3h-15A1.5 1.5 0 0 0 3 4.5v15A1.5 1.5 0 0 0 4.5 21h15a1.5 1.5 0 0 0 1.5-1.5v-15A1.5 1.5 0 0 0 19.5 3Z"></path>
  <path fill="#5e5e5e" stroke="none" d="M8.5 15H6.207a.5.5 0 0 0-.353.854l2.292 2.293A.5.5 0 0 0 9 17.793V15.5a.5.5 0 0 0-.5-.5Z"></path>
  <path fill="#5e5e5e" stroke="none" d="M15 15.5v2.293a.5.5 0 0 0 .854.354l2.293-2.293a.5.5 0 0 0-.354-.854H15.5a.5.5 0 0 0-.5.5Z"></path>
  <path fill="#5e5e5e" stroke="none" d="M15.5 9h2.293a.5.5 0 0 0 .354-.854l-2.293-2.292a.5.5 0 0 0-.854.353V8.5a.5.5 0 0 0 .5.5Z"></path>
  <path fill="#5e5e5e" stroke="none" d="M9 8.5V6.207a.5.5 0 0 0-.854-.353L5.854 8.146A.5.5 0 0 0 6.207 9H8.5a.5.5 0 0 0 .5-.5Z"></path>
</svg>