<svg width="80" height="80" fill="none" stroke="#5e5e5e" stroke-linecap="round" stroke-linejoin="round" stroke-width="2" viewBox="0 0 24 24" xmlns="http://www.w3.org/2000/svg">
  <path d="m11.328 9.207-2.12 2.121a1 1 0 0 0 0 1.414l2.12 2.122a1 1 0 0 0 1.415 0l2.121-2.122a1 1 0 0 0 0-1.414l-2.121-2.121a1 1 0 0 0-1.415 0Z"></path>
  <path d="M20.06 8a9 9 0 0 0-8.064-5C8.462 3 5.473 5.037 4 8"></path>
  <path d="M4 4v4"></path>
  <path d="M7.39 8H4"></path>
  <path d="M4 16a9 9 0 0 0 8.065 5c3.533 0 6.522-2.037 7.995-5"></path>
  <path d="M20.06 20v-4"></path>
  <path d="M16.67 16h3.39"></path>
</svg>