<svg width="80" height="80" fill="none" stroke="#5e5e5e" stroke-linecap="round" stroke-linejoin="round" stroke-width="2" viewBox="0 0 24 24" xmlns="http://www.w3.org/2000/svg">
  <path d="M2 17.5h20"></path>
  <path d="M12 16c0-2.21-1.903-4-4.25-4S3.5 13.79 3.5 16"></path>
  <path d="M20.5 16c0-5.523-3.806-10-8.5-10s-8.5 4.477-8.5 10"></path>
  <path d="M20.5 19a1.5 1.5 0 1 0 0-3 1.5 1.5 0 0 0 0 3Z"></path>
  <path d="M12 19a1.5 1.5 0 1 0 0-3 1.5 1.5 0 0 0 0 3Z"></path>
  <path d="M3.5 19a1.5 1.5 0 1 0 0-3 1.5 1.5 0 0 0 0 3Z"></path>
</svg>