<svg width="80" height="80" fill="none" stroke="#5e5e5e" stroke-linecap="round" stroke-linejoin="round" stroke-width="2" viewBox="0 0 24 24" xmlns="http://www.w3.org/2000/svg">
  <path d="M8 22c-.73-2.175-.967-4.008-.708-5.5.26-1.493 1.066-2.468 2.419-2.926-1.007 3.053-.595 5.284 1.237 6.692 2.748 2.113 9.369 1.141 9.728-6.005.358-7.146-3.079-12.305-8.16-12.305-5.083 0-5.843 5.5-2.264 7.367-3.166.69-5.176 2.107-6.028 4.25-.853 2.144-.92 4.953-.2 8.427"></path>
  <path d="M15.3 7.5c-1.449.864-1.974 1.655-1.575 2.373.398.718 1.302.718 2.712 0"></path>
  <path d="M16.623 13.12c-1.87-.381-2.995-.243-3.374.414-.568.985 1.936 2.413 2.843 2.591"></path>
</svg>