<svg width="80" height="80" fill="none" stroke="#5e5e5e" stroke-linecap="round" stroke-linejoin="round" stroke-width="2" viewBox="0 0 24 24" xmlns="http://www.w3.org/2000/svg">
  <path d="M4.929 15.535a1 1 0 0 1 0-1.414l1.475-1.475a1 1 0 0 1 .707-.293h1.293a1 1 0 0 0 .707-.293l2.95-2.95a1 1 0 0 0 .292-.706V7.11a1 1 0 0 1 .293-.707l1.475-1.475a1 1 0 0 1 1.414 0l3.536 3.535a1 1 0 0 1 0 1.414l-1.475 1.475a1 1 0 0 1-.707.293h-1.293a1 1 0 0 0-.707.293l-2.95 2.95a1 1 0 0 0-.293.707v1.293a1 1 0 0 1-.293.707L9.88 19.07a1 1 0 0 1-1.415 0L4.93 15.535Z"></path>
  <path d="m3.515 20.486 3.182-3.182"></path>
  <path d="m17.304 6.697 3.182-3.182"></path>
</svg>