<svg width="80" height="80" fill="none" stroke="#5e5e5e" stroke-linecap="round" stroke-linejoin="round" stroke-width="2" viewBox="0 0 24 24" xmlns="http://www.w3.org/2000/svg">
  <path d="M22 21h-6.5l-1.478-6.897a1.004 1.004 0 0 1-.022-.21V7.5l-3.715-2.982a.981.981 0 0 1 1.095-1.62L16 5.5l1.974 7.401a.995.995 0 0 0 .072.19L22 21Z"></path>
  <path d="m18 13-4 1"></path>
  <path d="m9.69 12.76.031.027a1 1 0 0 0 1.5-.254L12 11.231V8.885L10.16 7.5l-3.18.423-2.073 4.048a1 1 0 0 0-.062.15L2 21h5.98v-6.5l.52-2.456L8.75 11h.75l-.152.809a1 1 0 0 0 .341.952Z"></path>
  <path d="M5 12.5 8 14"></path>
</svg>