<svg width="80" height="80" fill="none" stroke="#5e5e5e" stroke-linecap="round" stroke-linejoin="round" stroke-width="2" viewBox="0 0 24 24" xmlns="http://www.w3.org/2000/svg">
  <path d="M6.5 12.5V5h3l1-1.5h3l1 1.5h3v7.5h-11Z"></path>
  <path d="m10 17.5 2 2-2 2"></path>
  <path d="M12 19.498c-5.523 0-10.5-2.238-10.5-5 0-1.125.744-2.164 2-3"></path>
  <path d="M16 19.082c3.532-.771 6.5-2.533 6.5-4.584 0-1.125-.744-2.164-2-3"></path>
  <path d="M12 10a1.5 1.5 0 1 0 0-3 1.5 1.5 0 0 0 0 3Z"></path>
</svg>