<svg width="80" height="80" fill="none" stroke="#5e5e5e" stroke-linecap="round" stroke-linejoin="round" stroke-width="2" viewBox="0 0 24 24" xmlns="http://www.w3.org/2000/svg">
  <path d="M16.5 7a2.5 2.5 0 1 0 0-5 2.5 2.5 0 0 0 0 5Z"></path>
  <path d="M20 11.5h-3.815c-.28 0-.55-.12-.74-.325l-2.67-2.89a1.005 1.005 0 0 0-1.265-.18l-3.725 2.29a.5.5 0 0 0 0 .85l3.73 2.285c.295.18.48.505.48.855L12 19"></path>
  <path d="M18.25 22a3.75 3.75 0 1 0 0-7.5 3.75 3.75 0 0 0 0 7.5Z"></path>
  <path d="M5.75 22a3.75 3.75 0 1 0 0-7.5 3.75 3.75 0 0 0 0 7.5Z"></path>
</svg>