<svg width="80" height="80" fill="none" stroke="#5e5e5e" stroke-linecap="round" stroke-linejoin="round" stroke-width="2" viewBox="0 0 24 24" xmlns="http://www.w3.org/2000/svg">
  <path d="M6.29 13.757 2 14.16v-2.82l6.129-2.618V5s2.86.701 3.269 1.306c.408.604 0 2.013 0 2.013 2.043.739 3.994 3.021 3.994 4.834 0 1.812-.892 4.097-.892 4.097-.99 0-1.355 2.146-.742 2.75"></path>
  <path d="M11 13c0 1.38-.895 2-2 2s-2-.62-2-2"></path>
  <path d="M8.69 15c.22 0 .438 1.6.22 2.4-.22.8-.439 1.2-2.41 2.6"></path>
  <path d="M18.5 8a1 1 0 1 0 0-2 1 1 0 0 0 0 2Z"></path>
  <path d="M13.5 15c1.217.042 3.055-.887 4-1.533 1.136-.78.067-2.006 1.362-2.278l.913-.689s.725 1.033 1.225 2c.5.967.8 3.95 0 5.75h-4l1.5 1.5"></path>
</svg>