<svg width="80" height="80" fill="none" stroke="#5e5e5e" stroke-linecap="round" stroke-linejoin="round" stroke-width="2" viewBox="0 0 24 24" xmlns="http://www.w3.org/2000/svg">
  <path d="M12 5.81a1.9 1.9 0 0 0 1.895-1.905A1.9 1.9 0 0 0 12 2a1.9 1.9 0 0 0-1.895 1.905A1.9 1.9 0 0 0 12 5.81Z"></path>
  <path d="M4.895 20.096a1.9 1.9 0 0 0 1.894-1.905 1.9 1.9 0 0 0-1.894-1.905A1.9 1.9 0 0 0 3 18.191a1.9 1.9 0 0 0 1.895 1.905Z"></path>
  <path d="M19.105 20.096A1.9 1.9 0 0 0 21 18.19a1.9 1.9 0 0 0-1.895-1.905 1.9 1.9 0 0 0-1.894 1.905 1.9 1.9 0 0 0 1.894 1.905Z"></path>
  <path d="M16.571 5.157a9.053 9.053 0 0 1 4.39 8.65"></path>
  <path d="M15.507 21.287A8.931 8.931 0 0 1 12 22a8.931 8.931 0 0 1-3.507-.713"></path>
  <path d="M3.04 13.808a9.053 9.053 0 0 1 4.389-8.65"></path>
</svg>