<svg width="80" height="80" fill="none" stroke="#5e5e5e" stroke-linecap="round" stroke-linejoin="round" stroke-width="2" viewBox="0 0 24 24" xmlns="http://www.w3.org/2000/svg">
  <path d="m10.453 3.031.715-.476a1.5 1.5 0 0 1 1.664 0l.715.476A10 10 0 0 1 18 11.351V16.5H6v-5.148a10 10 0 0 1 4.453-8.32Z"></path>
  <path d="M12 13a3 3 0 1 0 0-6 3 3 0 0 0 0 6Z"></path>
  <path d="m6 11-3 3.109V16.5h18v-2.391L18 11"></path>
  <path d="M12 19v3"></path>
  <path d="M8 20v1"></path>
  <path d="M16 20v1"></path>
</svg>