<svg width="80" height="80" fill="none" stroke="#5e5e5e" stroke-linecap="round" stroke-linejoin="round" stroke-width="2" viewBox="0 0 24 24" xmlns="http://www.w3.org/2000/svg">
  <path d="M3.286 9.787 2.204 6.18a.943.943 0 0 1 .382-1.075C4.029 4.189 7.321 2.5 12 2.5c4.671 0 7.9 1.683 9.38 2.599a.972.972 0 0 1 .407 1.11l-1.073 3.578a1 1 0 0 1-.958.713H18c-.552 0-1 .446-1 .998V16.5c0 .552-.453 1.006-.986 1.147-.65.173-1.476.546-2.014 1.352-1 1.5-1 3-1 3h-2s0-1.5-1-3c-.538-.806-1.364-1.18-2.014-1.352C7.453 17.506 7 17.052 7 16.5v-5.003a.998.998 0 0 0-1-.998H4.244a1 1 0 0 1-.958-.713Z"></path>
  <path d="M14.905 2.75a3 3 0 1 1-5.811 0"></path>
  <path d="M6.75 3.247A18.546 18.546 0 0 1 12 2.5c2.021 0 3.772.315 5.229.747"></path>
</svg>