<svg width="80" height="80" fill="none" stroke="#5e5e5e" stroke-linecap="round" stroke-linejoin="round" stroke-width="2" viewBox="0 0 24 24" xmlns="http://www.w3.org/2000/svg">
  <path d="M12 22c5.523 0 10-4.477 10-10S17.523 2 12 2 2 6.477 2 12s4.477 10 10 10Z"></path>
  <path d="M12 14a2 2 0 1 0 0-4 2 2 0 0 0 0 4Z"></path>
  <path d="M22 12a10 10 0 0 1-4.642 8.443l-2.143-3.377A6 6 0 0 0 18 12h4Z"></path>
  <path d="M6.712 20.488A10 10 0 0 1 2 12.083l4-.033a6 6 0 0 0 2.827 5.043l-2.115 3.395Z"></path>
  <path d="M7.221 3.216a10 10 0 0 1 9.635.042l-1.942 3.497a6 6 0 0 0-5.781-.026L7.22 3.216Z"></path>
</svg>