<svg width="80" height="80" fill="none" stroke="#5e5e5e" stroke-linecap="round" stroke-linejoin="round" stroke-width="2" viewBox="0 0 24 24" xmlns="http://www.w3.org/2000/svg">
  <path d="m4 14-1-2h18l-1 2"></path>
  <path d="M14 2 5 12h9V2Z"></path>
  <path d="m14 5.5 5 6.5h-5V5.5Z"></path>
  <path d="m2 17 1.25.676c.8.432 1.7.432 2.5 0a2.57 2.57 0 0 1 2.5 0c.8.432 1.7.432 2.5 0a2.57 2.57 0 0 1 2.5 0c.8.432 1.7.432 2.5 0a2.57 2.57 0 0 1 2.5 0c.8.432 1.7.432 2.5 0L22 17"></path>
  <path d="m2 20 1.25.676c.8.432 1.7.432 2.5 0a2.57 2.57 0 0 1 2.5 0c.8.432 1.7.432 2.5 0a2.57 2.57 0 0 1 2.5 0c.8.432 1.7.432 2.5 0a2.57 2.57 0 0 1 2.5 0c.8.432 1.7.432 2.5 0L22 20"></path>
</svg>