<svg width="80" height="80" fill="none" stroke="#5e5e5e" stroke-linecap="round" stroke-linejoin="round" stroke-width="2" viewBox="0 0 24 24" xmlns="http://www.w3.org/2000/svg">
  <path d="M8.9 20.07s2.079 2.08 4.325 1.498c2.246-.582 7.903-6.24 8.485-8.485.583-2.246-1.497-4.326-1.497-4.326"></path>
  <path d="M3.95 15.121s-2.08-2.08-1.498-4.326c.583-2.246 6.24-7.903 8.486-8.485 2.246-.582 4.325 1.497 4.325 1.497"></path>
  <path d="M14.203 4.868 5.01 14.06a3.5 3.5 0 1 0 4.95 4.95l9.192-9.192a3.5 3.5 0 0 0-4.95-4.95Z"></path>
  <path d="m7.839 16.889.281-.845a2.998 2.998 0 0 1 1.663-1.807l.21-.09a2.49 2.49 0 0 0 1.381-1.501 2.49 2.49 0 0 1 1.382-1.501l.474-.204a2.356 2.356 0 0 0 1.307-1.42 2.356 2.356 0 0 1 1.49-1.49l1.004-.335"></path>
</svg>