<svg width="80" height="80" fill="none" stroke="#5e5e5e" stroke-linecap="round" stroke-linejoin="round" stroke-width="2" viewBox="0 0 24 24" xmlns="http://www.w3.org/2000/svg">
  <path d="M3.5 12h17"></path>
  <path d="M12 3.5v17"></path>
  <path fill="#5e5e5e" stroke="none" d="M4.5 2.5h-2v2h2v-2Z"></path>
  <path fill="#5e5e5e" stroke="none" d="M9 2.5H7v2h2v-2Z"></path>
  <path fill="#5e5e5e" stroke="none" d="M17 2.5h-2v2h2v-2Z"></path>
  <path fill="#5e5e5e" stroke="none" d="M21.5 2.5h-2v2h2v-2Z"></path>
  <path fill="#5e5e5e" stroke="none" d="M21.5 7h-2v2h2V7Z"></path>
  <path fill="#5e5e5e" stroke="none" d="M4.5 7h-2v2h2V7Z"></path>
  <path fill="#5e5e5e" stroke="none" d="M4.5 19.5h-2v2h2v-2Z"></path>
  <path fill="#5e5e5e" stroke="none" d="M9 19.5H7v2h2v-2Z"></path>
  <path fill="#5e5e5e" stroke="none" d="M17 19.5h-2v2h2v-2Z"></path>
  <path fill="#5e5e5e" stroke="none" d="M21.5 19.5h-2v2h2v-2Z"></path>
  <path fill="#5e5e5e" stroke="none" d="M21.5 15h-2v2h2v-2Z"></path>
  <path fill="#5e5e5e" stroke="none" d="M4.5 15h-2v2h2v-2Z"></path>
</svg>