<svg width="80" height="80" fill="none" stroke="#5e5e5e" stroke-linecap="round" stroke-linejoin="round" stroke-width="2" viewBox="0 0 24 24" xmlns="http://www.w3.org/2000/svg">
  <path d="M20.5 6h-17A1.5 1.5 0 0 0 2 7.5v11A1.5 1.5 0 0 0 3.5 20h17a1.5 1.5 0 0 0 1.5-1.5v-11A1.5 1.5 0 0 0 20.5 6Z"></path>
  <path d="M7 3v3"></path>
  <path d="M17 3v3"></path>
  <path d="M5.113 12 7.5 9.508V16.5"></path>
  <path d="M12 6v14"></path>
  <path d="M17 16.5c.828 0 1.5-1.567 1.5-3.5s-.672-3.5-1.5-3.5-1.5 1.567-1.5 3.5.672 3.5 1.5 3.5Z"></path>
  <path d="M10.5 6h3"></path>
  <path d="M10.5 20h3"></path>
</svg>