<svg width="80" height="80" fill="none" stroke="#5e5e5e" stroke-linecap="round" stroke-linejoin="round" stroke-width="2" viewBox="0 0 24 24" xmlns="http://www.w3.org/2000/svg">
  <path d="M2.5 18.5a1 1 0 0 1 1-1h17a1 1 0 0 1 1 1V21a1 1 0 0 1-1 1h-17a1 1 0 0 1-1-1v-2.5Z"></path>
  <path d="M2.5 15.5a1 1 0 0 1 1-1h17a1 1 0 0 1 1 1V21a1 1 0 0 1-1 1h-17a1 1 0 0 1-1-1v-5.5Z"></path>
  <path d="M9.382 7.832a.5.5 0 0 1 .47-.332h4.296a.5.5 0 0 1 .47.332L17 14.5H7l2.382-6.668Z"></path>
  <path d="M13.8 2h-3.6a2.7 2.7 0 1 0 0 5.4h3.6a2.7 2.7 0 1 0 0-5.4Z"></path>
</svg>