<svg width="80" height="80" fill="none" stroke="#5e5e5e" stroke-linecap="round" stroke-linejoin="round" stroke-width="2" viewBox="0 0 24 24" xmlns="http://www.w3.org/2000/svg">
  <path d="M14.617 3.489c1.857-.783 5.638-1.234 6.897 2.946 1.259 4.18-4.154 7.306-4.013 4.05.14-3.257 3.997-.577 3.915 1.78-.083 2.357-2.531 2.616-2.531 2.616"></path>
  <path d="m12.513 1.889-9.526 5.5a1 1 0 0 0-.366 1.366l2 3.464a1 1 0 0 0 1.366.366l9.526-5.5a1 1 0 0 0 .366-1.366l-2-3.464a1 1 0 0 0-1.366-.366Z"></path>
  <path d="m10.75 9.835 3.75 6.495"></path>
  <path d="M16.549 16.88a1.5 1.5 0 0 0-2.598 1.5l1 1.731a1.5 1.5 0 0 0 2.598-1.5l-1-1.732Z"></path>
  <path d="m5.7 4.09 2.6-1.5"></path>
  <path d="m10.95 13.183 2.599-1.5"></path>
</svg>