<svg width="80" height="80" fill="none" stroke="#5e5e5e" stroke-linejoin="round" stroke-width="2" viewBox="0 0 24 24" xmlns="http://www.w3.org/2000/svg">
  <path d="M22 2H2v8h20V2Z"></path>
  <path d="M22 14H2v8h20v-8Z"></path>
  <path fill="#5e5e5e" stroke="none" d="M6.5 5h-1a.5.5 0 0 0-.5.5v1a.5.5 0 0 0 .5.5h1a.5.5 0 0 0 .5-.5v-1a.5.5 0 0 0-.5-.5Z"></path>
  <path fill="#5e5e5e" stroke="none" d="M6.5 17h-1a.5.5 0 0 0-.5.5v1a.5.5 0 0 0 .5.5h1a.5.5 0 0 0 .5-.5v-1a.5.5 0 0 0-.5-.5Z"></path>
  <path fill="#5e5e5e" stroke="none" d="M10.5 5h-1a.5.5 0 0 0-.5.5v1a.5.5 0 0 0 .5.5h1a.5.5 0 0 0 .5-.5v-1a.5.5 0 0 0-.5-.5Z"></path>
  <path fill="#5e5e5e" stroke="none" d="M10.5 17h-1a.5.5 0 0 0-.5.5v1a.5.5 0 0 0 .5.5h1a.5.5 0 0 0 .5-.5v-1a.5.5 0 0 0-.5-.5Z"></path>
</svg>