<svg width="80" height="80" fill="none" stroke="#5e5e5e" stroke-linecap="round" stroke-linejoin="round" stroke-width="2" viewBox="0 0 24 24" xmlns="http://www.w3.org/2000/svg">
  <path d="M14.5 7a2.5 2.5 0 1 0 0-5 2.5 2.5 0 0 0 0 5Z"></path>
  <path d="m12 9.5-2.145 4 3.8 3.01c.155.12.265.285.33.47l1.67 5.02"></path>
  <path d="m9.855 13.5-2.6 3.82c-.768 1.124-2.005 2.43-2.505 3.18"></path>
  <path d="m21 12-3.47.05c-.18 0-.36-.045-.52-.135l-1.635-.955A19.698 19.698 0 0 0 8.89 8.57l-1.61-.285L6 10.5"></path>
  <path d="m7.513 11.391-3.187-1.84-2.25 3.898 3.187 1.84 2.25-3.898Z"></path>
</svg>