<svg width="80" height="80" fill="none" stroke="#5e5e5e" stroke-linecap="round" stroke-linejoin="round" stroke-width="2" viewBox="0 0 24 24" xmlns="http://www.w3.org/2000/svg">
  <path d="M10.312 5.5H19.5s0 2.5-1.5 4-3 2-3.5 2S9.25 12 8 13s-2 2.75 0 4.5 5.5 2.5 8 1.5 4-4 4-4l2 5s-4 1.5-7.5 2-7 0-10-3-3.5-6.75-1-10c2.083-2.708 5.207-3.333 6.19-3.466.206-.028.413-.034.62-.034Z"></path>
  <path d="m13 11.5-3-6"></path>
  <path d="M9 2h7a3.5 3.5 0 0 1 3.5 3.5"></path>
  <path fill="#5e5e5e" stroke="none" d="M15 9a1 1 0 1 0 0-2 1 1 0 0 0 0 2Z"></path>
</svg>