<svg width="80" height="80" fill="none" stroke="#5e5e5e" stroke-linecap="round" stroke-linejoin="round" stroke-width="2" viewBox="0 0 24 24" xmlns="http://www.w3.org/2000/svg">
  <path d="M19.071 19.07A9.969 9.969 0 0 0 22 12a9.969 9.969 0 0 0-2.929-7.071"></path>
  <path d="M4.929 4.929A9.969 9.969 0 0 0 2 11.999a9.969 9.969 0 0 0 2.929 7.072"></path>
  <path d="M7.55 7.05A6.978 6.978 0 0 0 5.5 12c0 1.933.784 3.683 2.05 4.95"></path>
  <path d="M16.45 16.95A6.978 6.978 0 0 0 18.5 12a6.978 6.978 0 0 0-2.05-4.95"></path>
  <path d="M12 22v-5"></path>
  <path d="M12 2v5"></path>
  <path fill="#5e5e5e" stroke="none" d="M12 13.5a1.5 1.5 0 1 0 0-3 1.5 1.5 0 0 0 0 3Z"></path>
</svg>