<svg width="80" height="80" fill="none" stroke="#5e5e5e" stroke-linecap="round" stroke-linejoin="round" stroke-width="2" viewBox="0 0 24 24" xmlns="http://www.w3.org/2000/svg">
  <path d="M18.928 10v4"></path>
  <path d="m13.732 19 1.732-1 1.732-1"></path>
  <path d="m10.268 19-1.732-1-1.732-1"></path>
  <path d="M5.072 10v4"></path>
  <path d="m6.804 7 1.732-1 1.732-1"></path>
  <path d="m13.732 5 1.732 1 1.732 1"></path>
  <path d="M12 22a2 2 0 1 0 0-4 2 2 0 0 0 0 4Z"></path>
  <path d="M12 6a2 2 0 1 0 0-4 2 2 0 0 0 0 4Z"></path>
  <path d="M12 14a2 2 0 1 0 0-4 2 2 0 0 0 0 4Z"></path>
  <path d="M19 10a2 2 0 1 0 0-4 2 2 0 0 0 0 4Z"></path>
  <path d="M19 18a2 2 0 1 0 0-4 2 2 0 0 0 0 4Z"></path>
  <path d="M5 10a2 2 0 1 0 0-4 2 2 0 0 0 0 4Z"></path>
  <path d="M5 18a2 2 0 1 0 0-4 2 2 0 0 0 0 4Z"></path>
</svg>