<svg width="80" height="80" fill="none" stroke="#5e5e5e" stroke-linecap="round" stroke-linejoin="round" stroke-width="2" viewBox="0 0 24 24" xmlns="http://www.w3.org/2000/svg">
  <path d="M12 12V6m0 6-5.25 3.031L12 12Zm0 0 5.25 3.031L12 12Z"></path>
  <path d="M7 8a2 2 0 1 1-4 0 2 2 0 0 1 4 0Z"></path>
  <path d="M7 16a2 2 0 1 1-4 0 2 2 0 0 1 4 0Z"></path>
  <path d="M14 20a2 2 0 1 1-4 0 2 2 0 0 1 4 0Z"></path>
  <path d="M21 16a2 2 0 1 1-4 0 2 2 0 0 1 4 0Z"></path>
  <path d="M21 8a2 2 0 1 1-4 0 2 2 0 0 1 4 0Z"></path>
  <path d="M14 4a2 2 0 1 1-4 0 2 2 0 0 1 4 0Z"></path>
</svg>