<svg width="80" height="80" fill="none" stroke="#5e5e5e" stroke-linecap="round" stroke-linejoin="round" stroke-width="2" viewBox="0 0 24 24" xmlns="http://www.w3.org/2000/svg">
  <path d="m5.632 22 1.682-4.157A8.665 8.665 0 0 1 3.5 10.636C3.5 5.866 7.306 2 12 2s8.5 3.867 8.5 8.636c0 3.01-1.515 5.66-3.814 7.207L18.368 22H5.632Z"></path>
  <path d="M10 19v3"></path>
  <path d="M14 19v3"></path>
  <path d="M8.5 11.5a1.5 1.5 0 1 0 0-3 1.5 1.5 0 0 0 0 3Z"></path>
  <path d="M15.5 11.5a1.5 1.5 0 1 0 0-3 1.5 1.5 0 0 0 0 3Z"></path>
  <path d="M16 22h-4"></path>
  <path d="M12 22H8"></path>
</svg>