<svg width="80" height="80" fill="none" stroke="#5e5e5e" stroke-linecap="round" stroke-linejoin="round" stroke-width="2" viewBox="0 0 24 24" xmlns="http://www.w3.org/2000/svg">
  <path d="M5 19V3a1 1 0 0 1 1-1h12a1 1 0 0 1 1 1v.5"></path>
  <path d="M19 19v-3.75"></path>
  <path d="M12.5 6.5H12a3 3 0 0 0 0 6h.5"></path>
  <path d="M16.5 6.5h.5a3 3 0 0 1 0 6h-.5"></path>
  <path d="M12.5 9.5h4"></path>
  <path d="M5 19a3 3 0 0 1 3-3h8a3 3 0 0 1 0 6H8a3 3 0 0 1-3-3Z"></path>
  <path fill="#5e5e5e" stroke="none" d="M16 20a1 1 0 1 0 0-2 1 1 0 0 0 0 2Z"></path>
</svg>