<svg width="80" height="80" fill="none" stroke="#5e5e5e" stroke-linecap="round" stroke-linejoin="round" stroke-width="2" viewBox="0 0 24 24" xmlns="http://www.w3.org/2000/svg">
  <path d="M4.727 15.497A6.975 6.975 0 0 1 2 9.943C2 6.108 5.053 3 8.818 3c3.149 0 5.799 2.173 6.583 5.127a4.46 4.46 0 0 1 2.053-.499c2.51 0 4.546 2.073 4.546 4.629a4.633 4.633 0 0 1-2.727 4.243"></path>
  <path d="M9 11.5v3"></path>
  <path d="M7.5 13h3"></path>
  <path d="M15.5 13v3"></path>
  <path d="M14 14.5h3"></path>
  <path d="M12 18v3"></path>
  <path d="M10.5 19.5h3"></path>
</svg>