<svg width="80" height="80" fill="none" stroke="#5e5e5e" stroke-linecap="round" stroke-linejoin="round" stroke-width="2" viewBox="0 0 24 24" xmlns="http://www.w3.org/2000/svg">
  <path d="M12 22c5.525 0 10-4.475 10-10S17.525 2 12 2 2 6.475 2 12s4.475 10 10 10Z"></path>
  <path d="M5 19c1.85-1.815 3-4.205 3-7 0-2.76-1.19-5.19-3-7"></path>
  <path d="M19 19c-1.85-1.815-3-4.205-3-7 0-2.76 1.19-5.19 3-7"></path>
  <path d="M14 12h4"></path>
  <path d="M6 12h4"></path>
  <path d="m15 17 3-1.5"></path>
  <path d="M18 8.5 15 7"></path>
  <path d="m9 17-3-1.5"></path>
  <path d="M6 8.5 9 7"></path>
</svg>