<svg width="80" height="80" fill="none" stroke="#5e5e5e" stroke-linecap="round" stroke-linejoin="round" stroke-width="2" viewBox="0 0 24 24" xmlns="http://www.w3.org/2000/svg">
  <path d="M5 15h3a3 3 0 0 1 0 6H5v-6Z"></path>
  <path d="M5 14v8"></path>
  <path d="M2 16h3"></path>
  <path d="M2 19h3"></path>
  <path d="M11 18h4a1 1 0 0 0 1-1v-5.5"></path>
  <path d="M16 2v3.5"></path>
  <path d="m11.44 3.94 2.12 2.12"></path>
  <path d="m11.44 12.56 2.12-2.12"></path>
  <path d="m20.56 3.94-2.12 2.12"></path>
  <path d="m20.56 12.56-2.12-2.12"></path>
  <path d="M16 11.5a3 3 0 1 0 0-6 3 3 0 0 0 0 6Z"></path>
  <path d="M10 8.5h3"></path>
  <path d="M19 8.5h3"></path>
</svg>