<svg width="80" height="80" fill="none" stroke="#5e5e5e" stroke-linecap="round" stroke-linejoin="round" stroke-width="2" viewBox="0 0 24 24" xmlns="http://www.w3.org/2000/svg">
  <path d="M4.5 3.5A1.5 1.5 0 0 1 6 2h12a1.5 1.5 0 0 1 1.5 1.5v17A1.5 1.5 0 0 1 18 22H6a1.5 1.5 0 0 1-1.5-1.5v-17Z"></path>
  <path d="M12 14.5a3.5 3.5 0 1 0 0-7 3.5 3.5 0 0 0 0 7Z"></path>
  <path fill="#5e5e5e" stroke="none" d="M17 5a1 1 0 1 0-2 0 1 1 0 0 0 2 0Z"></path>
  <path d="M13.5 18h1"></path>
  <path d="M9.5 18h1"></path>
</svg>