<svg width="80" height="80" fill="none" stroke="#5e5e5e" stroke-linecap="round" stroke-linejoin="round" stroke-width="2" viewBox="0 0 24 24" xmlns="http://www.w3.org/2000/svg">
  <path d="M15.149 9.39s-1.615 4.55-2.382 5.345a2 2 0 1 1-2.878-2.778c.768-.795 5.26-2.567 5.26-2.567Z"></path>
  <path d="M19.425 19.425c1.9-1.9 3.075-4.526 3.075-7.425 0-5.799-4.701-10.5-10.5-10.5S1.5 6.201 1.5 12c0 2.9 1.175 5.524 3.075 7.425"></path>
  <path d="M12 2v2"></path>
  <path d="M19.423 5.571 17.868 6.83"></path>
  <path d="m21.261 13.616-1.948-.45"></path>
  <path d="m2.739 13.616 1.949-.45"></path>
  <path d="M4.577 5.571 6.132 6.83"></path>
</svg>