<svg width="80" height="80" fill="none" stroke="#5e5e5e" stroke-linecap="round" stroke-width="2" viewBox="0 0 24 24" xmlns="http://www.w3.org/2000/svg">
  <path d="M9.119 12.237c.928.65 1.165 1.337 1.804 1.785.7.49 1.474.75 2.085.508 1.153-.458 1.987-1.955 3.005-3.408 1.98-2.828 1.977-7.193.13-8.486-1.846-1.292-5.921.217-7.901 3.044-.968 1.382-2.235 3.223-2.158 4.002.064.655.284 1.02.978 1.637.695.616 1.066.225 2.057.918Z" clip-rule="evenodd"></path>
  <path d="M6.809 11.158c-1.77 1.949-2.004 3.43-.702 4.443 1.303 1.013 2.939.513 4.908-1.498"></path>
  <path d="M6.12 15.613c-1.55 1.694-1.834 3.273-.855 4.739 1.468 2.197 4.377 2.077 5.797.439s4.092-5.698 7.03-4.864c2.937.835 2.438 4.044.469 4.382"></path>
</svg>