<svg width="80" height="80" fill="none" stroke="#5e5e5e" stroke-linecap="round" stroke-linejoin="round" stroke-width="2" viewBox="0 0 24 24" xmlns="http://www.w3.org/2000/svg">
  <path d="M2 7V2.5a.5.5 0 0 1 .5-.5h7a.5.5 0 0 1 .5.5v19a.5.5 0 0 1-.5.5h-7a.5.5 0 0 1-.5-.5V17"></path>
  <path d="M22 17v4.5a.5.5 0 0 1-.5.5h-7a.5.5 0 0 1-.5-.5v-19a.5.5 0 0 1 .5-.5h7a.5.5 0 0 1 .5.5V7"></path>
  <path d="m14 12 8 .007"></path>
  <path d="M2 12.007 10 12"></path>
  <path d="m19.614 14.39.795-.796L22 12.003l-1.59-1.591-.796-.796"></path>
  <path d="m4.378 14.393-.796-.795-1.59-1.591 1.59-1.591.796-.796"></path>
</svg>