<svg width="80" height="80" fill="none" stroke="#5e5e5e" stroke-linecap="round" stroke-linejoin="round" stroke-width="2" viewBox="0 0 24 24" xmlns="http://www.w3.org/2000/svg">
  <path d="M19 19V3a1 1 0 0 0-1-1H6a1 1 0 0 0-1 1v16"></path>
  <path d="M12.5 7h-1"></path>
  <path d="M12.5 11h-1"></path>
  <path d="M5 19a3 3 0 0 1 3-3h8a3 3 0 0 1 0 6H8a3 3 0 0 1-3-3Z"></path>
  <path d="M8.5 19.5V22"></path>
  <path d="M11 19.5V22"></path>
  <path d="M13.5 19.5V22"></path>
  <path fill="#5e5e5e" stroke="none" d="M16 20a1 1 0 1 0 0-2 1 1 0 0 0 0 2Z"></path>
  <path d="M14.5 22h-7"></path>
</svg>