<svg width="80" height="80" fill="none" stroke="#5e5e5e" stroke-linecap="round" stroke-linejoin="round" stroke-width="2" viewBox="0 0 24 24" xmlns="http://www.w3.org/2000/svg">
  <path d="M19.531 15.14 2.79 18.094a1 1 0 0 0-.81 1.158l.173.985a1 1 0 0 0 1.158.811l16.742-2.952a1 1 0 0 0 .811-1.158l-.173-.985a1 1 0 0 0-1.159-.811Z"></path>
  <path d="m22 20-2-2"></path>
  <path d="m4 2 9.192 9.192-2.121 2.122L4.707 6.95C3.293 5.535 3.293 4.828 3.293 4.12 3.293 3.414 4 2 4 2Z"></path>
  <path d="m4 2 9 9 4.5 4.5"></path>
</svg>