<svg width="80" height="80" fill="none" stroke="#5e5e5e" stroke-linecap="round" stroke-linejoin="round" stroke-width="2" viewBox="0 0 24 24" xmlns="http://www.w3.org/2000/svg">
  <path d="M20.5 2h-17A1.5 1.5 0 0 0 2 3.5v17A1.5 1.5 0 0 0 3.5 22h17a1.5 1.5 0 0 0 1.5-1.5v-17A1.5 1.5 0 0 0 20.5 2Z"></path>
  <path fill="#5e5e5e" stroke="none" d="M6 7a1 1 0 1 0 0-2 1 1 0 0 0 0 2Z"></path>
  <path fill="#5e5e5e" stroke="none" d="M6 19a1 1 0 1 0 0-2 1 1 0 0 0 0 2Z"></path>
  <path fill="#5e5e5e" stroke="none" d="M18 7a1 1 0 1 0 0-2 1 1 0 0 0 0 2Z"></path>
  <path fill="#5e5e5e" stroke="none" d="M18 19a1 1 0 1 0 0-2 1 1 0 0 0 0 2Z"></path>
  <path d="M12 16.5a4.5 4.5 0 1 0 0-9 4.5 4.5 0 0 0 0 9Z"></path>
</svg>