<svg width="80" height="80" fill="none" stroke="#5e5e5e" stroke-linecap="round" stroke-linejoin="round" stroke-width="2" viewBox="0 0 24 24" xmlns="http://www.w3.org/2000/svg">
  <path d="M19 3H5a1 1 0 0 0-1 1v11a1 1 0 0 0 1 1h14a1 1 0 0 0 1-1V4a1 1 0 0 0-1-1Z"></path>
  <path fill="#5e5e5e" stroke="none" d="M7 14.5a1 1 0 1 0 0-2 1 1 0 0 0 0 2Z"></path>
  <path fill="#5e5e5e" stroke="none" d="M17 14.5a1 1 0 1 0 0-2 1 1 0 0 0 0 2Z"></path>
  <path d="M17 6H7v5h10V6Z"></path>
  <path d="m16 16 4 4.5"></path>
  <path d="M8.5 16 4 20.5"></path>
</svg>