<svg width="80" height="80" fill="none" stroke="#5e5e5e" stroke-linejoin="round" stroke-width="2" viewBox="0 0 24 24" xmlns="http://www.w3.org/2000/svg">
  <path d="M12 18.5a6.5 6.5 0 1 0 0-13 6.5 6.5 0 0 0 0 13Z"></path>
  <path fill="#5e5e5e" stroke="none" d="M12 3a1.25 1.25 0 1 0 0-2.5A1.25 1.25 0 0 0 12 3Z"></path>
  <path fill="#5e5e5e" stroke="none" d="M19.25 6a1.25 1.25 0 1 0 0-2.5 1.25 1.25 0 0 0 0 2.5Z"></path>
  <path fill="#5e5e5e" stroke="none" d="M22.25 13.25a1.25 1.25 0 1 0 0-2.5 1.25 1.25 0 0 0 0 2.5Z"></path>
  <path fill="#5e5e5e" stroke="none" d="M19.25 20.5a1.25 1.25 0 1 0 0-2.5 1.25 1.25 0 0 0 0 2.5Z"></path>
  <path fill="#5e5e5e" stroke="none" d="M12 23.5a1.25 1.25 0 1 0 0-2.5 1.25 1.25 0 0 0 0 2.5Z"></path>
  <path fill="#5e5e5e" stroke="none" d="M4.75 20.5a1.25 1.25 0 1 0 0-2.5 1.25 1.25 0 0 0 0 2.5Z"></path>
  <path fill="#5e5e5e" stroke="none" d="M1.75 13.25a1.25 1.25 0 1 0 0-2.5 1.25 1.25 0 0 0 0 2.5Z"></path>
  <path fill="#5e5e5e" stroke="none" d="M4.75 6a1.25 1.25 0 1 0 0-2.5 1.25 1.25 0 0 0 0 2.5Z"></path>
</svg>