<svg width="80" height="80" fill="none" stroke="#5e5e5e" stroke-linecap="round" stroke-linejoin="round" stroke-width="2" viewBox="0 0 24 24" xmlns="http://www.w3.org/2000/svg">
  <path d="M15.391 12.283a3.391 3.391 0 1 0-3.341-3.974"></path>
  <path fill="#5e5e5e" stroke="none" d="M16.5 3.5a1 1 0 1 0 0-2 1 1 0 0 0 0 2Z"></path>
  <path fill="#5e5e5e" stroke="none" d="M21 6a1 1 0 1 0 0-2 1 1 0 0 0 0 2Z"></path>
  <path fill="#5e5e5e" stroke="none" d="M22 10.5a1 1 0 1 0 0-2 1 1 0 0 0 0 2Z"></path>
  <path fill="#5e5e5e" stroke="none" d="M11 5a1 1 0 1 0 0-2 1 1 0 0 0 0 2Z"></path>
  <path d="M4.727 19.997A6.975 6.975 0 0 1 2 14.443C2 10.608 5.053 7.5 8.818 7.5c3.149 0 5.799 2.173 6.583 5.127a4.46 4.46 0 0 1 2.053-.499c2.51 0 4.546 2.073 4.546 4.629A4.633 4.633 0 0 1 19.273 21"></path>
  <path d="M11.121 12.379a3 3 0 0 0-4.243 4.243"></path>
</svg>