<svg width="80" height="80" fill="none" stroke="#5e5e5e" stroke-linecap="round" stroke-linejoin="round" stroke-width="2" viewBox="0 0 24 24" xmlns="http://www.w3.org/2000/svg">
  <path d="M3.184 13.225v7.836"></path>
  <path d="M3.184 16.653h3.428l1.96-2.94"></path>
  <path d="M3.673 10.286 16.64 18.93a.49.49 0 0 0 .524.013l4.632-2.78"></path>
  <path d="M3.712 6.72a.49.49 0 0 1-.054-.774l3.654-3.248a.49.49 0 0 1 .593-.044l13.256 8.685a.49.49 0 0 1-.005.823l-4.479 2.85a.49.49 0 0 1-.534-.005L3.712 6.719Z"></path>
</svg>