<svg width="80" height="80" fill="none" stroke="#5e5e5e" stroke-linecap="round" stroke-linejoin="round" stroke-width="2" viewBox="0 0 24 24" xmlns="http://www.w3.org/2000/svg">
  <path d="M14 16.584A5.018 5.018 0 0 0 16.584 14"></path>
  <path d="M7.416 14A5.019 5.019 0 0 0 10 16.584"></path>
  <path d="M10 7.416A5.019 5.019 0 0 0 7.416 10"></path>
  <path d="M14 7.416A5.018 5.018 0 0 1 16.584 10"></path>
  <path d="M15 20.488A9.025 9.025 0 0 0 20.488 15"></path>
  <path d="M3.512 15A9.025 9.025 0 0 0 9 20.488"></path>
  <path d="M9 3.512A9.025 9.025 0 0 0 3.512 9"></path>
  <path d="M15 3.512A9.025 9.025 0 0 1 20.488 9"></path>
  <path d="M13.5 8.5h-3L9 3.5 10 2h4l1 1.5-1.5 5Z"></path>
  <path d="M8.5 10.5v3l-5 1.5L2 14v-4l1.5-1 5 1.5Z"></path>
  <path d="M10.5 15.5h3l1.5 5-1 1.5h-4l-1-1.5 1.5-5Z"></path>
  <path d="M15.5 13.5v-3l5-1.5c.54.4.96.6 1.5 1v4c-.54.4-.96.6-1.5 1l-5-1.5Z"></path>
</svg>