<svg width="80" height="80" fill="none" stroke="#5e5e5e" stroke-linecap="round" stroke-linejoin="round" stroke-width="2" viewBox="0 0 24 24" xmlns="http://www.w3.org/2000/svg">
  <path d="M3 6a4 4 0 0 1 4-4h2.5a1 1 0 0 1 1 1v17a1 1 0 0 1-1 1H7a4 4 0 0 1-4-4V6Z"></path>
  <path d="M21 7a4 4 0 0 0-4-4h-3a1 1 0 0 0-1 1v17a1 1 0 0 0 1 1h3a4 4 0 0 0 4-4V7Z"></path>
  <path fill="#5e5e5e" stroke="none" d="M8 16.25a1.25 1.25 0 1 0-2.5 0 1.25 1.25 0 0 0 2.5 0Z"></path>
  <path fill="#5e5e5e" stroke="none" d="M18.25 8.25a1.25 1.25 0 1 0-2.5 0 1.25 1.25 0 0 0 2.5 0Z"></path>
  <path d="M7.5 8.5H6"></path>
  <path d="M17 14v3"></path>
  <path d="M15.5 15.5h3"></path>
</svg>