<svg width="80" height="80" fill="none" stroke="#5e5e5e" stroke-linecap="round" stroke-linejoin="round" stroke-width="2" viewBox="0 0 24 24" xmlns="http://www.w3.org/2000/svg">
  <path d="M15.725 8.48a2.5 2.5 0 1 0 0-5 2.5 2.5 0 0 0 0 5Z"></path>
  <path d="m18 17-1-5.5-5.5 2.5L5 12.5"></path>
  <path d="M2 20.515h20"></path>
  <path fill="#5e5e5e" stroke="none" d="M4.5 15a2.5 2.5 0 1 0 0-5 2.5 2.5 0 0 0 0 5Z"></path>
  <path fill="#5e5e5e" stroke="none" d="M3 9.5a1 1 0 1 0 0-2 1 1 0 0 0 0 2Z"></path>
  <path d="m17 11.5 5 3-7.5 2.5"></path>
</svg>