<svg width="80" height="80" fill="none" stroke="#5e5e5e" stroke-linecap="round" stroke-linejoin="round" stroke-width="2" viewBox="0 0 24 24" xmlns="http://www.w3.org/2000/svg">
  <path fill="#5e5e5e" stroke="none" d="M21 2.5h-2.293a.5.5 0 0 0-.354.854l2.293 2.292a.5.5 0 0 0 .854-.353V3a.5.5 0 0 0-.5-.5Z"></path>
  <path fill="#5e5e5e" stroke="none" d="M4 21.5h2.293a.5.5 0 0 0 .353-.854l-2.292-2.293a.5.5 0 0 0-.854.354V21a.5.5 0 0 0 .5.5Z"></path>
  <path d="M7 2v14a1 1 0 0 0 1 1h14"></path>
  <path d="M10.5 6.5h7v7"></path>
  <path d="M7 6.5H3"></path>
  <path d="M18 21v-4"></path>
</svg>