<svg width="80" height="80" fill="#5e5e5e" viewBox="0 0 24 24" xmlns="http://www.w3.org/2000/svg">
  <path d="M12 0c6.627 0 12 5.373 12 12s-5.373 12-12 12S0 18.627 0 12 5.373 0 12 0Zm0 2.182c-5.422 0-9.818 4.396-9.818 9.818S6.578 21.818 12 21.818s9.818-4.396 9.818-9.818S17.422 2.182 12 2.182ZM9.564 5.809l1.817.372c-.05.35-.167.746-.354 1.188a11.033 11.033 0 0 1 1.706-.473c1.194-.223 2.121-.35 3.04-.35.92 0 1.628.009 2.525.717a2.76 2.76 0 0 1 1.03 1.74l.025.155v6.337c0 .423-.113.86-.338 1.31-.212.422-.619.661-1.22.716l-.124.009h-3.77c-.24-.705-.24-1.12 0-1.248.362-.191 1.752.321 2.362 0 .38-.2.573-.572.58-1.117l-.001-.119v-5.98c0-.926-.567-1.567-2.313-1.472-.948.052-2.054.287-3.32.706l.412.125.495.17v.162c0 .276.205.505.473.54l.062.005 3.65.07v1.005h-2.729v1.25H16.3v.776h-2.757l.03 2.437c.256.02.51-.033.76-.157a.93.93 0 0 0 .393-.362l-.182-.36v-.001a.546.546 0 0 1 .186-.7l.056-.033.626-.315a.546.546 0 0 1 .741.26l.024.059.371 1.147a.546.546 0 0 1-.199.61l-.054.035-.45.25a.546.546 0 0 1-.72-.175l-.033-.055-.006-.011a4.27 4.27 0 0 1-.784.688c-.409.264-.85.48-1.357.513l-.14.005h-2.627c-.213 0-.6-.138-.996-.518-.243-.232-.39-.594-.443-1.086l-.012-.137v-1.371h2.078c.017.593.073 1.05.167 1.37.088.3.32.42.7.36l.082-.016v-2.437H8.727v-.776h3.027v-1.25h-.579l-.917 1.148-1-.632c.615-.693.991-1.141 1.128-1.346.137-.204.137-.556 0-1.056l.023.09-.02.01c-.354.534-.823 1.052-1.406 1.554l-.192.161-1.253-1.238c.57-.443.989-.855 1.253-1.236.265-.38.523-1.055.773-2.023ZM5.716 8.894l1.788 1.681c.649.61.86 1.549.543 2.373l-.045.106-1.855 4.155-2.044-1.42 2.602-2.755a1.091 1.091 0 0 0-.09-1.584l-.072-.054-1.857-1.32 1.03-1.182Zm1.102-3.44a1.364 1.364 0 1 1 0 2.728 1.364 1.364 0 0 1 0-2.727Z"></path>
</svg>