<svg width="80" height="80" fill="none" stroke="#5e5e5e" stroke-linecap="round" stroke-linejoin="round" stroke-width="2" viewBox="0 0 24 24" xmlns="http://www.w3.org/2000/svg">
  <path d="M2 6a1 1 0 0 1 1-1h18a1 1 0 0 1 1 1v12a1 1 0 0 1-1 1H3a1 1 0 0 1-1-1V6Z"></path>
  <path d="M7.135 5a1 1 0 0 0-.768 1.64l.833 1a1 1 0 0 0 .768.36h8.064a1 1 0 0 0 .768-.36l.833-1A1 1 0 0 0 16.865 5h-9.73Z" clip-rule="evenodd"></path>
  <path d="M3 5h18"></path>
  <path d="M16.5 15.5a2 2 0 1 0 0-4 2 2 0 0 0 0 4Z"></path>
  <path d="M7.5 15.5a2 2 0 1 0 0-4 2 2 0 0 0 0 4Z"></path>
</svg>