<svg width="80" height="80" fill="none" stroke="#5e5e5e" stroke-linecap="round" stroke-linejoin="round" stroke-width="2" viewBox="0 0 24 24" xmlns="http://www.w3.org/2000/svg">
  <path d="M11.944 19.944c4.42 0 8-3.58 8-8s-3.58-8-8-8-8 3.58-8 8 3.58 8 8 8Z"></path>
  <path d="M11.944 15.944c2.21 0 4-1.79 4-4s-1.79-4-4-4-4 1.79-4 4 1.79 4 4 4Z"></path>
  <path fill="#5e5e5e" stroke="none" d="M11.944 12.944c.55 0 1-.45 1-1s-.45-1-1-1-1 .45-1 1 .45 1 1 1Z"></path>
  <path d="M11.944 3.944v-2"></path>
  <path d="m18.944 21.944-2-3.5"></path>
  <path d="m6.944 18.444-2 3.5"></path>
</svg>