<svg width="80" height="80" fill="none" stroke="#5e5e5e" stroke-linecap="round" stroke-width="2" viewBox="0 0 24 24" xmlns="http://www.w3.org/2000/svg">
  <path d="M6.559 2.5H7c2.333.345 2.966 1.67 5 1.67 2.032 0 2.665-1.325 4.998-1.67h.251A4.75 4.75 0 0 1 22 7.25v.313c0 1.451-1.545 3.109-2 4.679-.483 1.667-.813 3.03-.91 4.455-.228 3.34-1.366 4.803-2.59 4.803-1.827 0-3.45-7.487-4.469-7.487-1.02 0-3.042 7.487-4.53 7.487-.91 0-2.086-.537-2.528-4.803C4.797 15 4.5 13.97 4 12.242c-.44-1.52-1.924-3.336-2-4.966A4.563 4.563 0 0 1 6.56 2.5Z" clip-rule="evenodd"></path>
  <path d="m7.741 6.231 8.26 2.663"></path>
  <path d="m7.741 8.894 8.26-2.663"></path>
</svg>