<svg width="80" height="80" fill="none" stroke="#5e5e5e" stroke-linecap="round" stroke-linejoin="round" stroke-width="2" viewBox="0 0 24 24" xmlns="http://www.w3.org/2000/svg">
  <path d="M9 5.5a3 3 0 0 0-6 0v13a3 3 0 1 0 6 0v-13Z"></path>
  <path d="M21 5.5a3 3 0 1 0-6 0v13a3 3 0 1 0 6 0v-13Z"></path>
  <path d="M6 21.5a3 3 0 1 0 0-6 3 3 0 0 0 0 6Z"></path>
  <path d="M18 21.5a3 3 0 1 0 0-6 3 3 0 0 0 0 6Z"></path>
  <path d="M15 10.5a3 3 0 0 0-6 0"></path>
  <path d="M15 15.5a3 3 0 0 0-6 0"></path>
</svg>