<svg width="80" height="80" fill="none" stroke="#5e5e5e" stroke-linecap="round" stroke-linejoin="round" stroke-width="2" viewBox="0 0 24 24" xmlns="http://www.w3.org/2000/svg">
  <path d="M20 8.199V3a1 1 0 0 0-1-1H5a1 1 0 0 0-1 1v18a1 1 0 0 0 1 1h5"></path>
  <path d="M8 7h6.5"></path>
  <path d="M8 10.5h2.5"></path>
  <path d="M17 22a5 5 0 1 1 0-10 5 5 0 0 1 0 10Z"></path>
  <path d="m13.5 13.5 7 7"></path>
  <path d="M12 17a5 5 0 0 1 5-5"></path>
  <path d="M17 22a5 5 0 0 0 5-5"></path>
</svg>