<svg width="80" height="80" fill="none" stroke="#5e5e5e" stroke-linecap="round" stroke-linejoin="round" stroke-width="2" viewBox="0 0 24 24" xmlns="http://www.w3.org/2000/svg">
  <path d="M16.5 12.5h-9c-.795 0-1.885-.115-2.5-.5-1.825-1.155-2.17-3.685-1-5.5L7 2c1.965 4.215 8.02 4.21 10 0l3 4.5c1.17 1.815.82 4.345-1 5.5-.615.39-1.705.5-2.5.5Z"></path>
  <path d="m6 12.5 1.26 4.775A4.945 4.945 0 0 1 6 22"></path>
  <path d="m18 12.5-1.26 4.79A4.918 4.918 0 0 0 18 22"></path>
  <path d="M12 21v-1"></path>
</svg>