<svg width="80" height="80" fill="none" stroke="#5e5e5e" stroke-linecap="round" stroke-linejoin="round" stroke-width="2" viewBox="0 0 24 24" xmlns="http://www.w3.org/2000/svg">
  <path d="m5.5 20-2.104-4.558a2.5 2.5 0 0 1 .883-3.128l.952-.635a.5.5 0 0 1 .543-.008l.226.142-.935-6.84a1.16 1.16 0 0 1 .22-.854.774.774 0 0 1 1.084-.155l.066.05c.205.154.36.366.444.608l2.056 5.939a.281.281 0 0 0 .546-.11l-.442-6.842a1.348 1.348 0 0 1 .392-1.04.899.899 0 0 1 1.197-.066l.17.136a1.5 1.5 0 0 1 .544.932l1.12 6.94a.284.284 0 0 0 .563-.018l.664-6.862a1.5 1.5 0 0 1 .556-1.027l.103-.082a.933.933 0 0 1 1.242.068 1.4 1.4 0 0 1 .41.99v6.376c0 .03.003.058.009.087.056.257.395 1.592 1.491 1.957.454.151 1.182 1.4 1.686 2.364.37.706.335 1.548-.052 2.246L17.25 20s-1.75 2-5.75 2-5.667-1.333-6-2Z"></path>
</svg>