<svg width="80" height="80" fill="none" stroke="#5e5e5e" stroke-linecap="round" stroke-linejoin="round" stroke-width="2" viewBox="0 0 24 24" xmlns="http://www.w3.org/2000/svg">
  <path d="M2 13a1 1 0 0 1 1-1h18a1 1 0 0 1 1 1v2.68c0 .477-.342.89-.76 1.12-.593.324-1.362.97-1.637 2.207-.12.539-.55.993-1.103.993h-13c-.552 0-.983-.454-1.103-.993-.275-1.237-1.044-1.883-1.637-2.208-.418-.228-.76-.642-.76-1.119V13Z"></path>
  <path d="M7 15.5h10"></path>
  <path d="m12.5 2-3 3.5h5l-3 3.5"></path>
</svg>