<svg width="80" height="80" fill="none" stroke="#5e5e5e" stroke-linecap="round" stroke-linejoin="round" stroke-width="2" viewBox="0 0 24 24" xmlns="http://www.w3.org/2000/svg">
  <path d="M17 15v-.505a1.494 1.494 0 0 1 2.989-.003l.006 4.1A3.403 3.403 0 0 1 16.593 22h-3.77a6.965 6.965 0 0 1-5.595-2.819l-2.133-2.878a1.496 1.496 0 0 1 2.26-1.948L8 15V8a1.5 1.5 0 1 1 3 0v5.938-3.425a1.513 1.513 0 1 1 3.026 0V14.5v-.55a1.487 1.487 0 1 1 2.974 0V15Z"></path>
  <path d="M16 2v4"></path>
  <path d="M8 10H3V8c1 0 2-.75 1.987-2C4.974 4.75 4 4 3 4V2h18v2c-1 0-1.974.75-1.987 2C19 7.25 20 8 21 8v2h-7"></path>
</svg>