<svg width="80" height="80" fill="none" stroke="#5e5e5e" stroke-linecap="round" stroke-linejoin="round" stroke-width="2" viewBox="0 0 24 24" xmlns="http://www.w3.org/2000/svg">
  <path d="M2.5 9v11a1 1 0 0 0 1 1h17a1 1 0 0 0 1-1V9a1 1 0 0 0-1-1h-17a1 1 0 0 0-1 1Z"></path>
  <path d="M4.5 8 16 2.5 18.5 8"></path>
  <path fill="#5e5e5e" stroke="none" d="M6.5 12.5a1 1 0 1 0 0-2 1 1 0 0 0 0 2Z"></path>
  <path fill="#5e5e5e" stroke="none" d="M6.5 15.5a1 1 0 1 0 0-2 1 1 0 0 0 0 2Z"></path>
  <path fill="#5e5e5e" stroke="none" d="M6.5 18.5a1 1 0 1 0 0-2 1 1 0 0 0 0 2Z"></path>
  <path d="M10.5 17.5h2l5.5-6"></path>
  <path d="M12 14.5h3"></path>
</svg>