<svg width="80" height="80" fill="none" stroke="#5e5e5e" stroke-linecap="round" stroke-linejoin="round" stroke-width="2" viewBox="0 0 24 24" xmlns="http://www.w3.org/2000/svg">
  <path d="M6.5 6a2 2 0 1 0 4 0 2 2 0 0 0-4 0Z"></path>
  <path d="M15.5 12a2 2 0 1 0 4 0 2 2 0 0 0-4 0Z"></path>
  <path d="M6.5 18a2 2 0 1 0 4 0 2 2 0 0 0-4 0Z"></path>
  <path d="M2 18h4.5"></path>
  <path d="M10.5 18H22"></path>
  <path d="M2 6h4.5"></path>
  <path d="M10.5 6H22"></path>
  <path d="M2 2v20"></path>
  <path d="M2 12h13.5"></path>
  <path d="M19.5 12H22"></path>
</svg>