<svg width="80" height="80" fill="none" stroke="#5e5e5e" stroke-linecap="round" stroke-linejoin="round" stroke-width="2" viewBox="0 0 24 24" xmlns="http://www.w3.org/2000/svg">
  <path d="M2 2s3 3 10 3 10-3 10-3"></path>
  <path d="M12 5v3"></path>
  <path d="M15 22c2.21 0 4-3.134 4-7s-1.79-7-4-7-4 3.134-4 7 1.79 7 4 7Z"></path>
  <path d="M15 18c.828 0 1.5-1.343 1.5-3s-.672-3-1.5-3-1.5 1.343-1.5 3 .672 3 1.5 3Z"></path>
  <path d="M9 22c-2.21 0-4-3.134-4-7s1.79-7 4-7"></path>
  <path d="M15 8H9"></path>
  <path d="M15 22H9"></path>
  <path d="M11 14.5H5"></path>
  <path d="M11.5 11H6"></path>
  <path d="M11.5 18.5H6"></path>
</svg>