<svg width="80" height="80" fill="none" stroke="#5e5e5e" stroke-linejoin="round" stroke-width="2" viewBox="0 0 24 24" xmlns="http://www.w3.org/2000/svg">
  <path d="m9.452 9.084-4.29-.912a.516.516 0 0 1-.397-.612l.966-4.544a.516.516 0 0 1 .612-.397l14.64 3.112c.28.06.457.333.398.612l-.966 4.544a.516.516 0 0 1-.612.397l-4.253-.904c-.194-.041-.309.023-.345.192-.44 2.076-1.102 5.188-1.984 9.338a.516.516 0 0 1-.613.398l-4.543-.966a.516.516 0 0 1-.398-.612l1.986-9.34c.035-.168-.031-.27-.2-.306Z"></path>
</svg>