<svg width="80" height="80" fill="none" stroke="#5e5e5e" stroke-linecap="round" stroke-linejoin="round" stroke-width="2" viewBox="0 0 24 24" xmlns="http://www.w3.org/2000/svg">
  <path d="M2 22h20"></path>
  <path d="m10.625 3.737 7.727 2.07L14 22H5.5l5.125-18.263Z"></path>
  <path d="m9.659 3.479 9.659 2.588"></path>
  <path d="m8.106 9.273 9.659 2.589"></path>
  <path d="m12.741 10.466.518-1.932"></path>
  <path d="m6.553 15.07 9.66 2.587"></path>
  <path d="m11.241 15.966.518-1.932"></path>
  <path d="m16.938 3.358-3.864-1.035a.5.5 0 0 0-.612.353l-.259.966a.5.5 0 0 0 .354.613L16.42 5.29a.5.5 0 0 0 .613-.354l.258-.966a.5.5 0 0 0-.353-.612Z"></path>
  <path d="m9.741 21.466.518-1.932"></path>
</svg>