<svg width="80" height="80" fill="none" stroke="#5e5e5e" stroke-linecap="round" stroke-linejoin="round" stroke-width="2" viewBox="0 0 24 24" xmlns="http://www.w3.org/2000/svg">
  <path d="M12 21.5h2.977c.042-1.369.243-2.12.602-2.257C19.334 17.818 22 14.217 22 10H2c0 4.126 2.552 7.662 6.178 9.147.38.155.663.94.85 2.353H12Z" clip-rule="evenodd"></path>
  <path d="M7.222 13.51c.18.595.417 1.085.713 1.472.29.378.646.729 1.07 1.052"></path>
  <path d="M12.607 10.014c1.878-3.876 2.982-6.161 3.31-6.855.525-1.105 1.59-1.37 2.573-.95.983.419 1.38 1.62.968 2.458-.255.517-1.12 2.296-2.595 5.335"></path>
</svg>