<svg width="80" height="80" fill="none" stroke="#5e5e5e" stroke-linecap="round" stroke-linejoin="round" stroke-width="2" viewBox="0 0 24 24" xmlns="http://www.w3.org/2000/svg">
  <path d="M20.5 6h-11A1.5 1.5 0 0 0 8 7.5v6A1.5 1.5 0 0 0 9.5 15h11a1.5 1.5 0 0 0 1.5-1.5v-6A1.5 1.5 0 0 0 20.5 6Z"></path>
  <path d="M12 9v3"></path>
  <path d="M18 9v3"></path>
  <path d="M18 6V3h-6v3"></path>
  <path d="M22 18H6a1 1 0 0 1-1-1V5.5a1 1 0 0 0-1-1H2"></path>
  <path d="M9.5 21A1.5 1.5 0 0 1 8 19.5V18h3v1.5A1.5 1.5 0 0 1 9.5 21Z"></path>
  <path d="M18.5 21a1.5 1.5 0 0 1-1.5-1.5V18h3v1.5a1.5 1.5 0 0 1-1.5 1.5Z"></path>
</svg>