<svg width="80" height="80" fill="none" stroke="#5e5e5e" stroke-linecap="round" stroke-linejoin="round" stroke-width="2" viewBox="0 0 24 24" xmlns="http://www.w3.org/2000/svg">
  <path d="M18.5 13v4.703c0 1.821-1.456 3.297-3.252 3.297-1.795 0-3.251-1.476-3.251-3.297l.006-11.132C12.003 4.6 10.547 3 8.751 3 6.957 3 5.5 4.599 5.5 6.571v7.625"></path>
  <path d="m21.5 15.5-3-3-3 3"></path>
  <path d="M21.5 5.364c0 2.227-3 4.136-3 4.136s-3-1.91-3-4.136a2.8 2.8 0 0 1 .879-2.025A3.074 3.074 0 0 1 18.5 2.5c.796 0 1.559.302 2.121.839a2.8 2.8 0 0 1 .879 2.025Z"></path>
  <path d="M8.5 17.364c0 2.227-3 4.136-3 4.136s-3-1.91-3-4.136a2.8 2.8 0 0 1 .879-2.025A3.074 3.074 0 0 1 5.5 14.5c.796 0 1.559.302 2.121.839a2.8 2.8 0 0 1 .879 2.025Z"></path>
  <path fill="#5e5e5e" stroke="none" d="M18.5 6.5a1 1 0 1 0 0-2 1 1 0 0 0 0 2Z"></path>
  <path fill="#5e5e5e" stroke="none" d="M5.5 18.5a1 1 0 1 0 0-2 1 1 0 0 0 0 2Z"></path>
</svg>