<svg width="80" height="80" fill="none" stroke="#5e5e5e" stroke-linecap="round" stroke-linejoin="round" stroke-width="2" viewBox="0 0 24 24" xmlns="http://www.w3.org/2000/svg">
  <path d="M2 18h20l-2.5 4h-15L2 18Z"></path>
  <path d="M5.5 15v3h13v-2.5c0-3-1.5-4-1.5-4 1-1.25 1.5-3 0-4s-2.75 0-3.5 1c0 0-8-1-8 6.5Z"></path>
  <path d="M10.5 12s-.5.25-1 1-.5 1.5-.5 1.5"></path>
  <path d="m19.5 4.5-2.5 3"></path>
  <path fill="#5e5e5e" stroke="none" d="M18.46 4.764a1.25 1.25 0 1 0 1.436-2.046 1.25 1.25 0 0 0-1.436 2.046Z"></path>
  <path fill="#5e5e5e" stroke="none" d="M19.687 5.627a1.25 1.25 0 1 0 1.437-2.046 1.25 1.25 0 0 0-1.437 2.046Z"></path>
</svg>