<svg width="80" height="80" fill="none" stroke="#5e5e5e" stroke-linecap="round" stroke-linejoin="round" stroke-width="2" viewBox="0 0 24 24" xmlns="http://www.w3.org/2000/svg">
  <path d="M10.5 21.5c-2.363-.884-4.334-3.907-5.32-5.679-.426-.764-.202-1.704.482-2.25a1.915 1.915 0 0 1 2.55.14L9 14.5V8.75a1.25 1.25 0 0 1 2.5 0v3a1.25 1.25 0 0 1 2.5 0v1a1.25 1.25 0 0 1 2.5 0v1a1.25 1.25 0 0 1 2.5 0v3.934c0 .535-.132 1.064-.44 1.501-.513.726-1.432 1.832-2.56 2.315-1.75.75-3.315.817-5.5 0Z"></path>
  <path d="M6 4.5 7.5 6"></path>
  <path d="m9.5 2 .5 3"></path>
  <path d="m13.5 4-1 1.5"></path>
</svg>