<svg width="80" height="80" fill="none" stroke="#5e5e5e" stroke-linecap="round" stroke-linejoin="round" stroke-width="2" viewBox="0 0 24 24" xmlns="http://www.w3.org/2000/svg">
  <path d="m5.5 20-2.053-4.449a2.5 2.5 0 0 1 .998-3.2l2.77-1.637a1.5 1.5 0 0 1 1.558.02l.344.214a.5.5 0 0 0 .761-.482L9.074 3.63a1.308 1.308 0 0 1 .374-1.078.872.872 0 0 1 1.161-.064l.19.151a1.5 1.5 0 0 1 .543.933l1.12 6.94a.284.284 0 0 0 .563-.018l.664-6.863a1.5 1.5 0 0 1 .556-1.027l.103-.082a.933.933 0 0 1 1.242.069c.263.262.41.618.41.989v11.13a.5.5 0 0 0 .812.39l1.688-1.35c.826-.66 1.937-.23 2.628.223.219.144.251.44.096.651L17.25 20s-1.75 2-5.75 2-5.667-1.333-6-2Z"></path>
</svg>