<svg width="80" height="80" fill="none" stroke="#5e5e5e" stroke-linecap="round" stroke-linejoin="round" stroke-width="2" viewBox="0 0 24 24" xmlns="http://www.w3.org/2000/svg">
  <path d="M2 6a1 1 0 0 1 1-1h18a1 1 0 0 1 1 1v12a1 1 0 0 1-1 1H3a1 1 0 0 1-1-1V6Z"></path>
  <path d="M7.707 16.293A1 1 0 0 1 8.414 16h6.716a1 1 0 0 1 .65.24L19 19H5l2.707-2.707Z"></path>
  <path d="M19.5 19h-15"></path>
  <path d="M7.5 12.5a2 2 0 1 0 0-4 2 2 0 0 0 0 4Z"></path>
  <path d="M16.5 12.5a2 2 0 1 0 0-4 2 2 0 0 0 0 4Z"></path>
  <path d="M7.5 12.5h9"></path>
  <path d="M7.5 8.5h9"></path>
</svg>