<svg width="80" height="80" fill="none" stroke="#5e5e5e" stroke-linecap="round" stroke-linejoin="round" stroke-width="2" viewBox="0 0 24 24" xmlns="http://www.w3.org/2000/svg">
  <path d="M8.364 13.5c1.212-1.212 2.424-1.818 3.636-1.818 1.212 0 2.424.606 3.636 1.818 1.415-1.212 2.475-1.818 3.182-1.818.707 0 1.768.606 3.182 1.818 0-5.523-4.477-10-10-10S2 7.977 2 13.5c1.414-1.212 2.475-1.818 3.182-1.818.707 0 1.767.606 3.182 1.818Z"></path>
  <path d="M12 12v7.277c0 1.507 1.243 2.729 2.75 2.729s2.75-1.222 2.75-2.73"></path>
  <path d="M12 1.5v2"></path>
</svg>