<svg width="80" height="80" fill="none" stroke="#5e5e5e" stroke-linecap="round" stroke-linejoin="round" stroke-width="2" viewBox="0 0 24 24" xmlns="http://www.w3.org/2000/svg">
  <path d="M16 8h4.5a1 1 0 0 1 1 1v11.5a1 1 0 0 1-1 1H9a1 1 0 0 1-1-1V16"></path>
  <path d="M16 8V3.5a1 1 0 0 0-1-1H3.5a1 1 0 0 0-1 1V15a1 1 0 0 0 1 1H8"></path>
  <path d="m20.5 8-12 12"></path>
  <path d="M16 3.5 3.5 16"></path>
  <path d="m16 8-8 8"></path>
  <path d="M21.5 12 12 21.5"></path>
  <path d="M12 2.5 2.5 12"></path>
  <path d="M21.5 17 17 21.5"></path>
  <path d="M7 2.5 2.5 7"></path>
</svg>