<svg width="80" height="80" fill="none" stroke="#5e5e5e" stroke-linecap="round" stroke-linejoin="round" stroke-width="2" viewBox="0 0 24 24" xmlns="http://www.w3.org/2000/svg">
  <path d="M16 9c-.462 3-1.5 5.75-3.75 5.75s-3-2.5-3.75-5.75 0-6 3.75-6S16.46 6 16 9Z"></path>
  <path d="M10 13.5v8"></path>
  <path d="M14.5 13.5v8"></path>
  <path d="M2 9.001c0 2.155 1.448 4.091 2.944 3.648 1.496-.443 1.287-2.193.587-3.013C4.831 8.815 2.911 8.503 2 9Z"></path>
  <path d="M22 8.978c0 2.155-.825 4.113-2.47 3.67-1.645-.443-1.415-2.193-.646-3.014.77-.82 2.115-1.154 3.116-.656Z"></path>
  <path d="M8.25 6c-.885-.772-1.93-.835-3.207-.747C3.128 5.383 2 6.846 2 9"></path>
  <path d="M16.25 6.25c.875-.816 1.766-1.085 3.17-.998C21.526 5.383 22 6.824 22 8.978"></path>
</svg>