<svg width="80" height="80" fill="none" stroke="#5e5e5e" stroke-linecap="round" stroke-linejoin="round" stroke-width="2" viewBox="0 0 24 24" xmlns="http://www.w3.org/2000/svg">
  <path d="M13 11.25V5c0-1.5 1-3 3-3s3 1.5 3 3v12"></path>
  <path d="M16.375 17h5.25L22 20h-6l.375-3Z"></path>
  <path d="M5 20h7.943a.057.057 0 0 0 .057-.057v-8.316A6.627 6.627 0 0 0 6.373 5 2.873 2.873 0 0 0 3.5 7.873V14.5"></path>
  <path d="M5 20a3 3 0 1 0 0-6 3 3 0 0 0 0 6Z"></path>
  <path d="M7 5v9.5"></path>
</svg>