<svg width="80" height="80" fill="none" stroke="#5e5e5e" stroke-linecap="round" stroke-linejoin="round" stroke-width="2" viewBox="0 0 24 24" xmlns="http://www.w3.org/2000/svg">
  <path d="M16 3.951c.75-.201 1.665-.145 2.22 0 1.25.33 2.163.894 2.708 1.68.631.909.74 2.069.326 3.447-.85 2.82-4.3 4.57-4.504 4.672"></path>
  <path d="M13.623 20.635c.258.049.52.075.782.076.734 0 1.367-.208 1.878-.617.556-.443.967-1.094 1.133-1.955.166-.86-.076-1.668-.34-2.455-.186-.559-.309-1.402-.326-1.934"></path>
  <path d="M6.5 13.25s-2.905-1.353-3.754-4.172C2.332 7.7 2.441 6.54 3.072 5.63c.546-.786 1.457-1.35 2.708-1.68a6.267 6.267 0 0 1 1.581-.22"></path>
  <path d="M6.75 13.5c.25.5.034 1.398-.23 2.186s-.536 1.601-.34 2.455c.195.853.576 1.511 1.132 1.954.512.409.953.655 1.688.655.262-.001 1-.25 1-.25"></path>
  <path d="M11.75 2c2.623 0 4.75 1.322 4.75 5.188 0 3.866-4.75 8.812-4.75 8.812S7 11.053 7 7.187C7 3.321 9.126 2 11.75 2Z"></path>
  <path d="M12 21.115c-1.005 0-1.86-.33-2.435-.835-.664-.583-1.002-1.413-1.002-2.466 0-.878.475-1.61.934-2.32.326-.503.777-1.495.777-1.495s.237-.818.198-1.35c-.072-.982-1.026-1.721-1.18-2.228-.188-.63-.142-1.014.142-1.207.087-.06.422-.08.422-.08s-.063-.923-.023-1.227c.047-.365.238-.886.686-.924.31-.027.555.02.714.353.051.108.086.24.136.42.15.566.392 1.228.628 1.766.238-.537.479-1.199.63-1.766.05-.18.086-.311.137-.42.16-.333.405-.38.715-.352.378.032.638.559.685.923.04.304.032.71-.024 1.227h.024c.108 0 .313.02.4.08.285.192.302.76.143 1.206-.207.58-1.105 1.147-1.207 2.08-.064.589.047.935.226 1.5.197.627.45.99.776 1.494.46.71.934 1.442.934 2.32 0 1.053-.337 1.883-1.002 2.466-.576.503-1.43.835-2.434.835Z"></path>
</svg>