<svg width="80" height="80" fill="none" stroke="#5e5e5e" stroke-linecap="round" stroke-linejoin="round" stroke-width="2" viewBox="0 0 24 24" xmlns="http://www.w3.org/2000/svg">
  <path d="M16.5 10.5H3a1 1 0 0 0-1 1v8a1 1 0 0 0 1 1h13.5a1 1 0 0 0 1-1v-8a1 1 0 0 0-1-1Z"></path>
  <path d="M14.5 13.5H10v4h4.5v-4Z"></path>
  <path d="M13.5 9a2.5 2.5 0 1 0 0-5 2.5 2.5 0 0 0 0 5Z"></path>
  <path d="M6.5 9a2.5 2.5 0 1 0 0-5 2.5 2.5 0 0 0 0 5Z"></path>
  <path d="m17.5 17.5 4.5 2v-8l-4.5 2"></path>
</svg>