<svg width="80" height="80" fill="none" stroke="#5e5e5e" stroke-linecap="round" stroke-linejoin="round" stroke-width="2" viewBox="0 0 24 24" xmlns="http://www.w3.org/2000/svg">
  <path d="M19.5 3h-15A1.5 1.5 0 0 0 3 4.5v15A1.5 1.5 0 0 0 4.5 21h15a1.5 1.5 0 0 0 1.5-1.5v-15A1.5 1.5 0 0 0 19.5 3Z"></path>
  <path d="M10.5 6.5h-4v4h4v-4Z"></path>
  <path d="M10.5 13.5h-4v4h4v-4Z"></path>
  <path d="M13.5 14h4"></path>
  <path d="M13.5 17.5h4"></path>
  <path d="M13.5 6.5h4"></path>
  <path d="M13.5 10h4"></path>
</svg>