<svg width="80" height="80" fill="none" stroke="#5e5e5e" stroke-linejoin="round" stroke-width="2" viewBox="0 0 24 24" xmlns="http://www.w3.org/2000/svg">
  <path d="M12 22.063c4.764 0 8.625-3.808 8.625-8.505 0-1.153-.158-2.25-.495-3.296-.195-.604-.352-.892-.583-1.447-.232-.556-.54-1.025-.89-1.496-.35-.472-1.034-1.4-1.507-1.586 0 .731-1.436 3.284-1.987 3.413-.552.128.407-2.685-.814-4.609-1.222-1.924-3.196-3.187-3.196-2.322 0 .864-.547 2.316-1.097 3.036-.55.72-1.443 1.338-2.065 1.628-.622.29-.397-1.454-.863-1.146-.47.31-1.14 1.176-1.49 1.719-1.232 1.9-2.263 3.757-2.263 6.106 0 4.697 3.862 8.505 8.625 8.505Z"></path>
  <path d="M9.648 11.866v4.368a.939.939 0 0 0 1.431.8l4.193-2.584a.47.47 0 0 0 0-.8l-4.193-2.584a.939.939 0 0 0-1.431.8Z"></path>
</svg>