<svg width="80" height="80" fill="none" stroke="#5e5e5e" stroke-linecap="round" stroke-linejoin="round" stroke-width="2" viewBox="0 0 24 24" xmlns="http://www.w3.org/2000/svg">
  <path d="M15.905 21.203c5.084-2.16 7.454-8.028 5.3-13.107C19.05 3.017 13.174.638 8.095 2.797 3.017 4.957.638 10.825 2.797 15.904c2.16 5.079 8.029 7.458 13.108 5.299Z"></path>
  <path d="M8 3c-.747 3.505.969 7.098 4 9"></path>
  <path d="M6 20c3.485-1.13 5.87-4.34 6-8"></path>
  <path d="M22 12.5c-2.725-2.337-7.25-2.299-10-.5"></path>
  <path d="M8.5 8s5.78-4.245 12-1"></path>
  <path d="M10 16.5S3.795 14.01 3.5 7"></path>
  <path d="M17 11s.78 7.25-5.14 11.015"></path>
</svg>