<svg width="80" height="80" fill="none" stroke="#5e5e5e" stroke-linecap="round" stroke-linejoin="round" stroke-width="2" viewBox="0 0 24 24" xmlns="http://www.w3.org/2000/svg">
  <path d="M20.5 6.5h-17a1 1 0 0 0-1 1v11a1 1 0 0 0 1 1h17a1 1 0 0 0 1-1v-11a1 1 0 0 0-1-1Z"></path>
  <path d="M21.5 10h-9v5.5h9V10Z"></path>
  <path d="M21.5 9v7.5"></path>
  <path d="M16 6.5c0-2.5-1.75-3-2.5-3H6.25C4.45 3.5 4 4.933 4 5.65v.85"></path>
  <path fill="#5e5e5e" stroke="none" d="M16.75 13.5a.75.75 0 1 0 0-1.5.75.75 0 0 0 0 1.5Z"></path>
</svg>