<svg width="80" height="80" fill="none" stroke="#5e5e5e" stroke-linecap="round" stroke-linejoin="round" stroke-width="2" viewBox="0 0 24 24" xmlns="http://www.w3.org/2000/svg">
  <path d="M19 2H5a1 1 0 0 0-1 1v18a1 1 0 0 0 1 1h14a1 1 0 0 0 1-1V3a1 1 0 0 0-1-1Z"></path>
  <path d="M4 7.75h16"></path>
  <path fill="#5e5e5e" stroke="none" d="M14 6a1 1 0 1 0 0-2 1 1 0 0 0 0 2Z"></path>
  <path fill="#5e5e5e" stroke="none" d="M17 6a1 1 0 1 0 0-2 1 1 0 0 0 0 2Z"></path>
  <path d="M12 18.5a3.5 3.5 0 1 0 0-7 3.5 3.5 0 0 0 0 7Z"></path>
</svg>