<svg width="80" height="80" fill="none" stroke="#5e5e5e" stroke-linecap="round" stroke-linejoin="round" stroke-width="2" viewBox="0 0 24 24" xmlns="http://www.w3.org/2000/svg">
  <path d="m2 17.5 1.25.676c.8.432 1.7.432 2.5 0a2.57 2.57 0 0 1 2.5 0c.8.432 1.7.432 2.5 0a2.57 2.57 0 0 1 2.5 0c.8.432 1.7.432 2.5 0a2.57 2.57 0 0 1 2.5 0c.8.432 1.7.432 2.5 0L22 17.5"></path>
  <path d="m2 20.5 1.25.676c.8.432 1.7.432 2.5 0a2.57 2.57 0 0 1 2.5 0c.8.432 1.7.432 2.5 0a2.57 2.57 0 0 1 2.5 0c.8.432 1.7.432 2.5 0a2.57 2.57 0 0 1 2.5 0c.8.432 1.7.432 2.5 0L22 20.5"></path>
  <path d="M12.5 9a2.5 2.5 0 1 0 0-5 2.5 2.5 0 0 0 0 5Z"></path>
  <path d="m12.5 14.5-.5-2"></path>
  <path d="M2 5.5 5.5 11l6.5 1.465h9"></path>
  <path fill="#5e5e5e" stroke="none" d="M5.5 5a1.5 1.5 0 1 0 0-3 1.5 1.5 0 0 0 0 3Z"></path>
</svg>