<svg width="80" height="80" fill="none" stroke="#5e5e5e" stroke-linecap="round" stroke-linejoin="round" stroke-width="2" viewBox="0 0 24 24" xmlns="http://www.w3.org/2000/svg">
  <path d="m2 17 1.25.676c.8.432 1.7.432 2.5 0a2.57 2.57 0 0 1 2.5 0c.8.432 1.7.432 2.5 0a2.57 2.57 0 0 1 2.5 0c.8.432 1.7.432 2.5 0a2.57 2.57 0 0 1 2.5 0c.8.432 1.7.432 2.5 0L22 17"></path>
  <path d="m2 20 1.25.676c.8.432 1.7.432 2.5 0a2.57 2.57 0 0 1 2.5 0c.8.432 1.7.432 2.5 0a2.57 2.57 0 0 1 2.5 0c.8.432 1.7.432 2.5 0a2.57 2.57 0 0 1 2.5 0c.8.432 1.7.432 2.5 0L22 20"></path>
  <path d="M21.794 14a9.91 9.91 0 0 0-.595-5.903C19.045 3.013 13.171.639 8.093 2.798A10.002 10.002 0 0 0 2.195 13.97"></path>
  <path d="M8 3c-.765 3.585.895 7.055 4 9"></path>
  <path d="M11.695 14A8.87 8.87 0 0 0 12 12"></path>
  <path d="M22 13c-2.725-2.455-6.765-2.72-10-1"></path>
  <path d="M9 8s5.28-4.245 11.5-1"></path>
  <path d="M6.5 14c-1.495-1.635-2.87-3.855-3-7"></path>
  <path d="M17.155 11.045s.11 1.25-.19 2.975"></path>
</svg>