<svg width="80" height="80" fill="none" stroke="#5e5e5e" stroke-linecap="round" stroke-linejoin="round" stroke-width="2" viewBox="0 0 24 24" xmlns="http://www.w3.org/2000/svg">
  <path d="M6.28 8.205c-1.671 1.625-5.198 6.368-2.599 9.76 2.6 3.393 9.96 2.084 12.998-.306 3.039-2.39 2.739-3.867 2.08-4.518-.659-.65-2.581.007-3.12-.878-.537-.886.959-3.098-.316-3.798-1.276-.7-3.478 1.825-4.472 1.17-.995-.657 1.094-2.799 0-3.416-1.095-.617-2.898.361-4.57 1.986Z"></path>
  <path d="M21.69 8.258a6.477 6.477 0 0 0-1.821-4.037 6.482 6.482 0 0 0-3.862-1.92"></path>
  <path d="M18.646 8.465a3.324 3.324 0 0 0-1-2.114 3.624 3.624 0 0 0-2.12-1.005"></path>
  <path fill="#5e5e5e" stroke="none" d="M12.5 15c0 1.105-1.343 2-3 2s-3-.895-3-2 1.343-2 3-2 3 .895 3 2Z"></path>
</svg>