<svg width="80" height="80" fill="none" stroke="#5e5e5e" stroke-linecap="round" stroke-linejoin="round" stroke-width="2" viewBox="0 0 24 24" xmlns="http://www.w3.org/2000/svg">
  <path d="M20.5 2h-17A1.5 1.5 0 0 0 2 3.5v17A1.5 1.5 0 0 0 3.5 22h17a1.5 1.5 0 0 0 1.5-1.5v-17A1.5 1.5 0 0 0 20.5 2Z"></path>
  <path d="M6 9.526c1.662-2 3.662-3 6-3s4.338 1 6 3"></path>
  <path fill="#5e5e5e" stroke="none" d="M12 15.5a1.5 1.5 0 1 0 0-3 1.5 1.5 0 0 0 0 3Z"></path>
  <path d="m9.5 10.5 2.504 3.5"></path>
</svg>