<svg width="80" height="80" fill="none" stroke="#5e5e5e" stroke-linecap="round" stroke-linejoin="round" stroke-width="2" viewBox="0 0 24 24" xmlns="http://www.w3.org/2000/svg">
  <path d="M11 22a2 2 0 1 0 0-4 2 2 0 0 0 0 4Z"></path>
  <path d="M13 6a2 2 0 1 0 0-4 2 2 0 0 0 0 4Z"></path>
  <path d="M18 14a2 2 0 1 0 0-4 2 2 0 0 0 0 4Z"></path>
  <path d="M6 14a2 2 0 1 0 0-4 2 2 0 0 0 0 4Z"></path>
  <path d="M16 12H8"></path>
  <path d="m11.5 5.5-4 5"></path>
  <path d="m16.5 13.5-4 5"></path>
</svg>