<svg width="80" height="80" fill="none" stroke="#5e5e5e" stroke-linecap="round" stroke-linejoin="round" stroke-width="2" viewBox="0 0 24 24" xmlns="http://www.w3.org/2000/svg">
  <path d="m5.318 14.75 1.468-8.072"></path>
  <path d="m17.259 6.924-.26-1.423-3.434-1.717a3.5 3.5 0 0 0-3.13 0l-1.745.872"></path>
  <path d="m17.846 10.152.654 3.598 1.045 5.75-1.7-9.348Z"></path>
  <path d="M18 22H4l.478-2.629"></path>
  <path d="M19.646 4.353a.5.5 0 0 1 .707 0l1.293 1.293a.5.5 0 0 1 0 .707l-4.293 4.293a.5.5 0 0 1-.707 0l-1.293-1.293a.5.5 0 0 1 0-.707l4.293-4.293Z"></path>
  <path d="m13.5 10.5 2-2"></path>
  <path d="M19.646 19.646a.5.5 0 0 1 0 .707l-1.293 1.293a.5.5 0 0 1-.707 0l-4.293-4.293a.5.5 0 0 1 0-.707l1.293-1.293a.5.5 0 0 1 .707 0l4.293 4.293Z"></path>
  <path d="m13.5 13.5 2 2"></path>
  <path d="M4.353 19.646a.5.5 0 0 1-.707 0l-1.293-1.293a.5.5 0 0 1 0-.707l4.293-4.293a.5.5 0 0 1 .707 0l1.293 1.293a.5.5 0 0 1 0 .707l-4.293 4.293Z"></path>
  <path d="m10.5 13.5-2 2"></path>
  <path d="M4.353 4.353a.5.5 0 0 1 0-.707l1.293-1.293a.5.5 0 0 1 .707 0l4.293 4.293a.5.5 0 0 1 0 .707L9.353 8.646a.5.5 0 0 1-.707 0L4.353 4.353Z"></path>
  <path d="m10.5 10.5-2-2"></path>
  <path d="M12 14a2 2 0 1 0 0-4 2 2 0 0 0 0 4Z"></path>
</svg>