<svg width="80" height="80" fill="none" stroke="#5e5e5e" stroke-linecap="round" stroke-width="2" viewBox="0 0 24 24" xmlns="http://www.w3.org/2000/svg">
  <path d="M12 22c5.523 0 10-4.477 10-10S17.523 2 12 2 2 6.477 2 12s4.477 10 10 10Z"></path>
  <path d="M2 10.42c1.507-.712 2.622-.811 3.345-.297 1.083.77 1.22 3.909 3.684 2.409 2.464-1.5-1.056-2.112-.291-4.285.764-2.174 3.266-.485 3.515-2.866.166-1.587-1.733-2.194-5.695-1.822"></path>
  <path d="M18 4c-2.857 2.494-3.855 4-2.994 4.519 1.292.777 1.84-.317 3.417 0 1.577.317 1.236 2.454.406 2.454-.829 0-5.124-.547-4.908 1.96.217 2.506 2.8 2.877 2.8 4.278 0 .933-.572 2.362-1.715 4.286"></path>
  <path d="M3.052 16.463c.456-.198.799-.344 1.028-.437 1.924-.777 3.35-.96 4.282-.55 1.646.727 1.013 2.194 1.529 2.735.515.54 1.803.383 1.803 1.411 0 .686-.23 1.46-.69 2.323"></path>
</svg>