<svg width="80" height="80" fill="none" stroke="#5e5e5e" stroke-linecap="round" stroke-linejoin="round" stroke-width="2" viewBox="0 0 24 24" xmlns="http://www.w3.org/2000/svg">
  <path d="M2.072 10.54c.177-1.893.266-2.84 1.256-3.852.99-1.013 2.08-1.14 4.259-1.394C9.002 5.129 10.565 5 12 5s2.998.129 4.413.294c2.18.254 3.269.38 4.26 1.394.99 1.012 1.078 1.959 1.255 3.852.045.478.072.97.072 1.46s-.027.982-.072 1.46c-.177 1.893-.266 2.84-1.256 3.852-.99 1.013-2.08 1.14-4.259 1.394-1.415.165-2.978.294-4.413.294s-2.998-.129-4.413-.294c-2.18-.254-3.269-.38-4.259-1.393-.99-1.013-1.079-1.96-1.256-3.853A15.696 15.696 0 0 1 2 12c0-.49.027-.982.072-1.46Z"></path>
  <path d="M8 9.5v5"></path>
  <path d="M16.5 9.5 14 12l2.5 2.5"></path>
</svg>