<svg width="80" height="80" fill="none" stroke="#5e5e5e" stroke-linejoin="round" stroke-width="2" viewBox="0 0 24 24" xmlns="http://www.w3.org/2000/svg">
  <path d="M12 21.167a9.167 9.167 0 1 0-9.167-9.166c0 1.242.57 1.843 1.474 2.372.903.529 2.603.441 3.76 1.478C9.221 16.89 9.3 18.576 9.54 19.396c.24.82 1.217 1.771 2.46 1.771Z"></path>
  <path d="M9.763 9.27c-.27.655-.404 1.423-.404 2.306 0 .84.09 1.672.268 2.495a1.528 1.528 0 0 0 1.905 1.148c.9-.253 1.684-.583 2.351-.992a8.237 8.237 0 0 0 1.744-1.447 1.528 1.528 0 0 0-.138-2.207A16.373 16.373 0 0 0 13.5 9.14c-.723-.443-1.431-.71-2.124-.802a1.528 1.528 0 0 0-1.613.934Z"></path>
</svg>