<svg width="80" height="80" fill="none" stroke="#5e5e5e" stroke-linecap="round" stroke-linejoin="round" stroke-width="2" viewBox="0 0 24 24" xmlns="http://www.w3.org/2000/svg">
  <path d="M16 21c-2.368 1.353-5.5 1.25-8 0s-4.5-4-4.5-6.25c0-1.312 2.178-2.265 3.098-2.61a.523.523 0 0 0 .339-.563L5.793 3.955a1.702 1.702 0 1 1 3.375-.44L10 11l.415-7.885a1.704 1.704 0 1 1 3.398.259l-.52 5.193a1.186 1.186 0 0 1 1.18-1.067c1.12 0 2.027.907 2.027 2.027v1.223a1.75 1.75 0 1 1 3.5 0v5.324c0 .283-.026.566-.126.831-.298.788-1.23 2.584-3.874 4.095Z"></path>
</svg>