<svg width="80" height="80" fill="none" stroke="#5e5e5e" stroke-linecap="round" stroke-linejoin="round" stroke-width="2" viewBox="0 0 24 24" xmlns="http://www.w3.org/2000/svg">
  <path d="M2.314 6.374 12 2.5l9.686 3.874A.5.5 0 0 1 22 6.84V21a.5.5 0 0 1-.5.5h-19A.5.5 0 0 1 2 21V6.838a.5.5 0 0 1 .314-.464Z" clip-rule="evenodd"></path>
  <path d="M12 11v5"></path>
  <path d="M16.5 13.5c.828 0 1.5-.56 1.5-1.25S17.328 11 16.5 11h-1.35a.15.15 0 0 0-.15.15v1.1c0 .69.671 1.25 1.5 1.25Z" clip-rule="evenodd"></path>
  <path d="M15 11v5"></path>
  <path d="M6 11h3.002L6 16h3.002"></path>
</svg>